<svg xmlns="http://www.w3.org/2000/svg" viewBox="0 0 245.66 238.14"><defs><style>.a{fill:#fff}</style></defs><path class="a" d="M206.68 24.64c1-.65 2.06-1.31 3.11-1.95a4.08 4.08 0 0 1 .85-.38 10.51 10.51 0 0 0 2.7-.94c1.54-1.07 2.58 0 3.72.62s2.27 1.39 3.67 2.27l-1.65 1.33c-.17.13-.51.25-.51.36.12 1.47-1.12 1.75-2 2.42-2.19 1.71-4.31 3.5-6.46 5.27l-2.65 2.19 2.66 1.84a3.25 3.25 0 0 1-3.12 1.17 5.62 5.62 0 0 0-5.22 1.41c-.77.71-1.39.74-2-.33a25.7 25.7 0 0 0-2.05-2.77l-.32.21c.88 1.26 1.77 2.51 2.74 3.89l-4.82 3.12-2.9-3.6-.31.24c.87 1.15 1.75 2.3 2.74 3.62l-5.33 3.48-2.91-3.48-.3.23 2.68 3.49-5.09 3.39c-1-1.25-1.88-2.41-2.78-3.58l-.3.21 2.64 3.7-5 3.42-2.94-3.6c.27 1.58 1.68 2.47 2.4 3.94l-5.35 3.68-2.77-3.51-.3.23 2.64 3.6c-1.43 1-2.87 1.92-4.24 2.94-.73.55-1.18.4-1.66-.28-.68-.94-1.4-1.85-2.11-2.77l-.33.25 2.67 3.55-7.81 6.24 2 1.52c-.4.38-.74.71-1.1 1-1.86-1-3.59-1.93-5.36-2.8a1.52 1.52 0 0 0-1.27 0c-2.92 1.91-5.8 3.9-8.71 5.84-2.5 1.67-5 3.3-7.53 5-.78.51-1.55 1-2.43 1.64 4 2.62 8 5.17 11.91 7.78 3.16 2.1 6.27 4.27 9.41 6.41 2.92 2 5.94 3.86 8.73 6 2.61 2 5 4.38 7.48 6.5a18.3 18.3 0 0 0 2.95 1.71h.27c.72.44 2.07 1 2 1.33-.16 1.08-1.18 1.57-2.3 1.63-.21 0-.42 0-.75.08.95 1.4 1.83 2.69 2.72 4s1.78 2.44 2.62 3.7c2 3.06 3.92 6.2 6 9.18 1.59 2.24 4.14 2.65 6.66 2.61a8.57 8.57 0 0 1 6.05 2.42c2.63 2.27 5.51 4.24 8.25 6.39 2.26 1.77 4.45 3.62 6.7 5.4s4.7 3.65 7.06 5.48 4.81 3.75 7.23 5.62l11.87 9.17c1.86 1.44 3.72 2.88 5.56 4.35 1.17.94 1.24 1.79 0 2.61a22.22 22.22 0 0 1-3.92 1.73c-3 1.16-6 2.22-9 3.42-3.15 1.27-6.29 2.57-9.34 4-2.87 1.38-5.62 3-8.41 4.53-.77.43-1.26.51-1.9-.36-2-2.76-4.2-5.42-6.28-8.14-1.52-2-3-4.05-4.49-6.05-2.13-2.8-4.3-5.55-6.43-8.35-1.44-1.88-2.81-3.81-4.25-5.7q-3.5-4.59-7-9.17a17.83 17.83 0 0 1-1.56-2c-1.27-2.25-3.58-2.75-5.73-3.49-3.39-1.17-6.81-2.25-10.2-3.42a7.4 7.4 0 0 1-1.46-1 21.4 21.4 0 0 0 2.55-2.86 22.21 22.21 0 0 0 2.61-5.34c.7-2.53-.79-4.59-2.33-6.45-.56-.68-1.35-1.16-1.92-1.83a2.87 2.87 0 0 0-3.46-.69 14.74 14.74 0 0 1-12.77-1.38 16.09 16.09 0 0 1-3.3-2.57c-1.25-1.26-1.1-2.31.19-3.49a7.71 7.71 0 0 1 4.27-1.87 12.16 12.16 0 0 0 1.6-.53c-1.48-1-2.68-1.86-3.9-2.67-4.17-2.79-8.37-5.52-12.51-8.35a47.47 47.47 0 0 0-8.36-4.66 35.16 35.16 0 0 1-6.23-3.88c-1.61-1.13-2-1.18-3.65-.07-2.81 1.9-5.7 3.68-8.5 5.6q-3.56 2.43-7 5.08a3.28 3.28 0 0 0-.3 5c2.64 2.89 2.59 3.54-.54 5.8-1.43 1-2.94 2-4.31 3.08-2.9 2.32-5.92 2.16-9 .53s-5.85-1.18-8.53.84c-.75.56-1.56 1-2.28 1.62a2.33 2.33 0 0 0-.45 3.23 3 3 0 0 1 .2.49c1 3 1.79 6 2.89 8.88.54 1.44 1 3.11 2.87 3.64.29.08.47.5.9 1a26.2 26.2 0 0 1-3.11 1.43 14.08 14.08 0 0 0-7 4.86c-3.22 4-6.65 7.79-10 11.7-2.15 2.53-4.23 5.11-6.36 7.64-1.35 1.6-2.76 3.14-4.1 4.75a1.65 1.65 0 0 0-.19 1.05c0 .23.3.42.4.65.69 1.58.87 3-.64 4.37-2.47 2.24-4.78 4.64-7.17 7a12.77 12.77 0 0 0-1.94 1.87c-1.56 2.32-3.7 2.67-6.11 1.87-3.74-1.24-7.4-2.72-11.16-3.91a125.63 125.63 0 0 1-21.3-9.57 7.31 7.31 0 0 1-1.35-.92 2.33 2.33 0 0 1 0-3.76c8.19-7.23 16.74-14 25.46-20.57C34 143 39.3 139.3 44.53 135.5a6.73 6.73 0 0 1 4.35-1.19 56.32 56.32 0 0 0 8-.07c3.37-.37 4-1.68 3.92-4.26-.09-2.95 0-5.91 0-8.86a11.43 11.43 0 0 1 2.88-7.31 77.67 77.67 0 0 1 6.83-7.76 89.92 89.92 0 0 1 7.87-6.39c2.05-1.57 4.19-3 6.33-4.48s4.41-2.84 6.6-4.29 4.41-3 6.64-4.52 4.59-3 7-4.48c-1.44-1.12-2.79-2.19-4.16-3.25-2.09-1.61-4.28-3.1-6.25-4.83C91.66 71.3 89 68.57 86.18 66c-1.91-1.71-3.67-3.72-6.9-4a17.42 17.42 0 0 1 12-3.43c-1.57-1.32-6.66-.23-10.13 1.52L0 5.85C1.49 5 2.68 4.2 3.91 3.51c1.81-1 3.74-1.84 5.46-3 1.51-1 2.54-.39 3.75.43C18.54 4.6 24 8.2 29.42 11.83c3.2 2.17 6.38 4.31 9.58 6.44 4.06 2.7 8.14 5.35 12.2 8.05 2.54 1.69 5 3.43 7.57 5.13q6.7 4.5 13.44 9c4 2.62 7.94 5.17 11.88 7.81 4.6 3.09 9.13 6.27 13.73 9.35 3.25 2.18 6.59 4.24 9.85 6.41 3.45 2.3 6.85 4.68 10.28 7a15.66 15.66 0 0 0 1.91 1.25 1.48 1.48 0 0 0 1.25 0c3-2 6-4 9.06-6 3.44-2.25 6.91-4.44 10.35-6.68 2.59-1.69 5.13-3.44 7.72-5.13 2.84-1.85 5.71-3.66 8.54-5.51 2.13-1.39 4.23-2.84 6.35-4.25s4.38-2.88 6.57-4.32l8-5.31q6.57-4.34 13.13-8.67Q199 21 207.25 15.65q6.88-4.5 13.79-9A65.63 65.63 0 0 0 226.6 3c1.93-1.55 3.75-1 5.54-.06 2.88 1.44 2.93 2.19.33 3.94-4.59 3.09-9.25 6.09-13.86 9.15q-5.6 3.71-11.15 7.47a10.67 10.67 0 0 0-1 .81.7.7 0 0 0 .22.33Zm-113.22 93c-2.86.59-5.19-.5-7.34-2.37a1.77 1.77 0 0 0 1 2.16 14.69 14.69 0 0 0 2.55 1.25 6.48 6.48 0 0 0 6.17-.82c1.68-1.22 3.39-2.4 5.07-3.61 2.21-1.58 2.2-2.8-.09-4.27a6.91 6.91 0 0 0-7.54.5A57.34 57.34 0 0 1 88 114c1 2.55 3 3.41 5.46 3.66Zm62.77 4.77a1.93 1.93 0 0 1 .3-.27c2.37-1.43 1.95-3.21.37-4.39a7.62 7.62 0 0 1-1.17-1.1 6.26 6.26 0 0 0-8.29-.73c-1.29 1-1.46 2.3-.17 3.29 3.59 2.76 7.49 4.73 12.22 3.68a21.85 21.85 0 0 0 3.31-1.34c0-.15-.06-.31-.1-.46l-2.94-2c-.29 2.28-1.87 2.91-3.53 3.34ZM85.69 56.19l.35-.43L9.58 4.25c-.11.16-.22.32-.32.48Zm4.59 40.07.26.39 43.8-28.8-.26-.39Zm-44 82.62c0-.11 0-.23.08-.34-1.82-.6-3.65-1.16-5.45-1.82q-7.14-2.61-14.26-5.3c-4.78-1.8-9.78-3.08-14.13-5.94a27.92 27.92 0 0 0-2.65-1.41c0 .34.09.54.25.63a56.63 56.63 0 0 0 6.11 3.43c3.79 1.58 7.7 2.88 11.56 4.28l16.82 6.11a15 15 0 0 0 1.63.36Zm150.35-148-.29-.38L157 57.71l.27.38Zm38.09 134.75-.29-.48c-1.07.92-2.11 1.87-3.21 2.76A56.57 56.57 0 0 1 209 178.82a7 7 0 0 0-1.07.43l.22.43c9.85-2.68 19.09-6.68 26.53-14.02Zm-37.59-29.25c-.11.12-.21.24-.32.35l26.47 21.14.29-.36Zm-80.48-61.1.31-.55L93.54 59.1l-.28.42Zm-44.12 66.19-.36-.3-20 23.94.36.3 20-23.94ZM142 92.37l.33-.42-11.88-8.2-.31.45Zm77-67.84.21-.39-4.76-2.65-.2.38q2.4 1.34 4.75 2.66Z"/><path class="a" d="M94.22 162.52a2.86 2.86 0 0 1 3.85-1.06 1 1 0 0 0 .85-.16c3.8-3.23 8.17-5.59 12.48-8.05 1.4-.8 2.78-1.62 4.16-2.46a.89.89 0 0 0 .35-.56 3.05 3.05 0 0 1 2.8-2.69c.17-.74.19-1.81.49-1.9a15.34 15.34 0 0 1 3.59-.44c.18 0 .54.57.56.89.17 2.22.31 4.44.34 6.66a1.58 1.58 0 0 1-.85 1.22 5.43 5.43 0 0 1-2.4.23c-.41 0-.74-.66-1.21-1.12-.53.27-1.33.64-2.08 1.11a1 1 0 0 0-.47.81c.21 1-.34 1.51-1.08 2-2.66 1.64-5.26 3.38-8 4.9a9.23 9.23 0 0 0-4.81 9.78c.72 4.66 1.31 9.35 2 14a11.59 11.59 0 0 0 .74 2.32 2.81 2.81 0 0 1-.52 3.14 19.42 19.42 0 0 0-1.51 2.27l-2.89-3.78a5.39 5.39 0 0 0-.35 1.35c.26 2.66.57 5.31.86 8 .32 3 .8 5.94.91 8.92.1 2.7-.24 5.41-.33 8.12v4.48c0 2.79-.16 5.59 0 8.38a9.77 9.77 0 0 0 1 3.13c.38.92 1 1.72 1.38 2.65s.61 2-.59 2.62a2.55 2.55 0 0 1-3-.83 3 3 0 0 1-.51-1c-.24-1-.53-1.82-1.68-2.15a1.49 1.49 0 0 1-.71-1.2c.22-4-1.5-7.84-1.22-11.8.41-5.8-1.9-11.14-2.5-16.76a6.72 6.72 0 0 0-.28-1c-.22.26-.39.37-.42.51-.64 3.29-1.46 6.56-1.85 9.88-.55 4.62-.62 9.29-1.22 13.9a20.75 20.75 0 0 0-.15 5.22 2 2 0 0 1-1 1.53 1.91 1.91 0 0 0-1.19 1.77c-.15 1.65-1.09 2.34-2.85 2.54a1.32 1.32 0 0 1-1.35-2.11 17.69 17.69 0 0 0 2.29-8 2.1 2.1 0 0 0-.06-.94c-1.61-3.75-.45-7.6-.45-11.4 0-1.44-.12-2.88-.25-4.31-.31-3.25-.76-6.49-1-9.75-.25-3.8-.26-7.61-.47-11.41-.09-1.63-.43-3.24-.72-5.23-.45.53-.66.67-.72.85-.91 2.71-1.69 5.45-1.14 8.37.24 1.29.56 2.57.76 3.86.24 1.56-.21 2.38-1.39 2.78a2.44 2.44 0 0 1-2.43-1.8 60.89 60.89 0 0 1-1.17-7.58c-.2-2.47-.1-5-.08-7.45 0-1 .15-2 .26-3.06.2-1.78.37-3.57.67-5.34.47-2.75 1.64-5.06 4.27-6.43a2.72 2.72 0 0 0 1.34-1.46 5.19 5.19 0 0 1 2.24-3.09c1-.68.8-2.47.14-4.1a13.07 13.07 0 0 1-1-4.16 3.32 3.32 0 0 1 1.09-2.32 6.33 6.33 0 0 1 5.41-1.09c1.62.3 1.78 2.09 2 3.41a6 6 0 0 0 1 3.28 1 1 0 0 1 .11.73c-.1.74-.25 1.48-.38 2.22a2.84 2.84 0 0 0 .34.16Zm28.13-12.69c.05-.16.4-.71.26-.92a2 2 0 0 0-1.21-.62 10.31 10.31 0 0 0-1.74 0V152a11.35 11.35 0 0 0 2 0 1.64 1.64 0 0 0 1.13-.74c.15-.26-.22-.79-.44-1.43ZM156 202.82a3.83 3.83 0 0 0-.29.7c-.81 4.18-1.74 8.34-2.36 12.55-.45 3-.48 6.13-.7 9.2a5.38 5.38 0 0 1-.17 1.62 11.66 11.66 0 0 0-.51 4.94 1.92 1.92 0 0 1-.8 1.54 2.09 2.09 0 0 0-1.45 1.86 3.38 3.38 0 0 1-.81 1.4 2.48 2.48 0 0 1-3 .56c-1-.64-.74-1.58-.47-2.43a4.74 4.74 0 0 1 1-2c1.68-1.54 1.31-3.5 1.17-5.33A96.81 96.81 0 0 1 148 215c.05-1.07-.21-2.15-.22-3.22 0-3 0-6.07.12-9.1s.59-6.23.93-9.34c.09-.81.35-1.6.43-2.41 0-.29-.24-.61-.37-.92a2.57 2.57 0 0 0-.76.44c-.75.89-1.45 1.83-2.18 2.75a17.08 17.08 0 0 1-1.82-2.5 3.44 3.44 0 0 1-.33-2.29c2-6.21 2.2-12.68 3-19.07a4 4 0 0 0-.84-2.74c-2.56-4.11-6.9-5.91-10.65-8.48-.52-.36-1.09-.66-1.6-1-.32-.24-.82-.64-.78-.88.44-2.29-1.6-2.32-2.76-3.17-.47 1.27-1.3 1.5-3.16 1.15-1.3-.25-1.2-1.09-1.14-2 .12-1.95.24-3.9.26-5.85 0-.84.37-1.22 1.11-1.17a8.81 8.81 0 0 1 2.92.48c.4.18.44 1.18.7 2a3 3 0 0 1 2.75 2.63 1.06 1.06 0 0 0 .45.64q4.23 2.52 8.48 5c1.39.82 2.83 1.58 4.17 2.48s2.52 1.91 3.79 2.85c.23.17.6.4.81.32 1.6-.6 3-.61 4 1.23l.3-.3c-.06-.87-.12-1.73-.15-2.28.36-1.55.63-2.88 1-4.19.7-2.58 1-4.17 4.33-3.19a6.39 6.39 0 0 0 1.08.07 3.28 3.28 0 0 1 3.1 3.35 17.13 17.13 0 0 1-.62 3.45 34.6 34.6 0 0 0-.92 3.34c-.06.47.48 1.05.81 1.53.63.9 1.31 1.76 2 2.65.34.47.56 1.11 1 1.42 3 2 4 4.9 4.13 8.4 0 1.49.9 3 1.07 4.46.25 2.24.09 4.52.34 6.76a31.61 31.61 0 0 1-.86 9.51 5.36 5.36 0 0 1-1.32 2.19 1.64 1.64 0 0 1-1.51.39c-.55-.36-1.61-.46-1.34-1.66.33-1.45.4-3 .73-4.42.68-3-.15-5.75-.89-8.55-.07-.27-.37-.47-.87-1.08-.28 2-.58 3.69-.73 5.35q-.5 5.28-.87 10.57c-.21 3-.15 6.1-.57 9.1a40.28 40.28 0 0 0 0 9.44 25.07 25.07 0 0 1-.13 6.06c-.18 1.15-.9 2.22-.53 3.48.54 1.81 1.06 3.62 1.61 5.42a3.8 3.8 0 0 0 .31.6c.77 1.64.65 2.69-.36 3.08a3.08 3.08 0 0 1-3.45-1.88 2.94 2.94 0 0 0-1.8-2.6c-.32-.13-.57-.93-.52-1.37.23-1.77.51-3.51-.47-5.16a1.34 1.34 0 0 1-.08-.67 80.36 80.36 0 0 0-.17-8.51c-.51-4.31-1.39-8.57-2.13-12.85-.11-.64-.3-1.27-.45-1.91a1.5 1.5 0 0 0-.38-.01Zm-27-53.49.32-.23c-.2-.26-.37-.7-.61-.74-.83-.15-1.85-.41-2.22.67s.53 1.3 1.27 1.58c.08 0 .21 0 .24.11.16.27.3.55.45.82-.33.09-.7.32-1 .23s-.59-.51-.89-.77h-.27c0 .34.08.67.16 1.39 1.07-.38 2.4-.46 2.77-1.09.64-1.1-.67-1.36-1.45-1.76-.21-.11-.3-.47-.44-.72.31-.09.67-.31.93-.22s.52.48.74.73Z"/><path class="a" d="M133.13 237.61c.13-.21.17-.38.26-.42.82-.35 1.69-.54 1.77-1.75a3.46 3.46 0 0 0-1.25-3.28 16.34 16.34 0 0 1-4.77-5.13c-.13-.22-.67-.28-1-.27-1.94.1-3.87.31-5.81.34-.8 0-1 .26-1.08 1-.21 1.84-.48 3.68-.79 5.51s-.36 1.91-2.25 1.74c-.34 0-.69-.08-1.26-.15 3.07-2.66 1.68-5.87 2.09-8.83l-.89-.16c-.17.84-.28 1.69-.52 2.51-.58 2-1.18 4.06-1.86 6.07a2 2 0 0 1-2.53.56c-.1-.1.14-.82.25-.83 1.32-.11 1.47-1.08 1.53-2 .23-3.48.64-7-.57-10.39a12.17 12.17 0 0 1-.25-3.49 37.28 37.28 0 0 0-.21-5 18.88 18.88 0 0 0-1.51-4.16c-.29-.65-1-1.14-1.19-1.8a6.16 6.16 0 0 1 .26-2.13l1.43.25a8.59 8.59 0 0 0 2.42.35c1.87-.27 4.4 1.84 4.28 3.73-.24 3.76.55 5 4 6.49a19.78 19.78 0 0 0 8.62 1.63 7.32 7.32 0 0 0 6.19-4.06c.63-1.15 1.19-2.35 1.91-3.43.23-.35.88-.43 1.34-.63a3.94 3.94 0 0 1 0 1.49c-1.24 3.09-2.59 6.11-5.68 7.9a1.29 1.29 0 0 0-.21 1.2c.85 2.18 1.79 4.33 2.69 6.49.21.5.27 1.15.63 1.49 1.79 1.67 2.27 4 3.11 6.09a22.23 22.23 0 0 1 .65 2.52l-2.92.18a3.23 3.23 0 0 0 0-4.18 35.79 35.79 0 0 0-4.57-3.89l-.41.38a5.84 5.84 0 0 0 .82 1.21 3.23 3.23 0 0 1 1.07 3.29c-.13.67-.19 1.35-.33 2-.4 2.17-1.26 2.57-3.46 1.56ZM23.09 71.39h10.38v3.2c-1-.93-1.74-2-2.74-2.4s-2.3-.19-3.58-.25v5.24c2.07.75 3.24-.31 4-2.28l.26.31v5.06l-.21.17c-.43-.67-.72-1.59-1.34-1.94a8.31 8.31 0 0 0-2.76-.5c0 1.74-.06 3.28 0 4.8a1.48 1.48 0 0 0 .92 1c2.52.77 4.27 0 5.57-2.4a6.92 6.92 0 0 1 .52-.69l.4.08c-.06 1.26-.12 2.51-.18 3.84H22.78c.4-.35.59-.65.78-.65 1.26 0 1.42-.83 1.4-1.86v-7c0-1.5.49-3.27-2.22-3.32.11-.1.26-.25.35-.41ZM206.05 80.36c0 3.18-1.75 5.16-4.64 5.18s-4.85-2-4.82-5.16 1.83-5 4.67-5.07 4.74 1.93 4.79 5.05Zm-7.61-.09a15.71 15.71 0 0 0 .89 3.29 2.69 2.69 0 0 0 1.87 1.28 2.56 2.56 0 0 0 2-1 6.58 6.58 0 0 0 .16-6.51 2.72 2.72 0 0 0-2-1.23 2.83 2.83 0 0 0-2 1.23 11.38 11.38 0 0 0-.92 2.94ZM210.15 83.62h6.36c0 .56.05 1 .07 1.65h-8.72c.42-.8.57-1.52 1-1.87a34 34 0 0 1 3.44-2.19A2.87 2.87 0 0 0 214 78a2.46 2.46 0 0 0-1.14-1.63 3.93 3.93 0 0 0-2.3.21c-.22.07-.21.84-.34 1.28a3 3 0 0 1-.49 1.25 1.1 1.1 0 0 1-1.06-.08 1.88 1.88 0 0 1-.25-1.46 3.9 3.9 0 0 1 1.5-1.66 4.88 4.88 0 0 1 5.05.27 2.83 2.83 0 0 1 .14 4.48 13.15 13.15 0 0 1-2 1.17c-1 .53-2 1-3 1.52a3 3 0 0 1 .04.27ZM226.88 83.56v1.7h-8.67c.43-.8.59-1.53 1-1.88 1.07-.82 2.28-1.47 3.44-2.19a3 3 0 0 0 1.67-3.4 2.14 2.14 0 0 0-3.45-1.28c-.28.25-.21.87-.34 1.31a2.89 2.89 0 0 1-.5 1.24A1.08 1.08 0 0 1 219 79a1.67 1.67 0 0 1-.29-1.34 3.74 3.74 0 0 1 1.21-1.57 5.09 5.09 0 0 1 5.52.15 2.87 2.87 0 0 1 0 4.41 13.15 13.15 0 0 1-2 1.17 18.25 18.25 0 0 0-3 1.79ZM188.59 83.6h6.35c0 .56.06 1 .09 1.58h-8.8a7.22 7.22 0 0 1 1.18-1.85 32.82 32.82 0 0 1 3.33-2.11 2.88 2.88 0 0 0 1.68-3.22 2.46 2.46 0 0 0-1.12-1.64 3.92 3.92 0 0 0-2.3.19c-.23.07-.23.83-.36 1.27a3.15 3.15 0 0 1-.47 1.26 1.1 1.1 0 0 1-1.06-.06 1.88 1.88 0 0 1-.28-1.45 4 4 0 0 1 1.49-1.67 4.88 4.88 0 0 1 5.05.24 2.81 2.81 0 0 1 .18 4.47 16 16 0 0 1-2.35 1.36c-.89.48-1.8.92-2.71 1.38.04.07.07.16.1.25ZM42.15 75.35v2.7l-.28.11a8.13 8.13 0 0 0-.52-.78 5.69 5.69 0 0 0-1.18-1.26c-1-.58-2.34-.22-2.59.62-.35 1.15.41 1.64 1.33 2s1.61.6 2.39 1a2.44 2.44 0 0 1 1.45 2.41 2.24 2.24 0 0 1-1.58 2.31 12.67 12.67 0 0 1-3.15.3 14.58 14.58 0 0 1-2.14-.3v-2.91l.3-.13c.21.34.4.69.62 1a3 3 0 0 0 2.57 1.74c.9 0 1.8-.25 1.81-1.21a2.74 2.74 0 0 0-1.08-1.76 8.13 8.13 0 0 0-2-.81c-1.69-.71-2.29-1.65-2-3.1a2.85 2.85 0 0 1 3.17-2.17c.9.05 1.81.15 2.88.24ZM45.61 76.62l-1.71-.75 1.73-.76v-2.57h1.67c0 .9.08 1.78.13 2.87h2c.21 0 .4.23.6.36-.2.17-.39.45-.61.48a18.05 18.05 0 0 1-2 0c0 2.15-.08 4.18.06 6.19 0 .44.79.93 1.31 1.2a3.25 3.25 0 0 0 1.33 0l.18.33a8.2 8.2 0 0 1-1.5.71c-2.18.54-3.21-.25-3.23-2.47.02-1.85.04-3.79.04-5.59ZM54.43 83.94c-.51.32-1 .91-1.52.87s-1.2-.82-1.14-1.14A1.83 1.83 0 0 1 53 82.42c.44-.06 1 .6 1.47.94-.03.19-.04.39-.04.58Z"/><path d="m90.28 96.26 43.79-28.8.26.39-43.8 28.8ZM46.24 178.88a11.54 11.54 0 0 1-1.67-.37q-8.41-3-16.82-6.11c-3.86-1.41-7.77-2.7-11.56-4.28a54.09 54.09 0 0 1-6.11-3.43c-.16-.09-.26-.29-.25-.63.89.47 1.82.86 2.65 1.41 4.35 2.85 9.35 4.13 14.13 5.94s9.5 3.56 14.26 5.3c1.8.66 3.63 1.22 5.45 1.82-.03.12-.06.24-.08.35ZM196.59 30.91l-39.34 27.18-.27-.38 39.33-27.18ZM234.68 165.66c-7.44 7.36-16.65 11.37-26.57 14l-.22-.43a7.47 7.47 0 0 1 1.07-.43 56.57 56.57 0 0 0 22.23-10.88c1.09-.89 2.14-1.84 3.21-2.76ZM197.09 136.41l26.44 21.13-.29.36-26.47-21.14c.11-.11.23-.23.32-.35ZM116.61 75.31 93.26 59.52l.28-.42 23.38 15.66ZM72.53 141.47l-20 23.94-.36-.3 20-23.94ZM142 92.37l-11.83-8.17.31-.45L142.36 92ZM219 24.53l-4.76-2.65.2-.38 4.76 2.65Z"/></svg>