<svg version="1.1" id="Layer_1" xmlns="http://www.w3.org/2000/svg" x="0" y="0" viewBox="0 0 384.8 361.7" style="enable-background:new 0 0 384.8 361.7" xml:space="preserve"><style>.st0{fill:#070605}.st1{fill:#fbddb0}.st2{fill:#e3ab7f}.st3{fill:#fdfdfd}.st4{fill:#c68f71}.st6{fill:none}.st7{font-family:&apos;Impact&apos;}.st8{font-size:43px}</style><path class="st0" d="M385.2 14.7C383.7-.4 364.7-.9 356.5-.3c-1.1.9-2.6.3-3.8.4-46.2 2.8-92.1 9.1-138.1 14.4-32.9 3.8-65.9 7.2-98.7 11.4-15.3 2-30.4 5.6-45.6 8.4-6 1.1-12.1-.3-18.2.3-7.3.7-13.6 4.1-20.6 5.6-1.6.3-1.8 1.7-2.3 3-5.3 13-6.9 26.8-8.1 40.7-.1 1.2 1 1.1 1.8 1 .3-4.9 3.7-8.8 4.6-13.5.2-1 .9-1.8 1.1-2.8 1.4-10.7 8.1-16.2 18.4-18-.9 6.5-3.8 12.6-6.2 18.9-2.9 7.4-4.6 14.8-4.1 22.9.9 15.2-1.2 30.3-2.8 45.4-.3 3-2 5.3-3.1 7.8-3.4 7.5-7.1 15-10.7 22.5-.5-.3-.9-.4-1-.6-.9-2.5.9-6.6-2.2-7.2-2.1-.4-4.8 2.4-8.6 4.5 3.8-12.9 5.8-25 8.5-37-.2-1.8.8-3.6-.6-6.2-3.7 10.5-8.7 19.8-11.5 30.1-1.4 6-1.2 12.7-4.7 18.3v23c2.4.3 2.6-1.8 3-3.2 1.7-5.4 5.9-9 9.5-14.2l8.9 30.5c.5-.6 1-.9 1.1-1.2 1.4-17 8.4-32.5 14-48.2 6.7-18.8 9.3-38 9-57.9-.1-5.2 0-10.3.5-15.5 2.7 3.2 2.2 7.1 2.7 10.7 4.6 32.3 9.7 64.6 13.2 97.1 2.7 24.7 3.6 49.5 5.1 74.3 2 32.1 3.5 64.3 6.1 96.3h11.5c-.8-8.4-.9-16.9-1.6-25.3-3.6-48.7-7.2-97.4-10.8-146-.3-4.5-1.2-8.9-1.9-13.3-2.3-12-3.2-24.4-6.2-36.3-.4-1.6.3-2.1 1.9-1.5l12 4.8 1.3.6 5.8 1.6.8-3.1c-7.2-3.7-8.4-10.2-8.6-17.4-.3-7.6-.6-15.2-2.2-22.7-.2-.8-.3-1.9.8-2 1.5-.3 1.1 1.1 1.4 2 2.4 8.5 5 16.9 7.4 25.4.5 1.6.5 3.6 2.6 3.6s1.7-2.1 2.1-3.4c1-3.3 1.8-6.6 2.7-10h2v23.7c0 .2-.8.4-1.2.6-2.9 3.2-2.2 5.1 1.9 6.2 2.9.7 5.7 1.7 8.6 2.4.9.2 2 1 2.7 0s1-2.4 0-3.2c-2.5-2-2-4.8-2.1-7.3-.8-16.3-1.5-32.5-2.5-48.8-.2-3.1-.1-5.5 3.7-6.1 1.3-.2 2.8-.8 2.3-2.6-.4-1.5-1.8-1.2-2.9-1.3-4.1-.3-8.4-.1-12.1-2.3-1.1.3-2.5-1-3.3.2-1 1.5.4 2.5 1.3 3.3 1.9 1.8 1.7 3.6 1 5.8-2.2 7.4-4.2 15-7.2 22.6-2.3-7.7-4.5-15.3-6.7-23-.6-1.9-1-3.8-1.4-5.8-.3-1.5-2.1-3.7 1.7-3.3 1.3.2 1.2-1.3 1.4-2.2.3-1.5-.7-2.1-1.9-2.3-5.2-.9-10.4-2.3-15.4-4-2.5-.9-2.3.6-1.9 2.3.6 2.8 3.1 3.8 5.2 5 2.1 1 3.5 3.1 3.4 5.5.3 8 1.3 15.9.9 23.9.1.1.2.3.1.4 0 0 0 .1-.1.1.6 1.1.8 2.3.4 3.5.6 6.8.9 13.5 1.7 20.3.5 3.7-2.6 2.8-4.1 3.5-1.3.6-3.4 1-3.8-1.6-2.1-14-4.3-28-6.4-42.1-1.6-9.6-3.9-19.2-4.5-28.9-.3-6.3 3.3-12.3 6.2-18 5.6-2.9 12-3.6 18.1-2.1C111.3 52 146 58.7 181 62.9c21.8 2.7 43.6 5.1 65 6.1-6.9 23.6-3.4 47.7-4.4 71.4-1.6 39-2 78-2.5 117.1-.3 22.9 3.1 45.7 4.6 68.6.7 11.6 1.7 23.2 2.6 34.8h10.4l-1.5-15.9c-.4-3.4.6-5.7 3.4-7.5 2-1.3 3.8-2.7 5.4-4.4 3.3-3.5 6.5-4.8 10.1-.4.7.9 2 1.7 3 .7 5.3-5.4 12-7.1 19.2-7.4.2 0 .4-.1.6-.2v-.1c.1 0 .1 0 0 .1V361h9.1s3.2-68 4.3-102.6c.5-15.2-1.3-30.6-2.2-45.9-2-36.4-4-72.8-6.1-109.2-.1-2.3.2-4.7.9-6.9-.1-4.9 1-9.2 4.6-13 4.4-4.5 8.3-9.3 12.4-14 .3-.6.6-1.1 1.2-1.2.4-.4.7-.8 1.1-1.2l-.2.2 1-1.2-.1-.2c13.5-14.7 23.9-31.8 35-48.3 3.5-5.2 9.2-6.1 14.1-9.2 1.2 5.8 3.4 10.8 3.6 16.3-.1 5.4-.8 10.7-2 16-1.9 16.7-3.7 33.3-5.6 50-.1 1.5-.7 2.9-1.7 4 1 8.9-1.3 17.5-2.2 26.2-1.6 15.4-3.6 30.7-5.5 46.1-.6 5.1-2.5 9.6-7.1 12.5-4.9 5-10.4 9.2-16.6 12.5-2.8 1.6-6 3-6.5 6.9-.5 3.5-1.2 6.9-5.9 7.2-1.3.1-1.9 1.2-1.7 2.5v9.4c5.6-5.4 12.2-8.8 15.3-16.3 2-4.8 8-4.5 12.3-6.4l6.7-9.7 1 .2c-.7 5.9-1.3 11.8-2.3 17.7-.3 2-2.3 3.1-4.2 4-4.2 5-10.1 7.4-15.3 11-1.5 1-3.3 1.8-3.5 3.9-.5 4.2-.9 8.3-6.6 8.8-1.8.1-1.4 2-1.4 3.3v8.3c5.4-5.1 12.5-7.9 15-15.4 1.9-5.5 7.6-4.5 11.4-6.6l3.1-2.1c.8 11.3-.6 22.4-1.4 33.5-.3 7.8-.7 15.6-.9 23.4-.1 1.7-.9 3.2-2.2 4.2-6.4 6.3-13.7 11.7-21.6 16-1.8 1-3.2 2.1-3.5 4.4-.5 3.8-1 7.7-6.2 8-1.5.1-1.5 1.5-1.6 2.7-.1 2.8-.2 5.5-.5 9.9 5.8-6 12.8-8.6 15.2-16 .5-1.5 1-3.2 2.9-3.8 7.2-2 13.8-4.8 16.2-14.2 2.2 4.4 1.2 7.5 1.5 10.5.1 1.3-.2 2.7.1 4 2.9 13.4-4.8 21.1-14.7 27.7-2.4 1.8-4.9 3.4-7.6 4.8-4.4 2-6.8 4.9-7.2 9.8-.1 1-.1 2.8-1.4 3-8.4 1.5-5 7.9-5.5 12.9 5.2-5.2 12.9-7.7 15-15.8.7-2.7 3.1-3.2 5.3-4 4.5-1.6 9.2-3 11.4-8.1.8-1.8 1.9-4.5 3.9-3.9 2.5.8.8 3.7 1.1 5.6.6 7.2 1.4 14.5.1 21.7-.2 2.4-.3 4.7-.5 7H362c-.9-15.8-1.9-31.6-2-47.4-.1-16.6.9-33.3 2.1-49.9 3.9-51.8 9.2-103.5 14.1-155.2 2.2-23.4 4.2-46.8 6.5-70.2.2-2.6 2.2-7.8 2.2-7.8v-8.5c-1.4-1.3-.8-2.7 0-4l.3-4.2zm-94 301.6c-2.6-1.4-2.5-6.5-5.7-5.7-2.2.5-3.8 3.9-5.4 6.3-2.7 4.2-5.6 6.1-10.2 2.6-2.6-2-4.8-.9-6.9 1.3-2.6 2.7-5.4 5.2-8.3 8-3.7-9.6-.9-16.5 7.9-21.1 1.9-1 2.9.2 3.9 1.2 3.1 3 6 3 9 0 3.5-3.6 8.6-5.4 13.6-4.8 3.7.4 5.9-2.8 9.2-4 2.2 7.8-1.7 12.3-7.1 16.2zm6.6-28.6c-1.9 1-3.7 2.2-5.4 3.6-3.2 2.6-5.8 3.5-7.8-1.4-1.3-3.2-3.1-2.9-5-.2-.8 1.2-1.8 2.4-2.7 3.6-5 6.5-5.1 6.8-12.7 3.5-5-2.2-6.1 3.1-10.1 4.1v-16c0-1.6 1.2-2.3 2.2-3.1 1.7-1.3 3.8-2.3 5.2-3.9 3.3-3.6 6.4-4.3 10.1-.7 1.8 1.7 3.6 1.8 5.7 0 5-4.4 10.7-7.4 17.7-6.6 2 .2 3.2-1.5 5-1.7v15.4c0 1.4-.9 2.8-2.2 3.4zM292 259c-2-.2-2.7-2.3-3.8-3.7-1.9-2.5-3.4-2.7-5.2 0-.5.8-1.4 1.4-1.9 2.3-3.8 6-8.2 9.9-15.6 5.4-1.9-1.1-3.4-.3-4.9 1-1.9 1.5-3.5 3.5-6.5 4.6 0-4.9-.2-9.5.1-14 .2-2.6 7.4-7 10.8-6.2 5 1.1 8.6-.9 12.1-4 1.1-1 2.2-2.4 3.8-2.2 7.2 1.3 12.3-2.4 17.7-8.7.6 6.6 1 11.3 1.4 16.1 0 1.6-6.6 9.6-8 9.4zm-33.4-72.3c1.9-1.3 3.7-2.9 5.3-4.5 3-3 5.9-4.8 9.3-.6 1.6 2 3.3 1.1 5.2-.1 2.7-1.8 4.5-5.1 8.4-4.6 7-.5 7-.5 7.6 6.2.3 3.3.4 6.6.5 9.9l.1 1.8.5 5.1c.7 6.8 1.4 13.6 2 20.4.4 4.4-7.1 11.7-11.3 10.5-5.8-1.6-10.3-.8-14.1 3.9-1.2 1.5-2.7 1.9-4.3.6-4.6-3.6-8.9-3.8-12.1 1.8-2.1-1.3-1.2-3-1.2-4.3.1-12.6.4-25.3.4-38-.1-3.5.7-6.1 3.7-8.1zm-2.8-31.7c.1-2.4 3-5.1 4.6-3.3 4.8 5.3 8.4 2.6 12.4-.5.9-1 1.9-2.2 3.3-2 6.2 1.1 10.9-1.3 14.1-6.9l1.1.6c.4 6.2 1.4 12.4 1 18.5-.1 2.4-1.8 6.9-6.7 4-2.4-1.4-3.6 1.9-5.8 1.9-2.9 3.6-6.1 4.9-10.1 1.7-3-2.4-5.3-1.5-7.6 1.2-1.8 2.3-4 4.2-6.6 5.6.1-7.3-.1-14 .3-20.8zm85-128.2c-2.1 4-4.7 7.8-7.7 11.2-8.5 14.6-21.7 25-32.8 37.3-.4.5-1 .9-1.6 1.1-8.1 1.7-8.4 7.5-8.1 14.2.4 11.3-.1 22.6.2 33.9.2 4.8-1.3 7.6-5.4 10s-7.4 5.3-10.1-1.3c-.8-2-1.9-1.9-3.1-.1-1.6 2.5-3.4 4.9-5.1 7.3-.3 1.2-.9 2.2-2.3 2.2-4.1 0-9-5-8.9-9.1s-.3-8 .8-11.9c.7-15.8 1.4-31.6 2.1-47.3.3-7.4-4.7-13-12.1-13.8-41.3-4.6-82.8-7.5-123.9-13.6-11.6-1.7-23.4-2.6-35-4.8l-7.3-.6c21.2-7.3 43.4-8.1 65.4-10.6 44.1-5 88.2-10 132.3-14.9 8-.9 15.9-.4 23.9-.4h46.2c-1.9 4.2-4.4 8-7.5 11.2z"/><path class="st0" d="m321.6 68.3.1-.2h-.3v.1l.2.1zM296.6 326.3c.1 0 .2 0 0 0zM356.2.1c-2.4.2-3.9.4-3.9.4 1.2-.1 2.8.5 3.9-.4z"/><path class="st1" d="M133.3 319.5c1.6 4.5 2.5 7.8 1.1 11.8-3.4 10-6.5 20-9.8 30.3h5.9c6.5-7.1 7.8-17.3 11.8-25.9 4.3 5.5 5.4 10.7 1.9 17-1.5 2.9-2.9 5.8-4.1 8.8h18.6c-1.5-3.1-3-6.3-4.5-9.4-9.2-18.3-18.2-36.6-27.2-55-1.2-2.5-3.3-3.6-5.5-4.7-5.6-2.8-11.2-5.5-16.1-9.8-4.2-3.7-6.6-8.1-9.3-12.6.3 16.6.4 33.2 1.1 49.8.6 13.9 1.1 27.8 1.4 41.8h21.3c4.3-13.6 8.7-27.5 13.4-42.1z"/><path class="st2" d="M351 354.7c.4-7.2-2.6-14.5-.1-21.7-.2-2 1.4-4.9-1.1-5.6-2-.6-3.1 2.1-3.9 3.9-2.2 5.1-6.8 6.5-11.4 8.1-2.2.8-4.6 1.3-5.3 4-2.1 8.1-9.8 10.6-15 15.8.4-5-2.9-11.4 5.5-12.9 1.3-.2 1.3-1.9 1.4-3 .4-4.8 2.9-7.8 7.2-9.8 2.7-1.4 5.2-3 7.6-4.8 9.9-6.6 17.6-14.3 14.7-27.7-.3-1.3 0-2.7-.1-4-.3-3 .6-6.1-1.5-10.5-2.4 9.4-9.1 12.2-16.2 14.2-2 .5-2.4 2.3-2.9 3.8-2.4 7.4-9.4 10.1-15.2 16 .2-4.3.3-7.1.5-9.9.1-1.2 0-2.6 1.6-2.7 5.2-.3 5.8-4.2 6.2-8 .3-2.4 1.7-3.5 3.5-4.4 7.9-4.3 15.2-9.7 21.6-16 1.3-1 2.1-2.6 2.2-4.2l.9-23.4c-.6-10.5-1.2-20.9-1.8-31.4-3.9 2.1-9.5 1.1-11.4 6.6-2.5 7.5-9.6 10.3-15 15.4v-8.3c0-1.3-.4-3.1 1.4-3.3 5.7-.4 6.1-4.6 6.6-8.8.3-2.1 2.1-2.9 3.5-3.9 5.2-3.6 11.1-6 15.3-11-2.3-3.9-.5-8.2-1.2-12.2-4.3 1.8-10.3 1.5-12.3 6.4-3.1 7.4-9.6 10.9-15.4 16.3v-9.4c0-1.3.5-2.5 1.9-2.5 4.7-.2 5.4-3.7 5.9-7.2.5-4 3.6-5.3 6.5-6.9 6.1-3.3 11.7-7.5 16.6-12.5 2.3-13.8 4.7-27.7 7-41.6s4.7-27.7 7-41.5c.2-.6.5-1.2.8-1.7 1-1.1 1.6-2.5 1.7-4 1.9-16.7 3.7-33.3 5.6-50-4.1-.8-6.4 1.1-9 4.3-14.1 17.6-26.4 36.7-43 52.2-6.8 6.3-6.6 6.6-14.8 1.3-1.3-.7-2.6-1.4-4-2-.7 2.2-1 4.6-.9 6.9 2.1 36.4 4.1 72.8 6.1 109.2.8 15.3 2.7 30.6 2.2 45.9-1.1 34.5-2.7 69.1-4.3 103.6h44.3c.1-2.4.3-4.8.5-7.1zm-27.4-220.3c2.6-.2 3.2-2 3.4-4.1.5-4.4 3-7.1 6.7-9.2 4.1-2.4 8.1-5.1 12-8 7.5-5.3 11.7-12.8 15.1-21.5 4.6 6.5 1 12.5.6 18.5-6.9 2.8-9.7 10-15.1 14.3-.8.6-1.8 1-2.8 1.1-5.2 1.1-8.4 4.1-10.5 9.2-2.3 5.5-8.6 7.3-13.2 12.6 0-3.6.1-5.7 0-7.9-.1-2.7.5-4.8 3.8-5z"/><path class="st2" d="M333.1 38.5c-8.5 14.6-21.7 25-32.8 37.3-.4.5-1 .9-1.6 1.1-8.1 1.7-8.4 7.5-8.1 14.2.4 11.3-.1 22.6.2 33.9.2 4.8-1.3 7.6-5.4 10s-7.4 5.3-10.1-1.3c-.8-2-1.9-1.9-3.1-.1-1.6 2.5-3.4 4.9-5.1 7.3-3.2-6.4-5.5-13.3-10.4-18.7.7-15.8 1.4-31.6 2.1-47.3.3-7.4-4.7-13-12.1-13.8-41.3-4.6-82.8-7.5-123.9-13.6-11.6-1.7-23.4-2.6-35-4.8.7-1.2 1.8-1.3 3-1.3l50.1-3c14.7-.8 29.5-1 44.2-2.3 6.8-.6 13.6-.6 20.3-1.3 11.5-1.3 23.1-2 34.6-2.1 16.7 0 33.5 1 50.2 1.6 8 .3 16 .2 23.8 1.2 6.4.8 12.9.8 19.1 3z"/><path class="st3" d="M97.1 320c-.7-16.6-.8-33.2-1.1-49.8-2.2-7.6-7.8-14-8.6-22.4 2.3 0 2 1.9 2.9 2.6.6-.8.6-1.9.2-2.8-5.6-18-9.9-36.4-15-54.5-1.5-5.3-1.6-11.1-5.2-15.7.6 4.4 1.5 8.9 1.8 13.3 3.7 48.6 7.3 97.2 10.8 145.9.6 8.4.8 16.9 1.6 25.3h13.9c-.2-14.1-.7-28-1.3-41.9z"/><path class="st4" d="M296.6 326.3c.1 0 .2 0 0 0zM296.6 326.4c-.2.1-.4.2-.6.2-7.2.4-13.9 2-19.2 7.5-1.1 1.1-2.3.2-3-.7-3.6-4.4-6.8-3.1-10.1.4-1.6 1.7-3.4 3.1-5.4 4.4-2.8 1.9-3.8 4.1-3.4 7.5.6 5.3 1.1 10.6 1.5 15.9h40.3c-.1-11.7-.1-23.5-.1-35.2zM295 193.3l.1 1.8c-1.6 1.9-2.3 3.7.5 5.1.7 6.8 1.4 13.6 2 20.4.4 4.4-7.1 11.7-11.3 10.5-5.8-1.6-10.3-.8-14.1 3.9-1.2 1.5-2.7 1.9-4.3.6-4.6-3.6-8.9-3.8-12.1 1.8-2.1-1.3-1.2-3-1.2-4.3.1-12.6.4-25.3.4-38 0-3.5.8-6 3.7-8 1.9-1.3 3.7-2.9 5.3-4.5 3-3 5.9-4.8 9.3-.6 1.6 2 3.3 1.1 5.2-.1 2.7-1.8 4.5-5.1 8.4-4.6 1.9 5.6 4.7 11 8.1 16z"/><path class="st1" d="M333.1 38.5c-6.2-2.1-12.7-2.2-19-3-7.9-1-15.9-.9-23.8-1.2-16.7-.6-33.5-1.6-50.2-1.6-11.6.1-23.2.8-34.7 2.1-6.8.7-13.6.6-20.3 1.3-14.7 1.3-29.4 1.5-44.2 2.3-16.7.9-33.4 2-50.1 3-1.2.1-2.3.1-3 1.3l-7.3-.6c21.2-7.3 43.4-8.1 65.4-10.6 1.6 1.5 3.5.8 5.2.9 7.3.2 14.5-1.1 21.9-1.2 11.1-.2 22.2-1.2 33.2-2 18-1.2 36-3.1 54-3.7 26.9-.9 53.8.6 80.6 1.9-2.1 3.9-4.7 7.7-7.7 11.1zM374 40.4c-4.1-.8-6.4 1.1-9 4.3-14.1 17.6-26.4 36.7-43 52.2-6.8 6.3-6.6 6.6-14.8 1.3-1.3-.7-2.6-1.4-4-2-.1-4.9 1-9.2 4.6-13 4.4-4.5 8.3-9.3 12.4-14l1.5-1.2-.1.2-.2-.2c.6 0 1.1-.5 1.1-1.1v-.2l-.2.2c.8 0 1.2-.3 1-1.2l-.1-.2c2 1.3 3-.5 4.2-1.5 7.4-6.1 14.9-12.1 22.3-18.2 7-5.7 14.9-10.6 15.5-21.1.1-1.8 1.5-2.9 3.6-2.4 2.4.6 4.8 1.2 7.2 1.9-.2 5.5-.8 10.9-2 16.2z"/><path class="st3" d="M340.8 27.3C314 26 287 24.5 260.2 25.4c-18 .6-36 2.5-54 3.7-11.1.8-22.2 1.8-33.2 2-7.3.1-14.6 1.4-21.9 1.2-1.8 0-3.7.6-5.2-.9 44.1-5 88.2-9.9 132.3-14.9 8-.9 15.9-.4 23.9-.4h46.2c-1.9 4.2-4.4 7.9-7.5 11.2z"/><path d="m17 128 3.8 16c8-22.5 14.5-44.3 8.3-67.7-2.8 2-3.1 6.6-6.2 8.8.3-4.9 3.7-8.8 4.6-13.5.2-1 .9-1.8 1.1-2.8 1.4-10.6 8-16.1 18.4-17.9-.9 6.5-3.8 12.6-6.2 18.8-2.9 7.4-4.6 14.8-4.1 22.8.9 15.2-1.2 30.2-2.8 45.3-.3 3-2 5.3-3.1 7.8-3.4 7.5-7.1 15-10.7 22.5-.5-.3-.9-.4-1-.6-.9-2.5.9-6.6-2.1-7.2-2.1-.4-4.8 2.4-8.6 4.5 3.8-12.7 5.8-24.8 8.6-36.8z" style="fill:#f54c4c"/><path class="st2" d="M58.7 45.2c.4.3.9.6 1.1 1 4.1 12 14.4 18.1 23.5 25.5 3.1 2.5 7.2 4.2 8.7 8.5-1.1.3-2.5-1-3.3.2-1 1.5.4 2.5 1.3 3.3 1.8 1.8 1.7 3.6 1 5.8-2.2 7.5-4.2 15-7.2 22.7-2.2-7.7-4.5-15.4-6.7-23.1-.6-1.9-1-3.9-1.4-5.8-.3-1.5-2.1-3.7 1.7-3.3 1.3.2 1.2-1.3 1.4-2.2.2-1.5-.7-2.1-1.9-2.3-5.2-.9-10.4-2.3-15.4-4-2.5-.9-2.3.7-1.9 2.3.6 2.8 3.1 3.8 5.2 5 2.1 1 3.5 3.1 3.4 5.5.4 7.9 1.4 15.9 1.1 23.9-1.8-1.1-1.7-3.2-2-4.9-1.2-5.8-5.4-8.6-10.1-11.1-1.6-9.7-3.8-19.3-4.5-29-.5-6.2 3.2-12.2 6-18z"/><path class="st4" d="M253.8 300.5v-16c0-1.6 1.1-2.3 2.2-3.1 1.7-1.3 3.7-2.3 5.2-3.9 3.2-3.6 6.4-4.3 10-.7 1.8 1.7 3.6 1.8 5.6 0 5-4.4 10.6-7.4 17.6-6.6 2 .2 3.2-1.5 5-1.7v15.4c0 1.5-.9 2.9-2.3 3.5-1.9 1-3.7 2.2-5.4 3.6-3.2 2.6-5.8 3.5-7.7-1.4-1.3-3.2-3.1-2.9-4.9-.2-.8 1.2-1.8 2.4-2.7 3.6-5 6.5-5.1 6.8-12.6 3.5-5-2.3-5.9 3-10 4zM298.6 233.5c.6 6.6 1 11.3 1.4 16.1.1 1.7-6.5 9.6-8 9.4-2-.2-2.7-2.3-3.8-3.7-1.9-2.5-3.4-2.7-5.2 0-.5.8-1.4 1.4-1.9 2.3-3.8 6-8.2 9.9-15.6 5.4-1.9-1.1-3.4-.3-4.9 1-1.9 1.5-3.5 3.5-6.5 4.6 0-4.9-.2-9.5.1-14 .2-2.6 7.4-7 10.8-6.2 5 1.1 8.6-.9 12.1-4 1.1-1 2.2-2.4 3.8-2.2 7.2 1.3 12.3-2.4 17.7-8.7z"/><path class="st3" d="M358.2 17.2c-11.1 16.5-21.4 33.6-34.9 48.3 2 1.3 3-.5 4.2-1.5 7.4-6.1 14.8-12.2 22.2-18.2 7-5.7 14.9-10.6 15.5-21.1.1-1.8 1.5-2.9 3.6-2.4 2.4.6 4.8 1.2 7.2 1.9-.2-5.5-2.4-10.6-3.6-16.3-5 3.2-10.7 4.1-14.2 9.3z"/><path class="st4" d="M298.3 300.2c2.2 7.7-1.8 12.2-7.1 16.1-2.6-1.4-2.5-6.5-5.7-5.7-2.2.5-3.8 3.9-5.4 6.3-2.7 4.2-5.6 6.1-10.2 2.6-2.6-2-4.8-.9-6.9 1.3-2.6 2.7-5.4 5.2-8.3 8-3.7-9.6-.9-16.5 7.9-21.1 1.9-1 2.9.2 3.9 1.2 3.1 3 6 3 9 0 3.5-3.6 8.6-5.4 13.6-4.8 3.7.4 5.9-2.7 9.2-3.9zM279.8 167.3c-2.9 3.6-6.1 4.9-10.1 1.7-3-2.4-5.3-1.5-7.6 1.2-1.8 2.3-4 4.2-6.6 5.6 0-7.2-.2-13.9.1-20.7.1-2.4 3-5.1 4.6-3.3 4.8 5.3 8.4 2.6 12.4-.5 2.4 5.3 6.4 10 7.2 16z"/><path class="st1" d="M57.1 92.3c4.7 2.5 9 5.3 10.1 11.1.3 1.6.2 3.7 2 4.9.1.1.2.3.1.4 0 0 0 .1-.1.1-.6 1.2-.4 2.6.4 3.5.6 6.8.9 13.6 1.7 20.3.5 3.8-2.6 2.8-4.1 3.5-1.3.6-3.4 1-3.8-1.6-2-14.1-4.2-28.1-6.3-42.2z"/><path class="st2" d="M92.3 143.4c-2.5-1.4-2.4-4.6-4.6-6.6-1.9 1.9-1.7 4.4-2 6.6-7.2-3.6-8.3-10.2-8.6-17.4-.3-7.6-.6-15.2-2.2-22.6-.2-.8-.3-1.9.8-2 1.5-.2 1.1 1.1 1.4 2 2.4 8.5 5 16.9 7.4 25.4.5 1.6.5 3.6 2.6 3.6s1.7-2.1 2.1-3.4c1-3.3 1.8-6.6 2.7-10h1.7v23.8c-.1.3-.8.4-1.3.6zM279.8 167.3c-.9-6-4.8-10.7-7-16.1.9-1 1.9-2.2 3.3-2 6.2 1.1 10.9-1.3 14.1-6.9l1.1.6c.4 6.2 1.4 12.4 1 18.5-.1 2.4-1.8 6.9-6.7 4-2.4-1.4-3.6 1.9-5.8 1.9z"/><path class="st1" d="M351.8 179.2c2.3-13.8 4.7-27.7 7-41.6s4.7-27.7 7-41.5c.2-.6.5-1.2.8-1.7 1 8.9-1.3 17.5-2.2 26.2-1.6 15.4-3.6 30.7-5.5 46.1-.7 5.1-2.5 9.6-7.1 12.5z"/><path class="st4" d="M256.7 122.2c4.9 5.4 7.1 12.4 10.4 18.7-.3 1.2-.9 2.2-2.3 2.2-4.1 0-9-5-8.9-9.1s-.3-7.9.8-11.8z"/><path class="st1" d="M349.9 207.4c-2.3-3.9-.5-8.2-1.2-12.2l6.7-9.7 1 .2c-.7 5.9-1.3 11.8-2.3 17.7-.3 2-2.3 3.1-4.2 4zM351.3 252c-.6-10.5-1.2-20.9-1.8-31.4l3.1-2.1c.8 11.4-.6 22.4-1.3 33.5z"/><path class="st2" d="M295 193.3c-3.4-5-6.2-10.4-8.1-16.1 7-.5 7-.5 7.6 6.2.2 3.3.3 6.6.5 9.9zM85 146.6c0 4.9 0 9.9-1.8 15.8-1.5-6.5-4.3-11.6-4-17.5l5.8 1.7z"/><path class="st4" d="M351 354.7c.4-7.2-2.6-14.5-.1-21.7.6 7.2 1.4 14.4.1 21.7z"/><path class="st2" d="M295.6 200.2c-2.8-1.4-2.1-3.2-.5-5.1l.5 5.1zM69.7 112.3c-.9-1-1-2.4-.4-3.5.6 1 .7 2.3.4 3.5zM79.2 145l-1.2-.6 1.2.6z"/><path class="st3" d="m321.7 68-1.5 1.2c.3-.5.7-1.2 1.5-1.2z"/><path class="st3" d="M322.5 66.8c.1.6-.3 1.2-.9 1.3h-.2l1.1-1.3z"/><path class="st3" d="M323.4 65.8c.2.9-.2 1.2-1 1.2l1-1.2z"/><path class="st0" d="M217.4 354.2c-1.6-19.2-4.4-38.4-4.4-57.8.1-24.5 1.1-49 1.6-73.4 0-1.6 1.2-4.1-1.2-4.9-10.8-3.6-20.5-10.4-32.4-11-31.3-1.5-62.4-4-92.8-12.4-1.3-.4-2.7-1-4.5-.1 5.1 3 9.8 5.7 14.3 8.6 2 1.2 4.2 2 6.5 2.2 31 3.8 62.3 5.8 92.3 15.5 3.7 1.2 5.3 2.3 5.3 6.6-.4 44.8 1.2 89.5 3.9 134.1h11.9c-.1-2.4-.3-4.9-.5-7.4z"/><path class="st0" d="M132.8 285.9c-1.3-2.3-2-4.4-1.2-7 3.2-10.7 1.4-21-2.4-31.1-2.8-7.4-8.1-13.3-13.1-19.2-.3-.3-1.2-.1-2-.2 2.4 5.1 4.5 9.9 7 14.5 2.6 4.8 4 10.3 4 15.8 0 6.1-2.9 11.4-6.2 15.9-1.9 2.6-6.2-.4-9.4-.3-1.5 0-3-.5-4.4-.6-1.9 0-3.5-1.1-4.2-2.9-3.4-6.8-6.9-13.6-10.4-20.4-.9-.7-.7-2.6-2.9-2.6.8 8.4 6.4 14.8 8.6 22.4 2.7 4.5 5.1 9 9.3 12.6 4.9 4.3 10.5 7 16.1 9.8 2.2 1.1 4.3 2.2 5.5 4.7 9 18.4 18 36.8 27.2 55 1.6 3.1 3 6.2 4.5 9.4H176c-14.5-25.2-28.8-50.6-43.2-75.8z"/><path class="st0" d="M178.9 234.4c-1.9-1.6-3-1.1-4 1.2-6.9 16.6-14.1 33-20.8 49.7-1.9 4.7-4.7 7.7-9.9 10.3 3.7-9.6 7.1-18.3 10.5-27.1 3.6-9.3 7.4-18.5 10.9-27.8 1.6-4 4.1-7.6 7.3-10.6 1.2-1.4 3.1-1.9 4.8-1.3 7 1.5 7.1 1.4 7.1 8.7 0 3.8-.2 7.7.1 11.5.2 3.4-.4 6-3.4 8.1-3.3 2.4-2 6.5-2.2 9.8-.3 4.2-1.1 7.7-4.5 10.5-3.1 2.6-1.7 6.3-1.6 9.4.3 4.8-1 7.9-5.3 10.5-7 4.2-8.1 12.2-3.3 18.8 1 1.4 2 2.4.3 4.2-1.6 1.6-2.5.7-3.8-.1-3.1-1.8-6.4-3-7.5-7.3-1-3.8-2.1-6.3 3.4-5.6 1.7.2 2.1-1.4 2.5-2.6 1.2-3.5 2.4-6.9 3.6-10.4.4-1.2.6-2.9 1.9-3.3 6.7-2.1 4.8-7 3.1-11.1s-.3-6.4 3-8c2.4-1 3.7-3.5 3.2-6-.2-1.3.1-2.7-.1-4-.9-5.6.7-10.1 5.8-12.9 2.9-4.3 1.5-8.8.9-13.3.1-.8-1.3-1-2-1.3zM134.4 331.4c1.4-4 .5-7.4-1.1-11.8-4.7 14.6-9.1 28.4-13.5 42.2h4.8c3.2-10.4 6.3-20.5 9.8-30.4zM144.1 352.9c3.4-6.3 2.4-11.5-1.9-17-3.9 8.6-5.3 18.7-11.8 25.9h9.6c1.2-3.1 2.6-6.1 4.1-8.9zM106.1 263.4c-9.9-7.5-8.8-18.8-12.2-28.1 4.6 8.8 13.5 15.7 12.2 28.1zM116.1 257.4c-7.2-7.5-8.2-17.3-11.7-25.9 4.5 8.2 13.9 13.9 11.7 25.9z"/><path class="st2" d="M178.9 234.4c.7.3 2.1.5 2.1.9.6 4.5 2.1 9.1-.9 13.3-.4-4.7.9-9.6-1.2-14.2z"/><path class="st0" d="M319.9 147.4c0-3.6.1-5.7 0-7.9-.2-2.8.5-4.9 3.8-5.1 2.6-.2 3.2-2 3.4-4.1.5-4.4 3-7.1 6.7-9.2 4.1-2.4 8.1-5.1 12-8 7.5-5.3 11.7-12.8 15.1-21.5 4.6 6.5 1 12.5.6 18.5-6.9 2.8-9.7 10-15.1 14.3-.8.6-1.8 1-2.8 1.1-5.2 1.1-8.4 4.1-10.5 9.2-2.3 5.7-8.7 7.5-13.2 12.7zM384.8 19.3v4s-2.1-1.4 0-4zM384.8 31.3S382.2 56 381 61s1.9-28.2 1.9-28.2"/><path class="st6" d="M64.3 94.7c.7 2.4 3.3 4 5.7 3.8M100.1 67c5.2 1.1 10.7-.3 15.7 1.2 3.1.9 5.7 2.9 8.6 4.4"/><path class="st1" d="M243.6 327.2c-1.4-22.9-4.9-45.8-4.6-68.8.5-39.1.9-78.3 2.5-117.4 1-23.8-2.5-47.9 4.4-71.6-21.4-1-43.2-3.5-65-6.2-35-4.2-69.7-10.9-103.9-19.9-6-1.3-12.5-.6-18 2.3.4.3.9.6 1.1 1 4.1 12 14.4 18.1 23.5 25.5 3.1 2.5 7.2 4.2 8.7 8.5.6.4 1.3.7 2 .9-.1 0-.2 0-.3.1-2.1-1.2-4.5-1.9-7.2-2.1-2.4-.1-3.4.3-5-1.5-1.2-1.4-2-2.7-3.7-3.6-1.3-.6-2.8-.8-4.2-.9-3.3-2.9-8-4.2-12.5-4.4-2-.1-4.5 1.6-4.8 3.7-.7 4.4 1.1 8.3 5.7 9.6 2 .6 4.2.5 6.2.7.1.2.2.4.3.7 1 2.9 1.8 5.2 3.8 7.7 2.6 3.3 5.5 6.4 8.1 9.8 1.8 2.4 4.3 5.1 5 8.1.9 3.8-.3 8.7-.4 12.6-.1 3.8 0 7.6.1 11.4.1 3.9.2 7.9.4 11.8-.1.6-.3 1.1-.4 1.7 0 4.9 0 9.9-1.8 15.8-1.5-6.5-4.3-11.6-4-17.5l-1.2-.6-12-4.8c-1.6-.7-2.3-.2-1.9 1.5 3.1 11.9 4 24.2 6.2 36.2 3.6 4.6 3.7 10.5 5.2 15.7 5.1 18.1 9.4 36.5 15 54.5.4.9.3 2-.2 2.8 3.5 6.8 7 13.6 10.4 20.4.7 1.7 2.3 2.9 4.2 2.9 1.5 0 3 .6 4.4.6 3.2-.1 7.6 2.9 9.4.3 3.3-4.5 6.2-9.8 6.2-15.9 0-5.5-1.4-10.9-4-15.8-2.5-4.6-4.6-9.5-7-14.5.8.1 1.7-.1 2 .2 5 6 10.2 11.8 13.1 19.2 3.9 10.1 5.7 20.4 2.4 31.1-.8 2.6-.1 4.7 1.2 7 14.4 25.3 28.7 50.6 43.1 75.9h30.2c-2.7-44.7-4.3-89.4-3.9-134.1 0-4.3-1.6-5.4-5.3-6.6-30-9.7-61.3-11.7-92.3-15.5-2.3-.2-4.5-1-6.5-2.2-4.6-2.9-9.3-5.6-14.4-8.6 1.9-.9 3.2-.3 4.5.1 30.4 8.4 61.5 11 92.8 12.4 11.9.6 21.6 7.4 32.4 11 2.4.8 1.2 3.2 1.2 4.9-.5 24.5-1.5 49-1.6 73.4-.1 19.3 2.7 38.5 4.4 57.8.2 2.5.4 5 .7 7.5h27.9c-.9-11.5-1.9-23.1-2.6-34.8zm-88.7-58.3c3.6-9.3 7.4-18.5 10.9-27.8 1.6-4 4.2-7.6 7.4-10.6 1.2-1.4 3.1-1.9 4.8-1.3 7 1.5 7 1.4 7 8.7 0 3.8-.2 7.7.1 11.5.2 3.4-.4 6-3.4 8.1-3.3 2.4-2 6.5-2.2 9.8-.3 4.2-1.1 7.7-4.5 10.5-3.1 2.6-1.7 6.3-1.5 9.4.3 4.8-1 7.9-5.3 10.5-7 4.2-8.1 12.2-3.3 18.8 1 1.4 2 2.4.3 4.2-1.5 1.6-2.5.7-3.8-.1-3.1-1.8-6.3-3-7.5-7.3-1-3.8-2.1-6.3 3.4-5.6 1.7.2 2-1.4 2.5-2.7 1.2-3.5 2.4-6.9 3.6-10.4.5-1.2.6-2.9 1.9-3.3 6.7-2.2 4.8-7 3.1-11.1s-.3-6.4 3-8c2.4-1 3.7-3.5 3.2-6-.2-1.3.1-2.7-.1-4-.9-5.6.7-10.1 5.8-12.9-.4-4.7.9-9.6-1.3-14.2-1.9-1.6-3-1.1-4 1.2-6.9 16.6-14.1 33-20.8 49.7-1.9 4.7-4.7 7.7-9.9 10.3 3.9-9.9 7.2-18.6 10.6-27.4zm-38.6-11.1c-7.3-7.5-8.2-17.3-11.7-25.9 4.5 8.2 13.9 13.9 11.7 25.9zm-10 6c-9.9-7.5-8.8-18.8-12.2-28.1 4.6 8.8 13.5 15.7 12.2 28.1zM101.6 100c.1 1.4.2 2.8.2 4.2-.1.2-.1.4-.2.6-.7-1.4-1.6-2.7-2.3-4.1.9-.1 1.6-.3 2.3-.7zm-18-10.5c1.6.1 3.1 0 4.4.4-.1 1.7-.1 3.4-.1 5.1-1.3-1.9-2.8-3.7-4.3-5.5zm99 12.8.3-.9c.2.2.4.3.6.4-.3.2-.6.3-.9.5zm39 17.9c-.5-.3-1.1-.5-1.6-.7.6 0 1.2 0 1.8.1-.1.1-.2.3-.2.6z"/><path class="st2" d="M95.5 82.3c-4.6-6.3-11.9-11-18.3-15.1-2.4-1.5-4.7-.7-6.1 1-3.1-1.1-6.2-1.6-9.3-1.1-7.7 1.3-9.6 9.6-4.9 14.5-1.3 1.6-1.7 3.8-.6 5.8.5.8 1 1.7 1.4 2.5.1.2.2.5.4.7 2.2 3.6 5 7.2 6.7 11.1 1.7 3.8 1.8 8.1 2.5 12.2.9 4.9 2.4 9.7 4.3 14.4.7 2.8 1.8 5.5 2.6 8.3 2.6 8.9 3.9 18.1 5.2 27.2.7 5.1 8.1 4.4 9.5.2 1.7-.7 3.1-2.1 3.4-4.3 1.2-9.5 2.4-19 3.6-28.4 1.1-8.5 3.5-16.9 3.6-25.4 0-8.2.9-16.9-4-23.6z"/><path class="st1" d="M109.2 98.4c-.9-3.7.2-9 .7-12.7.3-2.7-2.5-5-5-5-3 0-4.7 2.3-5 5-.5 4.2-.9 8.4-.7 12.7.1 1.5.2 2.9.7 4.4.3.7 2.4 3 2.4 3.5-.6 6.4 9.4 6.4 10 0 .4-3.5-2.5-5.5-3.1-7.9zM79.7 141c-.1-1.6-.3-3.2-.5-4.8-.3-2.3-1.1-4.7-.5-7 1-4.3-3.3-6.9-6.5-6.1-.7-1.5-2.1-2.6-4.3-2.6-4.9 0-6.1 5.9-3.4 8.6-.4 1.6-.6 3.4-.9 4.8-.6 2.7-.2 6.3 2.1 8.1 1 .8 2.1 1.2 3.3 1.5.2.1.5.2.8.3v.2c.1 6.5 9.5 6.3 10 0 .1-.9.1-2-.1-3z"/><path class="st2" d="M87.3 148.6c-3-3.6-3.8-10.2-4.8-14.7-1-4.3-1.9-8.5-3.1-12.7.7-1.1 1.1-2.5 1.1-4.2-.2-5.9-8.7-6.4-9.9-1.4-1.5 1.2-2.2 3.2-1.7 5.2 3.1 11.1 3.7 25.8 11.3 34.9 4.1 4.9 11.2-2.2 7.1-7.1z"/><path class="st6" d="M228.5 230.8 40.7 204.4c-7.6-1.1-12.5-11-11-22.1l13.6-96.9c1.6-11.1 9-19.3 16.6-18.2l187.8 26.4c7.6 1.1 12.5 11 11 22.1l-13.6 96.9c-1.5 11.1-8.9 19.2-16.6 18.2z"/><text transform="rotate(8.001 -705.781 631.987)"><tspan x="0" y="0" class="st7 st8">COMING</tspan><tspan x="22.5" y="51.6" class="st7 st8">SOON</tspan></text><path class="st6" d="M135.2 108.7h80.5v41.8h-80.5z"/><path class="st6" d="M-40.8-29.1h205.9v355.6H-40.8z"/></svg>