<svg xmlns="http://www.w3.org/2000/svg" viewBox="0 0 384.77 361.71"><defs><style>.a{fill:#070605;}.b{fill:#fbddb0;}.c{fill:#e3ab7f;}.d{fill:#fdfdfd;}.e{fill:#c68f71;}.f{fill:#f54c4c;}</style></defs><path class="a" d="M384.77,15.13C383.24,0,364.33-.41,356.14.14c-1.07.86-2.57.3-3.77.37-46.18,2.82-92,9.1-137.91,14.43-32.87,3.81-65.8,7.15-98.62,11.38-15.3,2-30.38,5.62-45.6,8.35-6,1.08-12.08-.31-18.18.28-7.26.71-13.63,4.14-20.59,5.64-1.55.33-1.8,1.74-2.3,3-5.25,13-6.85,26.8-8.1,40.63-.11,1.21.95,1.07,1.78,1,.34-4.9,3.73-8.75,4.64-13.47.19-1,.94-1.83,1.07-2.79C30,58.31,36.63,52.84,47,51.06c-.94,6.48-3.83,12.63-6.24,18.84-2.89,7.4-4.57,14.83-4.1,22.83.9,15.2-1.21,30.24-2.78,45.31-.3,3-2,5.29-3.12,7.83-3.42,7.54-7.1,15-10.68,22.46-.54-.29-.92-.37-1-.56-.87-2.46.88-6.59-2.15-7.2-2.08-.42-4.82,2.39-8.56,4.47,3.79-12.91,5.76-25,8.54-37-.17-1.8.79-3.62-.57-6.2C12.61,132.28,7.6,141.6,4.9,151.92,3.3,158,3.48,164.65,0,170.27v23c2.44.28,2.55-1.84,3-3.24,1.72-5.43,5.94-9,9.51-14.22l8.91,30.47c.5-.57,1-.87,1.05-1.22,1.4-17,8.37-32.42,14-48.18,6.71-18.73,9.33-38,9-57.81A131.37,131.37,0,0,1,46,83.59c2.65,3.23,2.2,7.14,2.71,10.71,4.6,32.3,9.66,64.55,13.23,97,2.72,24.63,3.55,49.47,5.1,74.23,2,32.08,3.46,64.2,6.12,96.22H84.63c-.75-8.38-.94-16.86-1.57-25.26q-5.4-72.93-10.82-145.86c-.34-4.46-1.22-8.88-1.85-13.33-2.28-12-3.17-24.33-6.24-36.24-.42-1.64.25-2.12,1.86-1.45,4,1.64,8,3.2,11.95,4.79l1.25.62L85,146.62l.77-3.14c-7.24-3.65-8.35-10.17-8.61-17.41-.27-7.57-.55-15.18-2.19-22.64-.17-.76-.28-1.86.78-2,1.54-.25,1.12,1.06,1.38,2,2.42,8.47,5,16.9,7.39,25.37.46,1.61.46,3.58,2.63,3.62s1.68-2.1,2.06-3.37c1-3.29,1.8-6.63,2.69-10l1.66,0c0,7.93,0,15.86,0,23.79,0,.2-.77.39-1.18.58-2.94,3.16-2.23,5.16,1.89,6.22,2.89.75,5.74,1.68,8.63,2.44.88.24,2,1,2.72,0s1-2.43,0-3.22c-2.47-2-2-4.8-2.13-7.37-.84-16.3-1.54-32.61-2.45-48.91-.18-3.13-.07-5.53,3.7-6.13,1.29-.2,2.77-.77,2.31-2.58-.38-1.47-1.81-1.24-2.92-1.31-4.14-.27-8.35-.12-12.11-2.34-1.09.31-2.47-1-3.27.22-1,1.46.43,2.52,1.28,3.34,1.85,1.78,1.73,3.57,1,5.85-2.22,7.47-4.22,15-7.17,22.68-2.25-7.69-4.51-15.38-6.72-23.08-.55-1.91-1-3.86-1.4-5.8-.32-1.5-2.1-3.74,1.7-3.28,1.34.16,1.22-1.26,1.37-2.2.25-1.52-.7-2.09-1.94-2.35a106.71,106.71,0,0,1-15.42-4c-2.54-.94-2.26.65-1.89,2.34.63,2.84,3.08,3.85,5.18,5a5.88,5.88,0,0,1,3.39,5.48c.4,7.95,1.41,15.88,1.07,23.86a.29.29,0,0,1,0,.48,4.53,4.53,0,0,1,.43,3.53c.55,6.77.9,13.58,1.73,20.32.47,3.76-2.57,2.77-4.13,3.46-1.3.58-3.38,1-3.77-1.6q-3.21-21.09-6.43-42.17c-1.57-9.66-3.85-19.28-4.45-29C52.25,57,55.9,51,58.74,45.21A25.82,25.82,0,0,1,76.86,43.1,772.76,772.76,0,0,0,180.68,62.93c21.81,2.67,43.63,5.12,65,6.16-6.86,23.64-3.42,47.79-4.38,71.56-1.59,39.1-2,78.25-2.53,117.39-.31,23,3.13,45.83,4.57,68.76.73,11.64,1.67,23.28,2.62,34.91h10.37c-.48-5.31-1-10.62-1.54-15.93-.37-3.44.62-5.67,3.38-7.53a31.05,31.05,0,0,0,5.4-4.41c3.33-3.53,6.51-4.8,10.14-.44.73.88,2,1.75,3,.66,5.29-5.45,12-7.12,19.23-7.47a1.28,1.28,0,0,0,.61-.21v-.06c.12-.05.1,0,0,.06q0,17.67,0,35.33h9.55c1.66-34.52,3.19-69,4.32-103.6.5-15.24-1.32-30.57-2.16-45.85q-3-54.58-6.11-109.17a20.57,20.57,0,0,1,.89-6.89c-.12-4.91,1-9.24,4.64-13,4.35-4.46,8.31-9.3,12.43-14,.29-.56.58-1.11,1.23-1.23.35-.4.71-.8,1.06-1.21l-.18.16,1-1.18-.13-.23c13.55-14.74,23.87-31.83,34.95-48.34,3.52-5.24,9.17-6.11,14.14-9.24,1.23,5.76,3.37,10.81,3.59,16.32a83.16,83.16,0,0,1-2,16q-2.79,25-5.59,50a7.06,7.06,0,0,1-1.72,4c1.05,8.9-1.32,17.52-2.25,26.24-1.64,15.38-3.65,30.72-5.54,46.07-.63,5.12-2.49,9.6-7.07,12.52a69.09,69.09,0,0,1-16.56,12.51c-2.82,1.61-6,3-6.46,6.95-.45,3.47-1.21,6.92-5.88,7.17-1.3.06-1.86,1.2-1.85,2.53,0,2.9,0,5.8,0,9.42,5.79-5.35,12.32-8.82,15.41-16.26,2-4.83,8-4.51,12.29-6.35l6.73-9.66,1,.23c-.74,5.9-1.33,11.83-2.32,17.68-.34,2-2.31,3.14-4.18,4-4.16,5-10.12,7.43-15.29,11-1.49,1-3.27,1.78-3.55,3.9-.55,4.17-.93,8.34-6.62,8.77-1.76.13-1.38,2-1.41,3.28-.05,2.48,0,5,0,8.32,5.41-5.14,12.49-7.9,15-15.42,1.87-5.53,7.56-4.46,11.41-6.59l3.14-2.13c.78,11.34-.6,22.42-1.38,33.52-.32,7.8-.66,15.61-.94,23.41a5.87,5.87,0,0,1-2.19,4.22,97.92,97.92,0,0,1-21.6,16c-1.8,1-3.25,2.09-3.52,4.44-.45,3.83-1,7.7-6.21,8-1.54.09-1.53,1.51-1.59,2.68-.14,2.77-.25,5.53-.45,9.87,5.77-6,12.78-8.64,15.2-16.05.49-1.49,1-3.24,2.9-3.79,7.18-2,13.81-4.81,16.24-14.25,2.18,4.42,1.24,7.53,1.53,10.48.13,1.32-.18,2.71.1,4,2.93,13.4-4.8,21.13-14.67,27.73a54,54,0,0,1-7.59,4.79c-4.35,2-6.84,4.94-7.23,9.75-.09,1.05-.09,2.75-1.41,3-8.37,1.46-5.05,7.9-5.49,12.87,5.16-5.16,12.94-7.68,15-15.76.68-2.69,3.09-3.24,5.28-4,4.53-1.63,9.19-3,11.35-8.09.76-1.77,1.88-4.53,3.9-3.9,2.45.76.83,3.66,1.06,5.62.61,7.23,1.35,14.46.06,21.69-.16,2.35-.34,4.7-.51,7h11.8c-.91-15.77-1.91-31.54-2-47.31-.09-16.64.85-33.31,2.1-49.91,3.89-51.82,9.23-103.51,14.13-155.24,2.22-23.38,4.25-46.78,6.49-70.15.25-2.63-.52-5.61,1.78-7.81v-8c-1.4-1.34-.81-2.67,0-4Zm-93.55,301.2c-2.63-1.35-2.5-6.46-5.71-5.73-2.16.5-3.83,3.93-5.35,6.29-2.68,4.17-5.62,6.11-10.25,2.61-2.61-2-4.82-.91-6.91,1.29-2.6,2.73-5.44,5.24-8.31,8-3.74-9.63-.95-16.51,7.93-21.06,1.92-1,2.94.23,3.88,1.16,3.08,3,6,3,9,0a16.12,16.12,0,0,1,13.58-4.75c3.68.39,5.86-2.76,9.21-4C300.49,307.86,296.56,312.42,291.22,316.33Zm6-29.05a38.81,38.81,0,0,0-5.4,3.57c-3.19,2.6-5.79,3.51-7.74-1.35-1.28-3.2-3.11-2.91-4.91-.22-.83,1.24-1.79,2.38-2.71,3.57-5,6.47-5.09,6.75-12.62,3.5-5-2.16-6,3.11-10,4.1v-16c0-1.57,1.15-2.32,2.19-3.12,1.72-1.31,3.74-2.33,5.16-3.9,3.23-3.57,6.37-4.26,10-.74,1.79,1.72,3.6,1.84,5.65,0,5-4.4,10.61-7.43,17.59-6.63,2,.23,3.22-1.54,5-1.7,0,5.2,0,10.3,0,15.4A3.75,3.75,0,0,1,297.19,287.28ZM292,259c-2-.24-2.71-2.32-3.77-3.67-1.94-2.46-3.44-2.69-5.19,0-.53.83-1.41,1.44-1.94,2.27-3.78,5.95-8.17,9.93-15.58,5.37-1.86-1.14-3.37-.29-4.92,1-1.87,1.55-3.47,3.52-6.51,4.62,0-4.89-.2-9.46.08-14,.16-2.61,7.36-7,10.82-6.24,5,1.07,8.64-.9,12.13-4,1.11-1,2.24-2.44,3.79-2.16,7.24,1.27,12.32-2.42,17.71-8.73.56,6.55,1,11.3,1.36,16.06C300.05,251.25,293.38,259.17,292,259Zm-33.39-71.89a37,37,0,0,0,5.31-4.53c3-3,5.85-4.82,9.33-.59,1.62,2,3.28,1.14,5.2-.13,2.66-1.75,4.51-5.12,8.41-4.65,6.95-.46,7-.47,7.61,6.2.31,3.3.37,6.62.54,9.92l.06,1.8.54,5.09c.67,6.78,1.43,13.56,2,20.35.37,4.42-7.12,11.73-11.34,10.54-5.76-1.62-10.32-.78-14.12,3.91-1.2,1.49-2.66,1.85-4.33.56-4.63-3.57-8.89-3.77-12.13,1.82-2.06-1.33-1.23-3-1.21-4.29.1-12.65.43-25.3.41-38C254.83,191.68,255.64,189.11,258.56,187.11ZM255.75,155c.11-2.43,3-5.13,4.62-3.29,4.82,5.32,8.44,2.57,12.43-.54.88-1,1.9-2.24,3.26-2,6.23,1.05,10.86-1.31,14.15-6.9l1.09.55c.42,6.18,1.35,12.39,1,18.52-.14,2.45-1.76,6.91-6.66,4-2.39-1.41-3.62,1.94-5.79,1.92-2.85,3.59-6.11,4.89-10.06,1.66-3-2.45-5.29-1.51-7.58,1.17a20.44,20.44,0,0,1-6.55,5.56C255.65,168.51,255.45,161.76,255.75,155ZM340.83,27.31a58.85,58.85,0,0,1-7.73,11.17c-8.45,14.62-21.69,25-32.78,37.31a3.44,3.44,0,0,1-1.64,1.1c-8.07,1.73-8.38,7.46-8.12,14.24.43,11.29-.15,22.62.25,33.91.17,4.8-1.34,7.55-5.42,10s-7.42,5.33-10.09-1.3c-.8-2-1.94-1.87-3.12-.05-1.62,2.5-3.41,4.88-5.12,7.32-.33,1.18-.86,2.22-2.28,2.22-4.06,0-9-5-8.87-9.08s-.33-8,.78-11.86q1.05-23.67,2.1-47.33c.31-7.42-4.66-13-12.11-13.8-41.29-4.58-82.77-7.45-123.9-13.61-11.64-1.74-23.41-2.64-35-4.84l-7.33-.6c21.23-7.26,43.44-8.09,65.38-10.63Q212,24,278.13,16.58c8-.91,15.94-.38,23.91-.39,15.11,0,30.22,0,46.16,0A40.88,40.88,0,0,1,340.83,27.31Z"/><path class="a" d="M321.61,68.26l.13-.23-.29,0-.05.06Z"/><path class="a" d="M296.64,326.32v.06C296.74,326.31,296.76,326.27,296.64,326.32Z"/><path class="a" d="M356.2.13c-2.39.16-3.92.4-3.92.4C353.53.45,355.09,1.05,356.2.13Z"/><path class="b" d="M133.26,319.53c1.6,4.49,2.48,7.81,1.1,11.84-3.42,10-6.54,20-9.79,30.34h5.86c6.49-7.14,7.84-17.26,11.78-25.85,4.32,5.53,5.35,10.67,1.92,17a96.17,96.17,0,0,0-4.14,8.84h18.62c-1.5-3.13-3-6.28-4.54-9.37-9.22-18.26-18.22-36.64-27.18-55-1.23-2.51-3.28-3.61-5.5-4.72-5.63-2.82-11.21-5.48-16.09-9.77-4.15-3.66-6.6-8.13-9.28-12.63.33,16.59.36,33.2,1.08,49.77q.9,20.88,1.42,41.75h21.26C124.18,348,128.59,334.12,133.26,319.53Z"/><path class="b" d="M202.26,227.57c0-4.31-1.61-5.39-5.27-6.57-30-9.66-61.33-11.74-92.35-15.49a14.79,14.79,0,0,1-6.49-2.19c-4.57-2.92-9.29-5.63-14.35-8.65,1.85-.88,3.22-.28,4.52.08,30.36,8.4,61.51,11,92.78,12.44,11.92.56,21.57,7.37,32.38,11,2.41.8,1.21,3.21,1.18,4.85-.52,24.47-1.48,48.95-1.61,73.42-.1,19.33,2.74,38.51,4.35,57.75.21,2.51.44,5,.66,7.54H246c-.95-11.63-1.89-23.27-2.62-34.91-1.44-22.93-4.88-45.75-4.57-68.76.54-39.14.94-78.29,2.53-117.39,1-23.77-2.48-47.92,4.38-71.56-21.42-1-43.24-3.49-65-6.16A772.76,772.76,0,0,1,76.86,43.1a25.82,25.82,0,0,0-18.12,2.11c.36.33.92.6,1.06,1,4.09,12,14.43,18.08,23.53,25.45,3.09,2.52,7.24,4.22,8.67,8.52,3.76,2.22,8,2.07,12.11,2.34,1.11.07,2.54-.16,2.92,1.31.46,1.81-1,2.38-2.31,2.58-3.77.6-3.88,3-3.7,6.13.91,16.3,1.61,32.61,2.45,48.91.13,2.57-.34,5.34,2.13,7.37,1,.79.68,2.24,0,3.22s-1.84.29-2.72,0c-2.89-.76-5.74-1.69-8.63-2.44-4.12-1.06-4.83-3.06-1.89-6.22-2.46-1.45-2.41-4.62-4.58-6.59-1.87,1.89-1.66,4.35-2,6.63-.26,1-.51,2.09-.77,3.14,0,4.93,0,9.87-1.82,15.84-1.5-6.51-4.33-11.57-4-17.48L78,144.36c-4-1.59-8-3.15-11.95-4.79-1.61-.67-2.28-.19-1.86,1.45,3.07,11.91,4,24.2,6.24,36.24,3.61,4.61,3.66,10.45,5.16,15.72,5.15,18.13,9.43,36.51,15,54.54a3,3,0,0,1-.25,2.83c3.48,6.79,7,13.56,10.43,20.38a4.44,4.44,0,0,0,4.21,2.86c1.48,0,3,.6,4.44.56,3.25-.09,7.55,2.87,9.43.3,3.32-4.54,6.21-9.83,6.23-15.9a32.64,32.64,0,0,0-4-15.78c-2.47-4.63-4.58-9.45-7-14.51.83.08,1.73-.11,2,.22,5,6,10.25,11.85,13.08,19.21,3.88,10.07,5.66,20.44,2.45,31.11-.78,2.61-.14,4.73,1.18,7.05,14.4,25.27,28.67,50.61,43.11,75.86h30.25C203.46,317.05,201.82,272.34,202.26,227.57Zm-11-128.11c3.63.42,7.2,1.26,10.8,2,.81.15,1.76.36,1.39,1.52s-.67,2.41-2.1,2.5c-3.79.26-3.62,2.93-3.78,5.67-.84,14.12-1.82,28.24-2.69,42.36-.45,7.39,1.39,9.24,9.55,9.93,5.91.5,7.31-.85,8.09-8.38,1.46-14.07,2.74-28.16,4.28-42.22.31-2.75-.22-4.52-2.85-5.47-2.18-.79-3.42-2.33-2.62-4.6.91-2.61,2.86-.62,4.21-.43,5.26.71,10.4,2.23,15.77,2.18,1.2,0,2.95-.54,3.16,1.44.16,1.57-1.4,1.88-2.43,2-4.67.48-5,3.56-5.15,7.37-.74,15.3-1.54,30.59-2.76,45.86-.76,9.49-6.35,14.75-16,12.5-4.5-1.06-9.25-.92-13.52-3.18-2.91-1.54-4.17-3.58-4.76-6.89-1.91-10.71.63-21.23.6-30.06.58-8.76,1.12-15.73,1.47-22.72.15-3,1.22-6.15-2.17-8.57C188.2,101.08,189.25,99.22,191.25,99.46ZM146.93,156c2.58-2.23,2.68-4.72,2.8-7.56q.92-22,1.93-43.95c.14-3,.66-6-2.68-7.85-1.19-.65-1.27-1.93-1-3.1.42-1.71,1.88-1.11,2.89-1,7.87,1.07,9.67-1.33,11.55,9.3,1.95,11,4.59,21.83,7,32.72.19.88,0,2,1.74,2.67,1.29-9.79,2.61-19.46,3.83-29.13.43-3.46,2.21-7.31-2.3-9.65-.65-.34-.72-1-.31-1.73a2,2,0,0,1,2.5-1c3.24.7,6.53,1.2,9.79,1.86.88.18,2.15,0,2.24,1.42a1.94,1.94,0,0,1-1.85,2c-4.69.67-4.82,4-5,7.68-.88,18-1.93,35.93-3,53.89-.09,1.53,1.16,4.39-1.44,4.34-2.44,0-5.6.06-6.54-3.9-3.25-13.6-6.82-27.12-10.27-40.67-.44-1.7-.93-3.4-1.4-5.09l-1.39.2c0,12.47.05,24.94-.05,37.41,0,2.16,1.09,3.37,2.5,4.57,1.1.94,1.8,2.06,1.19,3.5-.84,2-2.28.64-3.41.4-2.6-.56-5.13-1.47-7.74-1.93C143.94,160.68,144.82,157.82,146.93,156Zm-34-4.93c2.45,0,2.51-1.55,2.56-3.33.49-17.47,1-34.94,1.58-52.4.11-2.89-1.84-4.09-3.5-5.61-1.21-1.1-2.26-2.41-1.51-3.86.88-1.69,2.28-.13,3.45.11,8.13,1.66,16.25,3.43,24.41,4.93,3,.54,4.31,1.66,4,4.89-.31,3.63-.07,7.3-.07,11.3-3.51-.71-4.26-3.32-4.65-5.64-.56-3.33-2.26-4.13-5.38-4.32-10-.62-10-.74-9.85,9.24.06,3.83.13,7.66.15,11.49,0,1.39.13,2.63,1.59,3.35,1.87.91,2.25-.67,3-1.7s1.09-2.24,2.58-1.8,1.21,1.73,1.2,2.89c0,4.76,0,9.53,0,14.42-3.84-.21-3.77-2.88-4.57-4.67s-1.55-3.31-3.46-3c-2.3.43-1,2.46-.92,3.73.32,6.31,1,12.61,1.14,18.93.09,3,1.19,3.48,3.9,3.36,4-.18,7.64-.41,9.57-4.64a1.94,1.94,0,0,1,2.43-1.21c1.54.41,1.46,1.57,1.4,2.76,0,.33,0,.66,0,1-.07,9.47-.05,9.28-9.37,8.15a120.44,120.44,0,0,1-19.44-4.29c-1.35-.39-2.55-.76-2.6-2.49S111.85,151.06,112.94,151.08Zm-6.83,112.28c-9.88-7.52-8.75-18.79-12.18-28.11C98.52,244.1,107.38,251,106.11,263.36Zm10-5.92c-7.24-7.48-8.22-17.27-11.66-25.91C108.86,239.7,118.29,245.41,116.12,257.44Zm65.41-.35c-3.31,2.37-2,6.48-2.24,9.77-.3,4.19-1.14,7.72-4.53,10.48-3.15,2.57-1.72,6.29-1.55,9.4.26,4.76-1,7.85-5.34,10.47-7,4.24-8.11,12.21-3.33,18.75,1,1.41,2,2.43.33,4.21-1.55,1.63-2.49.69-3.79-.1-3.08-1.84-6.35-3-7.49-7.31-1-3.78-2.06-6.26,3.42-5.64,1.74.2,2.05-1.44,2.48-2.65,1.23-3.45,2.35-6.93,3.62-10.36.45-1.21.55-2.9,1.94-3.34,6.73-2.15,4.83-7,3.14-11.14s-.26-6.37,3-8.05a5.32,5.32,0,0,0,3.2-6c-.16-1.31.14-2.69-.06-4-.91-5.63.74-10.05,5.84-12.94-.45-4.74.85-9.64-1.26-14.23-1.94-1.56-3-1.07-4,1.24-6.91,16.56-14.14,33-20.79,49.66-1.87,4.69-4.7,7.68-9.86,10.31,3.7-9.57,7.07-18.34,10.49-27.1,3.62-9.28,7.4-18.52,10.92-27.84A29.66,29.66,0,0,1,173,230.07a4.53,4.53,0,0,1,4.83-1.32c7,1.51,7.05,1.41,7.05,8.74,0,3.83-.17,7.67.06,11.48C185.11,252.33,184.54,254.93,181.53,257.09Z"/><path class="c" d="M351,354.66c.38-7.23-2.56-14.45-.06-21.69-.23-2,1.39-4.86-1.06-5.62-2-.63-3.14,2.13-3.9,3.9-2.16,5.08-6.82,6.46-11.35,8.09-2.19.79-4.6,1.34-5.28,4-2.06,8.08-9.84,10.6-15,15.76.44-5-2.88-11.41,5.49-12.87,1.32-.24,1.32-1.94,1.41-3,.39-4.81,2.88-7.79,7.23-9.75a54,54,0,0,0,7.59-4.79c9.87-6.6,17.6-14.33,14.67-27.73-.28-1.28,0-2.67-.1-4-.29-2.95.65-6.06-1.53-10.48-2.43,9.44-9.06,12.22-16.24,14.25-1.95.55-2.41,2.3-2.9,3.79-2.42,7.41-9.43,10.06-15.2,16.05.2-4.34.31-7.1.45-9.87.06-1.17.05-2.59,1.59-2.68,5.19-.3,5.76-4.17,6.21-8,.27-2.35,1.72-3.46,3.52-4.44a97.92,97.92,0,0,0,21.6-16,5.87,5.87,0,0,0,2.19-4.22c.28-7.8.62-15.61.94-23.41q-.88-15.69-1.76-31.39c-3.85,2.13-9.54,1.06-11.41,6.59-2.55,7.52-9.63,10.28-15,15.42,0-3.35,0-5.84,0-8.32,0-1.27-.35-3.15,1.41-3.28,5.69-.43,6.07-4.6,6.62-8.77.28-2.12,2.06-2.87,3.55-3.9,5.17-3.57,11.13-6,15.29-11-2.3-3.89-.48-8.18-1.2-12.23-4.29,1.84-10.28,1.52-12.29,6.35-3.09,7.44-9.62,10.91-15.41,16.26,0-3.62,0-6.52,0-9.42,0-1.33.55-2.47,1.85-2.53,4.67-.25,5.43-3.7,5.88-7.17.51-4,3.64-5.34,6.46-6.95a69.09,69.09,0,0,0,16.56-12.51q3.51-20.77,7-41.55t7-41.54a7.77,7.77,0,0,1,.8-1.74,7.06,7.06,0,0,0,1.72-4q2.79-25,5.59-50c-4.08-.75-6.44,1.12-9,4.35-14.07,17.62-26.37,36.69-43.05,52.18-6.83,6.35-6.56,6.6-14.76,1.29a38.71,38.71,0,0,0-4-2,20.57,20.57,0,0,0-.89,6.89q3.08,54.58,6.11,109.17c.84,15.28,2.66,30.61,2.16,45.85-1.13,34.55-2.66,69.08-4.32,103.6h44.27C350.65,359.36,350.83,357,351,354.66ZM323.61,134.42c2.6-.17,3.21-2,3.43-4.12.47-4.37,3-7.07,6.7-9.17a133.48,133.48,0,0,0,12-8c7.5-5.34,11.73-12.84,15.08-21.46,4.56,6.46,1,12.51.65,18.49-6.89,2.84-9.7,10-15.14,14.34a6.58,6.58,0,0,1-2.75,1.13c-5.25,1.13-8.4,4.13-10.52,9.24-2.29,5.53-8.62,7.34-13.16,12.55,0-3.57.11-5.73,0-7.87C319.69,136.73,320.33,134.63,323.61,134.42Z"/><path class="c" d="M333.1,38.48c-8.45,14.62-21.69,25-32.78,37.31a3.44,3.44,0,0,1-1.64,1.1c-8.07,1.73-8.38,7.46-8.12,14.24.43,11.29-.15,22.62.25,33.91.17,4.8-1.34,7.55-5.42,10s-7.42,5.33-10.09-1.3c-.8-2-1.94-1.87-3.12-.05-1.62,2.5-3.41,4.88-5.12,7.32-3.25-6.36-5.45-13.29-10.37-18.72q1.05-23.67,2.1-47.33c.31-7.42-4.66-13-12.11-13.8-41.29-4.58-82.77-7.45-123.9-13.61-11.64-1.74-23.41-2.64-35-4.84.66-1.21,1.82-1.28,3-1.35,16.7-1,33.39-2.05,50.09-3,14.72-.8,29.5-1,44.17-2.32,6.77-.62,13.55-.56,20.32-1.26A332.34,332.34,0,0,1,240,32.71c16.73,0,33.47,1,50.2,1.61,7.95.29,16,.17,23.82,1.15C320.41,36.27,326.94,36.34,333.1,38.48Z"/><path class="d" d="M97.1,320c-.72-16.57-.75-33.18-1.08-49.77-2.19-7.64-7.82-14-8.64-22.44,2.28,0,2,1.88,2.93,2.6a3,3,0,0,0,.25-2.83c-5.58-18-9.86-36.41-15-54.54-1.5-5.27-1.55-11.11-5.16-15.72.63,4.45,1.51,8.87,1.85,13.33q5.48,72.93,10.82,145.86c.63,8.4.82,16.88,1.57,25.26H98.52Q98,340.83,97.1,320Z"/><path class="e" d="M296.64,326.32v.06C296.74,326.31,296.76,326.27,296.64,326.32Z"/><path class="e" d="M296.64,326.38a1.28,1.28,0,0,1-.61.21c-7.24.35-13.94,2-19.23,7.47-1.06,1.09-2.31.22-3-.66-3.63-4.36-6.81-3.09-10.14.44a31.05,31.05,0,0,1-5.4,4.41c-2.76,1.86-3.75,4.09-3.38,7.53.56,5.31,1.06,10.62,1.54,15.93h40.28Q296.62,344,296.64,326.38Z"/><path class="e" d="M295,193.33l.06,1.8c-1.57,1.88-2.26,3.66.54,5.09.67,6.78,1.43,13.56,2,20.35.37,4.42-7.12,11.73-11.34,10.54-5.76-1.62-10.32-.78-14.12,3.91-1.2,1.49-2.66,1.85-4.33.56-4.63-3.57-8.89-3.77-12.13,1.82-2.06-1.33-1.23-3-1.21-4.29.1-12.65.43-25.3.41-38,0-3.48.8-6,3.72-8a37,37,0,0,0,5.31-4.53c3-3,5.85-4.82,9.33-.59,1.62,2,3.28,1.14,5.2-.13,2.66-1.75,4.51-5.12,8.41-4.65A69,69,0,0,0,295,193.33Z"/><path class="b" d="M333.1,38.48c-6.16-2.14-12.69-2.21-19-3-7.86-1-15.87-.86-23.82-1.15-16.73-.6-33.47-1.57-50.2-1.61a332.34,332.34,0,0,0-34.68,2.07c-6.77.7-13.55.64-20.32,1.26-14.67,1.34-29.45,1.52-44.17,2.32-16.7.9-33.39,2-50.09,3-1.18.07-2.34.14-3,1.35l-7.33-.6c21.23-7.26,43.44-8.09,65.38-10.63,1.55,1.46,3.47.84,5.24.88,7.31.18,14.54-1.06,21.86-1.19,11.08-.2,22.16-1.2,33.24-2,18-1.24,36-3.1,54-3.71,26.9-.9,53.78.59,80.65,1.86A58.85,58.85,0,0,1,333.1,38.48Z"/><path class="b" d="M374,40.37c-4.08-.75-6.44,1.12-9,4.35-14.07,17.62-26.37,36.69-43.05,52.18-6.83,6.35-6.56,6.6-14.76,1.29a38.71,38.71,0,0,0-4-2c-.12-4.91,1-9.24,4.64-13,4.35-4.46,8.31-9.3,12.43-14L321.74,68l-.13.23-.21-.15a1.1,1.1,0,0,0,1.11-1.27l-.18.16c.8,0,1.21-.32,1-1.18l-.12-.23c2,1.27,3-.48,4.2-1.47Q338.58,55,349.68,45.87c6.95-5.69,14.89-10.61,15.49-21.06.1-1.79,1.49-2.93,3.59-2.36,2.38.64,4.77,1.25,7.16,1.88A83.16,83.16,0,0,1,374,40.37Z"/><path class="d" d="M340.83,27.31C314,26,287.08,24.55,260.18,25.45c-18,.61-36,2.47-54,3.71-11.08.76-22.16,1.76-33.24,2-7.32.13-14.55,1.37-21.86,1.19-1.77,0-3.69.58-5.24-.88Q212,24,278.13,16.58c8-.91,15.94-.38,23.91-.39,15.11,0,30.22,0,46.16,0A40.88,40.88,0,0,1,340.83,27.31Z"/><path class="f" d="M17,128l3.79,16c8-22.51,14.5-44.28,8.33-67.65-2.79,2-3.07,6.55-6.23,8.83.34-4.9,3.73-8.75,4.64-13.47.19-1,.94-1.83,1.07-2.79C30,58.31,36.63,52.84,47,51.06c-.94,6.49-3.83,12.63-6.24,18.84-2.89,7.4-4.57,14.83-4.1,22.83.9,15.2-1.21,30.24-2.78,45.31-.3,3-2,5.29-3.12,7.83-3.42,7.54-7.1,15-10.68,22.46-.54-.29-.92-.37-1-.56-.87-2.46.88-6.59-2.15-7.2-2.08-.42-4.82,2.39-8.56,4.47C12.21,152.13,14.18,140,17,128Z"/><path class="c" d="M58.74,45.21c.36.33.92.6,1.06,1,4.09,12,14.43,18.08,23.53,25.45,3.09,2.52,7.24,4.22,8.67,8.52-1.09.31-2.47-1-3.27.22-1,1.46.43,2.52,1.28,3.34,1.85,1.78,1.73,3.57,1,5.85-2.22,7.47-4.22,15-7.17,22.68-2.25-7.69-4.51-15.38-6.72-23.08-.55-1.91-1-3.86-1.4-5.8-.32-1.5-2.1-3.74,1.7-3.28,1.34.16,1.22-1.26,1.37-2.2.25-1.52-.7-2.09-1.94-2.35a106.71,106.71,0,0,1-15.42-4c-2.54-.94-2.26.65-1.89,2.34.63,2.84,3.08,3.85,5.18,5a5.88,5.88,0,0,1,3.39,5.48c.4,7.95,1.41,15.88,1.07,23.86-1.81-1.13-1.66-3.24-2-4.86C66,97.6,61.79,94.8,57.09,92.31c-1.57-9.66-3.85-19.28-4.45-29C52.25,57,55.9,51,58.74,45.21Z"/><path class="e" d="M253.81,300.45v-16c0-1.57,1.15-2.32,2.19-3.12,1.72-1.31,3.74-2.33,5.16-3.9,3.23-3.57,6.37-4.26,10-.74,1.79,1.72,3.6,1.84,5.65,0,5-4.4,10.61-7.43,17.59-6.63,2,.23,3.22-1.54,5-1.7,0,5.2,0,10.3,0,15.4a3.75,3.75,0,0,1-2.3,3.51,38.81,38.81,0,0,0-5.4,3.57c-3.19,2.6-5.79,3.51-7.74-1.35-1.28-3.2-3.11-2.91-4.91-.22-.83,1.24-1.79,2.38-2.71,3.57-5,6.47-5.09,6.75-12.62,3.5C258.84,294.19,257.85,299.46,253.81,300.45Z"/><path class="e" d="M298.57,233.52c.56,6.55,1,11.3,1.36,16.06.12,1.67-6.55,9.59-8,9.42-2-.24-2.71-2.32-3.77-3.67-1.94-2.46-3.44-2.69-5.19,0-.53.83-1.41,1.44-1.94,2.27-3.78,5.95-8.17,9.93-15.58,5.37-1.86-1.14-3.37-.29-4.92,1-1.87,1.55-3.47,3.52-6.51,4.62,0-4.89-.2-9.46.08-14,.16-2.61,7.36-7,10.82-6.24,5,1.07,8.64-.9,12.13-4,1.11-1,2.24-2.44,3.79-2.16C288.1,243.52,293.18,239.83,298.57,233.52Z"/><path class="d" d="M358.19,17.25c-11.08,16.51-21.4,33.6-34.94,48.34,2,1.27,3-.48,4.2-1.47Q338.58,55,349.68,45.87c6.95-5.69,14.89-10.61,15.49-21.06.1-1.79,1.49-2.93,3.59-2.36,2.38.64,4.77,1.25,7.16,1.88-.22-5.51-2.36-10.56-3.59-16.32C367.36,11.14,361.71,12,358.19,17.25Z"/><path class="e" d="M298.31,300.2c2.18,7.66-1.75,12.22-7.1,16.14-2.62-1.36-2.49-6.47-5.7-5.74-2.16.5-3.83,3.93-5.35,6.29-2.68,4.17-5.62,6.11-10.25,2.61-2.61-2-4.82-.91-6.91,1.29-2.6,2.73-5.44,5.24-8.31,8-3.74-9.63-.95-16.51,7.93-21.06,1.92-1,2.94.23,3.88,1.16,3.08,3,6,3,9,0a16.12,16.12,0,0,1,13.58-4.75C292.78,304.55,295,301.4,298.31,300.2Z"/><path class="e" d="M279.84,167.31c-2.85,3.59-6.11,4.89-10.06,1.66-3-2.45-5.29-1.51-7.58,1.17a20.44,20.44,0,0,1-6.55,5.56c0-7.19-.2-13.94.1-20.67.11-2.43,3-5.13,4.62-3.29,4.82,5.32,8.44,2.57,12.43-.54C275,156.63,279,161.29,279.84,167.31Z"/><path class="b" d="M57.09,92.31c4.7,2.49,9,5.29,10.14,11.12.34,1.62.19,3.73,2,4.86a.29.29,0,0,1,0,.48,3.16,3.16,0,0,0,.43,3.53c.55,6.77.9,13.58,1.73,20.32.47,3.76-2.57,2.77-4.13,3.46-1.3.58-3.38,1-3.77-1.6Q60.31,113.39,57.09,92.31Z"/><path class="c" d="M92.35,143.44c-2.46-1.45-2.41-4.62-4.58-6.59-1.87,1.89-1.66,4.35-2,6.63-7.24-3.65-8.35-10.17-8.61-17.41-.27-7.57-.55-15.18-2.19-22.64-.17-.76-.28-1.86.78-2,1.54-.25,1.12,1.06,1.38,2,2.42,8.47,5,16.9,7.39,25.37.46,1.61.46,3.58,2.63,3.62s1.68-2.1,2.06-3.37c1-3.29,1.8-6.63,2.69-10l1.66,0c0,7.93,0,15.86,0,23.79C93.53,143.06,92.76,143.25,92.35,143.44Z"/><path class="c" d="M279.84,167.31c-.86-6-4.82-10.68-7-16.11.88-1,1.9-2.24,3.26-2,6.23,1.05,10.86-1.31,14.15-6.9l1.09.55c.42,6.18,1.35,12.39,1,18.52-.14,2.45-1.76,6.91-6.66,4C283.24,164,282,167.33,279.84,167.31Z"/><path class="b" d="M351.78,179.18q3.51-20.77,7-41.55t7-41.54a7.77,7.77,0,0,1,.8-1.74c1.05,8.9-1.32,17.52-2.25,26.24-1.64,15.38-3.65,30.72-5.54,46.07C358.22,171.78,356.36,176.26,351.78,179.18Z"/><path class="e" d="M256.69,122.24c4.92,5.43,7.12,12.36,10.37,18.72-.33,1.18-.86,2.22-2.28,2.22-4.06,0-9-5-8.87-9.08S255.58,126.13,256.69,122.24Z"/><path class="b" d="M349.94,207.38c-2.3-3.89-.48-8.18-1.2-12.23l6.73-9.66,1,.23c-.74,5.9-1.33,11.83-2.32,17.68C353.78,205.39,351.81,206.54,349.94,207.38Z"/><path class="b" d="M351.26,252q-.88-15.69-1.76-31.39l3.14-2.13C353.42,229.85,352,240.93,351.26,252Z"/><path class="c" d="M295,193.33a69,69,0,0,1-8.15-16.12c6.95-.46,7-.47,7.61,6.2C294.73,186.71,294.79,190,295,193.33Z"/><path class="c" d="M85,146.62c0,4.93,0,9.87-1.82,15.84-1.5-6.51-4.33-11.57-4-17.48Z"/><path class="e" d="M351,354.66c.38-7.23-2.56-14.45-.06-21.69C351.54,340.2,352.28,347.43,351,354.66Z"/><path class="c" d="M295.56,200.22c-2.8-1.43-2.11-3.21-.54-5.09Z"/><path class="c" d="M69.69,112.3a3.16,3.16,0,0,1-.43-3.53A4.53,4.53,0,0,1,69.69,112.3Z"/><path class="c" d="M79.21,145,78,144.36Z"/><path class="d" d="M321.74,68l-1.52,1.25C320.55,68.65,320.88,68,321.74,68Z"/><path class="d" d="M322.51,66.84a1.1,1.1,0,0,1-1.11,1.27Z"/><path class="d" d="M323.37,65.82c.17.86-.24,1.18-1,1.18Z"/><path class="a" d="M217.4,354.17c-1.61-19.24-4.45-38.42-4.35-57.75.13-24.47,1.09-49,1.61-73.42,0-1.64,1.23-4.05-1.18-4.85-10.81-3.59-20.46-10.4-32.38-11-31.27-1.47-62.42-4-92.78-12.44-1.3-.36-2.67-1-4.52-.08,5.06,3,9.78,5.73,14.35,8.65a14.79,14.79,0,0,0,6.49,2.19c31,3.75,62.31,5.83,92.35,15.49,3.66,1.18,5.31,2.26,5.27,6.57-.44,44.77,1.2,89.48,3.9,134.14h11.9C217.84,359.2,217.61,356.68,217.4,354.17Z"/><path class="a" d="M132.8,285.85c-1.32-2.32-2-4.44-1.18-7.05,3.21-10.67,1.43-21-2.45-31.11-2.83-7.36-8.06-13.26-13.08-19.21-.29-.33-1.19-.14-2-.22,2.42,5.06,4.53,9.88,7,14.51a32.64,32.64,0,0,1,4,15.78c0,6.07-2.91,11.36-6.23,15.9-1.88,2.57-6.18-.39-9.43-.3-1.47,0-3-.54-4.44-.56a4.44,4.44,0,0,1-4.21-2.86c-3.43-6.82-6.95-13.59-10.43-20.38-.93-.72-.65-2.59-2.93-2.6.82,8.41,6.45,14.8,8.64,22.44,2.68,4.5,5.13,9,9.28,12.63,4.88,4.29,10.46,6.95,16.09,9.77,2.22,1.11,4.27,2.21,5.5,4.72,9,18.39,18,36.77,27.18,55,1.56,3.09,3,6.24,4.54,9.37h17.3C161.47,336.46,147.2,311.12,132.8,285.85Z"/><path class="a" d="M190.47,133.5c.58-8.76,1.12-15.73,1.47-22.72.15-3,1.22-6.15-2.17-8.57-1.57-1.13-.52-3,1.48-2.75,3.63.42,7.2,1.26,10.8,2,.81.15,1.76.36,1.39,1.52s-.67,2.41-2.1,2.5c-3.79.26-3.62,2.93-3.78,5.67-.84,14.12-1.82,28.24-2.69,42.36-.45,7.39,1.39,9.24,9.55,9.93,5.91.5,7.31-.85,8.09-8.38,1.46-14.07,2.74-28.16,4.28-42.22.31-2.75-.22-4.52-2.85-5.47-2.18-.79-3.42-2.33-2.62-4.6.91-2.61,2.86-.62,4.21-.43,5.26.71,10.4,2.23,15.77,2.18,1.2,0,2.95-.54,3.16,1.44.16,1.57-1.4,1.88-2.43,2-4.67.48-5,3.56-5.15,7.37-.74,15.3-1.54,30.59-2.76,45.86-.76,9.49-6.35,14.75-16,12.5-4.5-1.06-9.25-.92-13.52-3.18-2.91-1.54-4.17-3.58-4.76-6.89C188,152.85,190.5,142.33,190.47,133.5Z"/><path class="a" d="M156,117.54c0,12.47.05,24.94-.05,37.41,0,2.16,1.09,3.37,2.5,4.57,1.1.94,1.8,2.06,1.19,3.5-.84,2-2.28.64-3.41.4-2.6-.56-5.13-1.47-7.74-1.93-4.52-.81-3.64-3.67-1.53-5.48,2.58-2.23,2.68-4.72,2.8-7.56q.92-22,1.93-43.95c.14-3,.66-6-2.68-7.85-1.19-.65-1.27-1.93-1-3.1.42-1.71,1.88-1.11,2.89-1,7.87,1.07,9.67-1.33,11.55,9.3,1.95,11,4.59,21.83,7,32.72.19.88,0,2,1.74,2.67,1.29-9.79,2.61-19.46,3.83-29.13.43-3.46,2.21-7.31-2.3-9.65-.65-.34-.72-1-.31-1.73a2,2,0,0,1,2.5-1c3.24.7,6.53,1.2,9.79,1.86.88.18,2.15,0,2.24,1.42a1.94,1.94,0,0,1-1.85,2c-4.69.67-4.82,4-5,7.68-.88,18-1.93,35.93-3,53.89-.09,1.53,1.16,4.39-1.44,4.34-2.44,0-5.6.06-6.54-3.9-3.25-13.6-6.82-27.12-10.27-40.67-.44-1.7-.93-3.4-1.4-5.09Z"/><path class="a" d="M143.9,107.11c-3.51-.71-4.26-3.32-4.65-5.64-.56-3.33-2.26-4.13-5.38-4.32-10-.62-10-.74-9.85,9.24.06,3.83.13,7.66.15,11.49,0,1.39.13,2.63,1.59,3.35,1.87.91,2.25-.67,3-1.7s1.09-2.24,2.58-1.8,1.21,1.73,1.2,2.89c0,4.76,0,9.53,0,14.42-3.84-.21-3.77-2.88-4.57-4.67s-1.55-3.31-3.46-3c-2.3.43-1,2.46-.92,3.73.32,6.31,1,12.61,1.14,18.93.09,3,1.19,3.48,3.9,3.36,4-.18,7.64-.41,9.57-4.64a1.94,1.94,0,0,1,2.43-1.21c1.54.41,1.46,1.57,1.4,2.76,0,.33,0,.66,0,1-.07,9.47-.05,9.28-9.37,8.15a120.44,120.44,0,0,1-19.44-4.29c-1.35-.39-2.55-.76-2.6-2.49s1.32-1.66,2.41-1.64c2.45,0,2.51-1.55,2.56-3.33.49-17.47,1-34.94,1.58-52.4.11-2.89-1.84-4.09-3.5-5.61-1.21-1.1-2.26-2.41-1.51-3.86.88-1.69,2.28-.13,3.45.11,8.13,1.66,16.25,3.43,24.41,4.93,3,.54,4.31,1.66,4,4.89C143.66,99.44,143.9,103.11,143.9,107.11Z"/><path class="a" d="M178.92,234.38c-1.94-1.56-3-1.07-4,1.24-6.91,16.56-14.14,33-20.79,49.66-1.87,4.69-4.7,7.68-9.86,10.31,3.7-9.57,7.07-18.34,10.49-27.1,3.62-9.28,7.4-18.52,10.92-27.84A29.66,29.66,0,0,1,173,230.07a4.53,4.53,0,0,1,4.83-1.32c7,1.51,7.05,1.41,7.05,8.74,0,3.83-.17,7.67.06,11.48.19,3.36-.38,6-3.39,8.12-3.31,2.37-2,6.48-2.24,9.77-.3,4.19-1.14,7.72-4.53,10.48-3.15,2.57-1.72,6.29-1.55,9.4.26,4.76-1,7.85-5.34,10.47-7,4.24-8.11,12.21-3.33,18.75,1,1.41,2,2.43.33,4.21-1.55,1.63-2.49.69-3.79-.1-3.08-1.84-6.35-3-7.49-7.31-1-3.78-2.06-6.26,3.42-5.64,1.74.2,2.05-1.44,2.48-2.65,1.23-3.45,2.35-6.93,3.62-10.36.45-1.21.55-2.9,1.94-3.34,6.73-2.15,4.83-7,3.14-11.14s-.26-6.37,3-8.05a5.32,5.32,0,0,0,3.2-6c-.16-1.31.15-2.69-.06-4-.91-5.63.74-10.05,5.84-12.94,2.95-4.26,1.51-8.84.86-13.32C181,234.89,179.65,234.68,178.92,234.38Z"/><path class="a" d="M134.36,331.37c1.38-4,.5-7.35-1.1-11.84-4.67,14.59-9.08,28.43-13.48,42.18h4.79C127.82,351.4,130.94,341.33,134.36,331.37Z"/><path class="a" d="M144.13,352.87c3.43-6.34,2.4-11.48-1.92-17-3.94,8.59-5.29,18.71-11.78,25.85H140A96.17,96.17,0,0,1,144.13,352.87Z"/><path class="a" d="M106.11,263.36c-9.88-7.52-8.75-18.79-12.18-28.11C98.52,244.1,107.38,251,106.11,263.36Z"/><path class="a" d="M116.12,257.44c-7.24-7.48-8.22-17.27-11.66-25.91C108.86,239.7,118.29,245.41,116.12,257.44Z"/><path class="c" d="M178.92,234.38c.73.3,2.06.51,2.12.91.65,4.48,2.09,9.06-.86,13.32C179.73,243.87,181,239,178.92,234.38Z"/><path class="a" d="M319.88,147.42c0-3.57.11-5.73,0-7.87-.17-2.82.47-4.92,3.75-5.13,2.6-.17,3.21-2,3.43-4.12.47-4.37,3-7.07,6.7-9.17a133.48,133.48,0,0,0,12-8c7.5-5.34,11.73-12.84,15.08-21.46,4.56,6.46,1,12.51.65,18.49-6.89,2.84-9.7,10-15.14,14.34a6.58,6.58,0,0,1-2.75,1.13c-5.25,1.13-8.4,4.13-10.52,9.24C330.75,140.4,324.42,142.21,319.88,147.42Z"/><path class="a" d="M384.77,19.3v4S382.69,21.88,384.77,19.3Z"/><path class="a" d="M384.77,31.29S382.14,56,380.94,61s1.91-28.22,1.91-28.22"/></svg>