<?xml version="1.0" encoding="utf-8"?>
<!-- Generator: Adobe Illustrator 26.0.1, SVG Export Plug-In . SVG Version: 6.00 Build 0)  -->
<svg version="1.1" id="Layer_1" xmlns="http://www.w3.org/2000/svg" xmlns:xlink="http://www.w3.org/1999/xlink" x="0px" y="0px"
	 viewBox="0 0 384.8 361.7" style="enable-background:new 0 0 384.8 361.7;" xml:space="preserve">
<style type="text/css">
	.st0{fill:#070605;}
	.st1{fill:#FBDDB0;}
	.st2{fill:#E3AB7F;}
	.st3{fill:#FDFDFD;}
	.st4{fill:#C68F71;}
	.st5{fill:#F54C4C;}
	.st6{fill:none;}
	.st7{font-family:'Impact';}
	.st8{font-size:43px;}
</style>
<path class="st0" d="M385.2,14.7c-1.5-15.1-20.5-15.6-28.7-15c-1.1,0.9-2.6,0.3-3.8,0.4c-46.2,2.8-92.1,9.1-138.1,14.4
	c-32.9,3.8-65.9,7.2-98.7,11.4c-15.3,2-30.4,5.6-45.6,8.4c-6,1.1-12.1-0.3-18.2,0.3c-7.3,0.7-13.6,4.1-20.6,5.6
	c-1.6,0.3-1.8,1.7-2.3,3c-5.3,13-6.9,26.8-8.1,40.7c-0.1,1.2,1,1.1,1.8,1c0.3-4.9,3.7-8.8,4.6-13.5c0.2-1,0.9-1.8,1.1-2.8
	C30,57.9,36.7,52.4,47,50.6c-0.9,6.5-3.8,12.6-6.2,18.9c-2.9,7.4-4.6,14.8-4.1,22.9c0.9,15.2-1.2,30.3-2.8,45.4
	c-0.3,3-2,5.3-3.1,7.8c-3.4,7.5-7.1,15-10.7,22.5c-0.5-0.3-0.9-0.4-1-0.6c-0.9-2.5,0.9-6.6-2.2-7.2c-2.1-0.4-4.8,2.4-8.6,4.5
	c3.8-12.9,5.8-25,8.5-37c-0.2-1.8,0.8-3.6-0.6-6.2c-3.7,10.5-8.7,19.8-11.5,30.1C3.3,157.7,3.5,164.4,0,170v23
	c2.4,0.3,2.6-1.8,3-3.2c1.7-5.4,5.9-9,9.5-14.2l8.9,30.5c0.5-0.6,1-0.9,1.1-1.2c1.4-17,8.4-32.5,14-48.2c6.7-18.8,9.3-38,9-57.9
	c-0.1-5.2,0-10.3,0.5-15.5c2.7,3.2,2.2,7.1,2.7,10.7c4.6,32.3,9.7,64.6,13.2,97.1c2.7,24.7,3.6,49.5,5.1,74.3
	c2,32.1,3.5,64.3,6.1,96.3h11.5c-0.8-8.4-0.9-16.9-1.6-25.3c-3.6-48.7-7.2-97.4-10.8-146c-0.3-4.5-1.2-8.9-1.9-13.3
	c-2.3-12-3.2-24.4-6.2-36.3c-0.4-1.6,0.3-2.1,1.9-1.5c4,1.6,8,3.2,12,4.8l1.3,0.6l5.8,1.6l0.8-3.1c-7.2-3.7-8.4-10.2-8.6-17.4
	c-0.3-7.6-0.6-15.2-2.2-22.7c-0.2-0.8-0.3-1.9,0.8-2c1.5-0.3,1.1,1.1,1.4,2c2.4,8.5,5,16.9,7.4,25.4c0.5,1.6,0.5,3.6,2.6,3.6
	s1.7-2.1,2.1-3.4c1-3.3,1.8-6.6,2.7-10h2c0,7.9,0,15.8,0,23.7c0,0.2-0.8,0.4-1.2,0.6c-2.9,3.2-2.2,5.1,1.9,6.2
	c2.9,0.7,5.7,1.7,8.6,2.4c0.9,0.2,2,1,2.7,0s1-2.4,0-3.2c-2.5-2-2-4.8-2.1-7.3c-0.8-16.3-1.5-32.5-2.5-48.8
	c-0.2-3.1-0.1-5.5,3.7-6.1c1.3-0.2,2.8-0.8,2.3-2.6c-0.4-1.5-1.8-1.2-2.9-1.3c-4.1-0.3-8.4-0.1-12.1-2.3c-1.1,0.3-2.5-1-3.3,0.2
	c-1,1.5,0.4,2.5,1.3,3.3c1.9,1.8,1.7,3.6,1,5.8c-2.2,7.4-4.2,15-7.2,22.6c-2.3-7.7-4.5-15.3-6.7-23c-0.6-1.9-1-3.8-1.4-5.8
	c-0.3-1.5-2.1-3.7,1.7-3.3c1.3,0.2,1.2-1.3,1.4-2.2c0.3-1.5-0.7-2.1-1.9-2.3c-5.2-0.9-10.4-2.3-15.4-4c-2.5-0.9-2.3,0.6-1.9,2.3
	c0.6,2.8,3.1,3.8,5.2,5c2.1,1,3.5,3.1,3.4,5.5C69,92.1,70,100,69.6,108c0.1,0.1,0.2,0.3,0.1,0.4c0,0,0,0.1-0.1,0.1
	c0.6,1.1,0.8,2.3,0.4,3.5c0.6,6.8,0.9,13.5,1.7,20.3c0.5,3.7-2.6,2.8-4.1,3.5c-1.3,0.6-3.4,1-3.8-1.6c-2.1-14-4.3-28-6.4-42.1
	c-1.6-9.6-3.9-19.2-4.5-28.9c-0.3-6.3,3.3-12.3,6.2-18c5.6-2.9,12-3.6,18.1-2.1c34.1,8.9,68.8,15.6,103.8,19.8
	c21.8,2.7,43.6,5.1,65,6.1c-6.9,23.6-3.4,47.7-4.4,71.4c-1.6,39-2,78-2.5,117.1c-0.3,22.9,3.1,45.7,4.6,68.6
	c0.7,11.6,1.7,23.2,2.6,34.8h10.4c-0.5-5.3-1-10.6-1.5-15.9c-0.4-3.4,0.6-5.7,3.4-7.5c2-1.3,3.8-2.7,5.4-4.4
	c3.3-3.5,6.5-4.8,10.1-0.4c0.7,0.9,2,1.7,3,0.7c5.3-5.4,12-7.1,19.2-7.4c0.2,0,0.4-0.1,0.6-0.2v-0.1c0.1,0,0.1,0,0,0.1
	c0,11.7,0,23.5,0,35.2h9.1c0,0,3.2-68,4.3-102.6c0.5-15.2-1.3-30.6-2.2-45.9c-2-36.4-4-72.8-6.1-109.2c-0.1-2.3,0.2-4.7,0.9-6.9
	c-0.1-4.9,1-9.2,4.6-13c4.4-4.5,8.3-9.3,12.4-14c0.3-0.6,0.6-1.1,1.2-1.2c0.4-0.4,0.7-0.8,1.1-1.2l-0.2,0.2l1-1.2l-0.1-0.2
	c13.5-14.7,23.9-31.8,35-48.3c3.5-5.2,9.2-6.1,14.1-9.2c1.2,5.8,3.4,10.8,3.6,16.3c-0.1,5.4-0.8,10.7-2,16
	c-1.9,16.7-3.7,33.3-5.6,50c-0.1,1.5-0.7,2.9-1.7,4c1,8.9-1.3,17.5-2.2,26.2c-1.6,15.4-3.6,30.7-5.5,46.1c-0.6,5.1-2.5,9.6-7.1,12.5
	c-4.9,5-10.4,9.2-16.6,12.5c-2.8,1.6-6,3-6.5,6.9c-0.5,3.5-1.2,6.9-5.9,7.2c-1.3,0.1-1.9,1.2-1.7,2.5v9.4
	c5.6-5.4,12.2-8.8,15.3-16.3c2-4.8,8-4.5,12.3-6.4l6.7-9.7l1,0.2c-0.7,5.9-1.3,11.8-2.3,17.7c-0.3,2-2.3,3.1-4.2,4
	c-4.2,5-10.1,7.4-15.3,11c-1.5,1-3.3,1.8-3.5,3.9c-0.5,4.2-0.9,8.3-6.6,8.8c-1.8,0.1-1.4,2-1.4,3.3c0,2.5,0,5,0,8.3
	c5.4-5.1,12.5-7.9,15-15.4c1.9-5.5,7.6-4.5,11.4-6.6l3.1-2.1c0.8,11.3-0.6,22.4-1.4,33.5c-0.3,7.8-0.7,15.6-0.9,23.4
	c-0.1,1.7-0.9,3.2-2.2,4.2c-6.4,6.3-13.7,11.7-21.6,16c-1.8,1-3.2,2.1-3.5,4.4c-0.5,3.8-1,7.7-6.2,8c-1.5,0.1-1.5,1.5-1.6,2.7
	c-0.1,2.8-0.2,5.5-0.5,9.9c5.8-6,12.8-8.6,15.2-16c0.5-1.5,1-3.2,2.9-3.8c7.2-2,13.8-4.8,16.2-14.2c2.2,4.4,1.2,7.5,1.5,10.5
	c0.1,1.3-0.2,2.7,0.1,4c2.9,13.4-4.8,21.1-14.7,27.7c-2.4,1.8-4.9,3.4-7.6,4.8c-4.4,2-6.8,4.9-7.2,9.8c-0.1,1-0.1,2.8-1.4,3
	c-8.4,1.5-5,7.9-5.5,12.9c5.2-5.2,12.9-7.7,15-15.8c0.7-2.7,3.1-3.2,5.3-4c4.5-1.6,9.2-3,11.4-8.1c0.8-1.8,1.9-4.5,3.9-3.9
	c2.5,0.8,0.8,3.7,1.1,5.6c0.6,7.2,1.4,14.5,0.1,21.7c-0.2,2.4-0.3,4.7-0.5,7h11.8c-0.9-15.8-1.9-31.6-2-47.4
	c-0.1-16.6,0.9-33.3,2.1-49.9c3.9-51.8,9.2-103.5,14.1-155.2c2.2-23.4,4.2-46.8,6.5-70.2c0.2-2.6,2.2-7.8,2.2-7.8v-8.5
	c-1.4-1.3-0.8-2.7,0-4L385.2,14.7z M291.2,316.3c-2.6-1.4-2.5-6.5-5.7-5.7c-2.2,0.5-3.8,3.9-5.4,6.3c-2.7,4.2-5.6,6.1-10.2,2.6
	c-2.6-2-4.8-0.9-6.9,1.3c-2.6,2.7-5.4,5.2-8.3,8c-3.7-9.6-0.9-16.5,7.9-21.1c1.9-1,2.9,0.2,3.9,1.2c3.1,3,6,3,9,0
	c3.5-3.6,8.6-5.4,13.6-4.8c3.7,0.4,5.9-2.8,9.2-4C300.5,307.9,296.6,312.4,291.2,316.3L291.2,316.3z M297.8,287.7
	c-1.9,1-3.7,2.2-5.4,3.6c-3.2,2.6-5.8,3.5-7.8-1.4c-1.3-3.2-3.1-2.9-5-0.2c-0.8,1.2-1.8,2.4-2.7,3.6c-5,6.5-5.1,6.8-12.7,3.5
	c-5-2.2-6.1,3.1-10.1,4.1v-16c0-1.6,1.2-2.3,2.2-3.1c1.7-1.3,3.8-2.3,5.2-3.9c3.3-3.6,6.4-4.3,10.1-0.7c1.8,1.7,3.6,1.8,5.7,0
	c5-4.4,10.7-7.4,17.7-6.6c2,0.2,3.2-1.5,5-1.7c0,5.2,0,10.3,0,15.4C300,285.7,299.1,287.1,297.8,287.7L297.8,287.7z M292,259
	c-2-0.2-2.7-2.3-3.8-3.7c-1.9-2.5-3.4-2.7-5.2,0c-0.5,0.8-1.4,1.4-1.9,2.3c-3.8,6-8.2,9.9-15.6,5.4c-1.9-1.1-3.4-0.3-4.9,1
	c-1.9,1.5-3.5,3.5-6.5,4.6c0-4.9-0.2-9.5,0.1-14c0.2-2.6,7.4-7,10.8-6.2c5,1.1,8.6-0.9,12.1-4c1.1-1,2.2-2.4,3.8-2.2
	c7.2,1.3,12.3-2.4,17.7-8.7c0.6,6.6,1,11.3,1.4,16.1C300,251.2,293.4,259.2,292,259z M258.6,186.7c1.9-1.3,3.7-2.9,5.3-4.5
	c3-3,5.9-4.8,9.3-0.6c1.6,2,3.3,1.1,5.2-0.1c2.7-1.8,4.5-5.1,8.4-4.6c7-0.5,7-0.5,7.6,6.2c0.3,3.3,0.4,6.6,0.5,9.9l0.1,1.8l0.5,5.1
	c0.7,6.8,1.4,13.6,2,20.4c0.4,4.4-7.1,11.7-11.3,10.5c-5.8-1.6-10.3-0.8-14.1,3.9c-1.2,1.5-2.7,1.9-4.3,0.6
	c-4.6-3.6-8.9-3.8-12.1,1.8c-2.1-1.3-1.2-3-1.2-4.3c0.1-12.6,0.4-25.3,0.4-38C254.8,191.3,255.6,188.7,258.6,186.7L258.6,186.7z
	 M255.8,155c0.1-2.4,3-5.1,4.6-3.3c4.8,5.3,8.4,2.6,12.4-0.5c0.9-1,1.9-2.2,3.3-2c6.2,1.1,10.9-1.3,14.1-6.9l1.1,0.6
	c0.4,6.2,1.4,12.4,1,18.5c-0.1,2.4-1.8,6.9-6.7,4c-2.4-1.4-3.6,1.9-5.8,1.9c-2.9,3.6-6.1,4.9-10.1,1.7c-3-2.4-5.3-1.5-7.6,1.2
	c-1.8,2.3-4,4.2-6.6,5.6C255.6,168.5,255.4,161.8,255.8,155z M340.8,26.8c-2.1,4-4.7,7.8-7.7,11.2c-8.5,14.6-21.7,25-32.8,37.3
	c-0.4,0.5-1,0.9-1.6,1.1c-8.1,1.7-8.4,7.5-8.1,14.2c0.4,11.3-0.1,22.6,0.2,33.9c0.2,4.8-1.3,7.6-5.4,10s-7.4,5.3-10.1-1.3
	c-0.8-2-1.9-1.9-3.1-0.1c-1.6,2.5-3.4,4.9-5.1,7.3c-0.3,1.2-0.9,2.2-2.3,2.2c-4.1,0-9-5-8.9-9.1s-0.3-8,0.8-11.9
	c0.7-15.8,1.4-31.6,2.1-47.3c0.3-7.4-4.7-13-12.1-13.8c-41.3-4.6-82.8-7.5-123.9-13.6c-11.6-1.7-23.4-2.6-35-4.8l-7.3-0.6
	c21.2-7.3,43.4-8.1,65.4-10.6c44.1-5,88.2-10,132.3-14.9c8-0.9,15.9-0.4,23.9-0.4c15.1,0,30.2,0,46.2,0
	C346.4,19.8,343.9,23.6,340.8,26.8z"/>
<path class="st0" d="M321.6,68.3l0.1-0.2h-0.3l0,0.1L321.6,68.3z"/>
<path class="st0" d="M296.6,326.3L296.6,326.3C296.7,326.3,296.8,326.3,296.6,326.3z"/>
<path class="st0" d="M356.2,0.1c-2.4,0.2-3.9,0.4-3.9,0.4C353.5,0.4,355.1,1,356.2,0.1z"/>
<path class="st1" d="M133.3,319.5c1.6,4.5,2.5,7.8,1.1,11.8c-3.4,10-6.5,20-9.8,30.3h5.9c6.5-7.1,7.8-17.3,11.8-25.9
	c4.3,5.5,5.4,10.7,1.9,17c-1.5,2.9-2.9,5.8-4.1,8.8h18.6c-1.5-3.1-3-6.3-4.5-9.4c-9.2-18.3-18.2-36.6-27.2-55
	c-1.2-2.5-3.3-3.6-5.5-4.7c-5.6-2.8-11.2-5.5-16.1-9.8c-4.2-3.7-6.6-8.1-9.3-12.6c0.3,16.6,0.4,33.2,1.1,49.8
	c0.6,13.9,1.1,27.8,1.4,41.8h21.3C124.2,348,128.6,334.1,133.3,319.5z"/>
<path class="st2" d="M351,354.7c0.4-7.2-2.6-14.5-0.1-21.7c-0.2-2,1.4-4.9-1.1-5.6c-2-0.6-3.1,2.1-3.9,3.9
	c-2.2,5.1-6.8,6.5-11.4,8.1c-2.2,0.8-4.6,1.3-5.3,4c-2.1,8.1-9.8,10.6-15,15.8c0.4-5-2.9-11.4,5.5-12.9c1.3-0.2,1.3-1.9,1.4-3
	c0.4-4.8,2.9-7.8,7.2-9.8c2.7-1.4,5.2-3,7.6-4.8c9.9-6.6,17.6-14.3,14.7-27.7c-0.3-1.3,0-2.7-0.1-4c-0.3-3,0.6-6.1-1.5-10.5
	c-2.4,9.4-9.1,12.2-16.2,14.2c-2,0.5-2.4,2.3-2.9,3.8c-2.4,7.4-9.4,10.1-15.2,16c0.2-4.3,0.3-7.1,0.5-9.9c0.1-1.2,0-2.6,1.6-2.7
	c5.2-0.3,5.8-4.2,6.2-8c0.3-2.4,1.7-3.5,3.5-4.4c7.9-4.3,15.2-9.7,21.6-16c1.3-1,2.1-2.6,2.2-4.2c0.3-7.8,0.6-15.6,0.9-23.4
	c-0.6-10.5-1.2-20.9-1.8-31.4c-3.9,2.1-9.5,1.1-11.4,6.6c-2.5,7.5-9.6,10.3-15,15.4c0-3.4,0-5.8,0-8.3c0-1.3-0.4-3.1,1.4-3.3
	c5.7-0.4,6.1-4.6,6.6-8.8c0.3-2.1,2.1-2.9,3.5-3.9c5.2-3.6,11.1-6,15.3-11c-2.3-3.9-0.5-8.2-1.2-12.2c-4.3,1.8-10.3,1.5-12.3,6.4
	c-3.1,7.4-9.6,10.9-15.4,16.3c0-3.6,0-6.5,0-9.4c0-1.3,0.5-2.5,1.9-2.5c4.7-0.2,5.4-3.7,5.9-7.2c0.5-4,3.6-5.3,6.5-6.9
	c6.1-3.3,11.7-7.5,16.6-12.5c2.3-13.8,4.7-27.7,7-41.6s4.7-27.7,7-41.5c0.2-0.6,0.5-1.2,0.8-1.7c1-1.1,1.6-2.5,1.7-4
	c1.9-16.7,3.7-33.3,5.6-50c-4.1-0.8-6.4,1.1-9,4.3c-14.1,17.6-26.4,36.7-43,52.2c-6.8,6.3-6.6,6.6-14.8,1.3c-1.3-0.7-2.6-1.4-4-2
	c-0.7,2.2-1,4.6-0.9,6.9c2.1,36.4,4.1,72.8,6.1,109.2c0.8,15.3,2.7,30.6,2.2,45.9c-1.1,34.5-2.7,69.1-4.3,103.6h44.3
	C350.6,359.4,350.8,357,351,354.7z M323.6,134.4c2.6-0.2,3.2-2,3.4-4.1c0.5-4.4,3-7.1,6.7-9.2c4.1-2.4,8.1-5.1,12-8
	c7.5-5.3,11.7-12.8,15.1-21.5c4.6,6.5,1,12.5,0.6,18.5c-6.9,2.8-9.7,10-15.1,14.3c-0.8,0.6-1.8,1-2.8,1.1c-5.2,1.1-8.4,4.1-10.5,9.2
	c-2.3,5.5-8.6,7.3-13.2,12.6c0-3.6,0.1-5.7,0-7.9C319.7,136.7,320.3,134.6,323.6,134.4z"/>
<path class="st2" d="M333.1,38.5c-8.5,14.6-21.7,25-32.8,37.3c-0.4,0.5-1,0.9-1.6,1.1c-8.1,1.7-8.4,7.5-8.1,14.2
	c0.4,11.3-0.1,22.6,0.2,33.9c0.2,4.8-1.3,7.6-5.4,10s-7.4,5.3-10.1-1.3c-0.8-2-1.9-1.9-3.1-0.1c-1.6,2.5-3.4,4.9-5.1,7.3
	c-3.2-6.4-5.5-13.3-10.4-18.7c0.7-15.8,1.4-31.6,2.1-47.3c0.3-7.4-4.7-13-12.1-13.8c-41.3-4.6-82.8-7.5-123.9-13.6
	c-11.6-1.7-23.4-2.6-35-4.8c0.7-1.2,1.8-1.3,3-1.3c16.7-1,33.4-2,50.1-3c14.7-0.8,29.5-1,44.2-2.3c6.8-0.6,13.6-0.6,20.3-1.3
	c11.5-1.3,23.1-2,34.6-2.1c16.7,0,33.5,1,50.2,1.6c8,0.3,16,0.2,23.8,1.2C320.4,36.3,326.9,36.3,333.1,38.5z"/>
<path class="st3" d="M97.1,320c-0.7-16.6-0.8-33.2-1.1-49.8c-2.2-7.6-7.8-14-8.6-22.4c2.3,0,2,1.9,2.9,2.6c0.6-0.8,0.6-1.9,0.2-2.8
	c-5.6-18-9.9-36.4-15-54.5c-1.5-5.3-1.6-11.1-5.2-15.7c0.6,4.4,1.5,8.9,1.8,13.3c3.7,48.6,7.3,97.2,10.8,145.9
	c0.6,8.4,0.8,16.9,1.6,25.3h13.9C98.2,347.8,97.7,333.9,97.1,320z"/>
<path class="st4" d="M296.6,326.3L296.6,326.3C296.7,326.3,296.8,326.3,296.6,326.3z"/>
<path class="st4" d="M296.6,326.4c-0.2,0.1-0.4,0.2-0.6,0.2c-7.2,0.4-13.9,2-19.2,7.5c-1.1,1.1-2.3,0.2-3-0.7
	c-3.6-4.4-6.8-3.1-10.1,0.4c-1.6,1.7-3.4,3.1-5.4,4.4c-2.8,1.9-3.8,4.1-3.4,7.5c0.6,5.3,1.1,10.6,1.5,15.9h40.3
	C296.6,349.9,296.6,338.1,296.6,326.4z"/>
<path class="st4" d="M295,193.3l0.1,1.8c-1.6,1.9-2.3,3.7,0.5,5.1c0.7,6.8,1.4,13.6,2,20.4c0.4,4.4-7.1,11.7-11.3,10.5
	c-5.8-1.6-10.3-0.8-14.1,3.9c-1.2,1.5-2.7,1.9-4.3,0.6c-4.6-3.6-8.9-3.8-12.1,1.8c-2.1-1.3-1.2-3-1.2-4.3c0.1-12.6,0.4-25.3,0.4-38
	c0-3.5,0.8-6,3.7-8c1.9-1.3,3.7-2.9,5.3-4.5c3-3,5.9-4.8,9.3-0.6c1.6,2,3.3,1.1,5.2-0.1c2.7-1.8,4.5-5.1,8.4-4.6
	C288.8,182.9,291.6,188.3,295,193.3z"/>
<path class="st1" d="M333.1,38.5c-6.2-2.1-12.7-2.2-19-3c-7.9-1-15.9-0.9-23.8-1.2c-16.7-0.6-33.5-1.6-50.2-1.6
	c-11.6,0.1-23.2,0.8-34.7,2.1c-6.8,0.7-13.6,0.6-20.3,1.3c-14.7,1.3-29.4,1.5-44.2,2.3c-16.7,0.9-33.4,2-50.1,3
	c-1.2,0.1-2.3,0.1-3,1.3l-7.3-0.6c21.2-7.3,43.4-8.1,65.4-10.6c1.6,1.5,3.5,0.8,5.2,0.9c7.3,0.2,14.5-1.1,21.9-1.2
	c11.1-0.2,22.2-1.2,33.2-2c18-1.2,36-3.1,54-3.7c26.9-0.9,53.8,0.6,80.6,1.9C338.7,31.3,336.1,35.1,333.1,38.5z"/>
<path class="st1" d="M374,40.4c-4.1-0.8-6.4,1.1-9,4.3c-14.1,17.6-26.4,36.7-43,52.2c-6.8,6.3-6.6,6.6-14.8,1.3
	c-1.3-0.7-2.6-1.4-4-2c-0.1-4.9,1-9.2,4.6-13c4.4-4.5,8.3-9.3,12.4-14l1.5-1.2l-0.1,0.2l-0.2-0.2c0.6,0,1.1-0.5,1.1-1.1
	c0-0.1,0-0.1,0-0.2l-0.2,0.2c0.8,0,1.2-0.3,1-1.2l-0.1-0.2c2,1.3,3-0.5,4.2-1.5c7.4-6.1,14.9-12.1,22.3-18.2
	c7-5.7,14.9-10.6,15.5-21.1c0.1-1.8,1.5-2.9,3.6-2.4c2.4,0.6,4.8,1.2,7.2,1.9C375.8,29.7,375.2,35.1,374,40.4z"/>
<path class="st3" d="M340.8,27.3c-26.8-1.3-53.8-2.8-80.6-1.9c-18,0.6-36,2.5-54,3.7c-11.1,0.8-22.2,1.8-33.2,2
	c-7.3,0.1-14.6,1.4-21.9,1.2c-1.8,0-3.7,0.6-5.2-0.9c44.1-5,88.2-9.9,132.3-14.9c8-0.9,15.9-0.4,23.9-0.4c15.1,0,30.2,0,46.2,0
	C346.4,20.3,343.9,24,340.8,27.3z"/>
<path class="st5" d="M17,128l3.8,16c8-22.5,14.5-44.3,8.3-67.7c-2.8,2-3.1,6.6-6.2,8.8c0.3-4.9,3.7-8.8,4.6-13.5
	c0.2-1,0.9-1.8,1.1-2.8c1.4-10.6,8-16.1,18.4-17.9c-0.9,6.5-3.8,12.6-6.2,18.8c-2.9,7.4-4.6,14.8-4.1,22.8
	c0.9,15.2-1.2,30.2-2.8,45.3c-0.3,3-2,5.3-3.1,7.8c-3.4,7.5-7.1,15-10.7,22.5c-0.5-0.3-0.9-0.4-1-0.6c-0.9-2.5,0.9-6.6-2.1-7.2
	c-2.1-0.4-4.8,2.4-8.6,4.5C12.2,152.1,14.2,140,17,128z"/>
<path class="st2" d="M58.7,45.2c0.4,0.3,0.9,0.6,1.1,1c4.1,12,14.4,18.1,23.5,25.5c3.1,2.5,7.2,4.2,8.7,8.5c-1.1,0.3-2.5-1-3.3,0.2
	c-1,1.5,0.4,2.5,1.3,3.3c1.8,1.8,1.7,3.6,1,5.8c-2.2,7.5-4.2,15-7.2,22.7c-2.2-7.7-4.5-15.4-6.7-23.1c-0.6-1.9-1-3.9-1.4-5.8
	c-0.3-1.5-2.1-3.7,1.7-3.3c1.3,0.2,1.2-1.3,1.4-2.2c0.2-1.5-0.7-2.1-1.9-2.3c-5.2-0.9-10.4-2.3-15.4-4c-2.5-0.9-2.3,0.7-1.9,2.3
	c0.6,2.8,3.1,3.8,5.2,5c2.1,1,3.5,3.1,3.4,5.5c0.4,7.9,1.4,15.9,1.1,23.9c-1.8-1.1-1.7-3.2-2-4.9c-1.2-5.8-5.4-8.6-10.1-11.1
	c-1.6-9.7-3.8-19.3-4.5-29C52.2,57,55.9,51,58.7,45.2z"/>
<path class="st4" d="M253.8,300.5v-16c0-1.6,1.1-2.3,2.2-3.1c1.7-1.3,3.7-2.3,5.2-3.9c3.2-3.6,6.4-4.3,10-0.7c1.8,1.7,3.6,1.8,5.6,0
	c5-4.4,10.6-7.4,17.6-6.6c2,0.2,3.2-1.5,5-1.7c0,5.2,0,10.3,0,15.4c0,1.5-0.9,2.9-2.3,3.5c-1.9,1-3.7,2.2-5.4,3.6
	c-3.2,2.6-5.8,3.5-7.7-1.4c-1.3-3.2-3.1-2.9-4.9-0.2c-0.8,1.2-1.8,2.4-2.7,3.6c-5,6.5-5.1,6.8-12.6,3.5
	C258.8,294.2,257.9,299.5,253.8,300.5z"/>
<path class="st4" d="M298.6,233.5c0.6,6.6,1,11.3,1.4,16.1c0.1,1.7-6.5,9.6-8,9.4c-2-0.2-2.7-2.3-3.8-3.7c-1.9-2.5-3.4-2.7-5.2,0
	c-0.5,0.8-1.4,1.4-1.9,2.3c-3.8,6-8.2,9.9-15.6,5.4c-1.9-1.1-3.4-0.3-4.9,1c-1.9,1.5-3.5,3.5-6.5,4.6c0-4.9-0.2-9.5,0.1-14
	c0.2-2.6,7.4-7,10.8-6.2c5,1.1,8.6-0.9,12.1-4c1.1-1,2.2-2.4,3.8-2.2C288.1,243.5,293.2,239.8,298.6,233.5z"/>
<path class="st3" d="M358.2,17.2c-11.1,16.5-21.4,33.6-34.9,48.3c2,1.3,3-0.5,4.2-1.5c7.4-6.1,14.8-12.2,22.2-18.2
	c7-5.7,14.9-10.6,15.5-21.1c0.1-1.8,1.5-2.9,3.6-2.4c2.4,0.6,4.8,1.2,7.2,1.9c-0.2-5.5-2.4-10.6-3.6-16.3
	C367.4,11.1,361.7,12,358.2,17.2z"/>
<path class="st4" d="M298.3,300.2c2.2,7.7-1.8,12.2-7.1,16.1c-2.6-1.4-2.5-6.5-5.7-5.7c-2.2,0.5-3.8,3.9-5.4,6.3
	c-2.7,4.2-5.6,6.1-10.2,2.6c-2.6-2-4.8-0.9-6.9,1.3c-2.6,2.7-5.4,5.2-8.3,8c-3.7-9.6-0.9-16.5,7.9-21.1c1.9-1,2.9,0.2,3.9,1.2
	c3.1,3,6,3,9,0c3.5-3.6,8.6-5.4,13.6-4.8C292.8,304.5,295,301.4,298.3,300.2z"/>
<path class="st4" d="M279.8,167.3c-2.9,3.6-6.1,4.9-10.1,1.7c-3-2.4-5.3-1.5-7.6,1.2c-1.8,2.3-4,4.2-6.6,5.6
	c0-7.2-0.2-13.9,0.1-20.7c0.1-2.4,3-5.1,4.6-3.3c4.8,5.3,8.4,2.6,12.4-0.5C275,156.6,279,161.3,279.8,167.3z"/>
<path class="st1" d="M57.1,92.3c4.7,2.5,9,5.3,10.1,11.1c0.3,1.6,0.2,3.7,2,4.9c0.1,0.1,0.2,0.3,0.1,0.4c0,0,0,0.1-0.1,0.1
	c-0.6,1.2-0.4,2.6,0.4,3.5c0.6,6.8,0.9,13.6,1.7,20.3c0.5,3.8-2.6,2.8-4.1,3.5c-1.3,0.6-3.4,1-3.8-1.6
	C61.4,120.4,59.2,106.4,57.1,92.3z"/>
<path class="st2" d="M92.3,143.4c-2.5-1.4-2.4-4.6-4.6-6.6c-1.9,1.9-1.7,4.4-2,6.6c-7.2-3.6-8.3-10.2-8.6-17.4
	c-0.3-7.6-0.6-15.2-2.2-22.6c-0.2-0.8-0.3-1.9,0.8-2c1.5-0.2,1.1,1.1,1.4,2c2.4,8.5,5,16.9,7.4,25.4c0.5,1.6,0.5,3.6,2.6,3.6
	s1.7-2.1,2.1-3.4c1-3.3,1.8-6.6,2.7-10h1.7c0,7.9,0,15.9,0,23.8C93.5,143.1,92.8,143.2,92.3,143.4z"/>
<path class="st2" d="M279.8,167.3c-0.9-6-4.8-10.7-7-16.1c0.9-1,1.9-2.2,3.3-2c6.2,1.1,10.9-1.3,14.1-6.9l1.1,0.6
	c0.4,6.2,1.4,12.4,1,18.5c-0.1,2.4-1.8,6.9-6.7,4C283.2,164,282,167.3,279.8,167.3z"/>
<path class="st1" d="M351.8,179.2c2.3-13.8,4.7-27.7,7-41.6s4.7-27.7,7-41.5c0.2-0.6,0.5-1.2,0.8-1.7c1,8.9-1.3,17.5-2.2,26.2
	c-1.6,15.4-3.6,30.7-5.5,46.1C358.2,171.8,356.4,176.3,351.8,179.2z"/>
<path class="st4" d="M256.7,122.2c4.9,5.4,7.1,12.4,10.4,18.7c-0.3,1.2-0.9,2.2-2.3,2.2c-4.1,0-9-5-8.9-9.1S255.6,126.1,256.7,122.2
	z"/>
<path class="st1" d="M349.9,207.4c-2.3-3.9-0.5-8.2-1.2-12.2l6.7-9.7l1,0.2c-0.7,5.9-1.3,11.8-2.3,17.7
	C353.8,205.4,351.8,206.5,349.9,207.4z"/>
<path class="st1" d="M351.3,252c-0.6-10.5-1.2-20.9-1.8-31.4l3.1-2.1C353.4,229.9,352,240.9,351.3,252z"/>
<path class="st2" d="M295,193.3c-3.4-5-6.2-10.4-8.1-16.1c7-0.5,7-0.5,7.6,6.2C294.7,186.7,294.8,190,295,193.3z"/>
<path class="st2" d="M85,146.6c0,4.9,0,9.9-1.8,15.8c-1.5-6.5-4.3-11.6-4-17.5L85,146.6z"/>
<path class="st4" d="M351,354.7c0.4-7.2-2.6-14.5-0.1-21.7C351.5,340.2,352.3,347.4,351,354.7z"/>
<path class="st2" d="M295.6,200.2c-2.8-1.4-2.1-3.2-0.5-5.1L295.6,200.2z"/>
<path class="st2" d="M69.7,112.3c-0.9-1-1-2.4-0.4-3.5C69.9,109.8,70,111.1,69.7,112.3z"/>
<path class="st2" d="M79.2,145l-1.2-0.6L79.2,145z"/>
<path class="st3" d="M321.7,68l-1.5,1.2C320.5,68.7,320.9,68,321.7,68z"/>
<path class="st3" d="M322.5,66.8c0.1,0.6-0.3,1.2-0.9,1.3c-0.1,0-0.1,0-0.2,0L322.5,66.8z"/>
<path class="st3" d="M323.4,65.8c0.2,0.9-0.2,1.2-1,1.2L323.4,65.8z"/>
<path class="st0" d="M217.4,354.2c-1.6-19.2-4.4-38.4-4.4-57.8c0.1-24.5,1.1-49,1.6-73.4c0-1.6,1.2-4.1-1.2-4.9
	c-10.8-3.6-20.5-10.4-32.4-11c-31.3-1.5-62.4-4-92.8-12.4c-1.3-0.4-2.7-1-4.5-0.1c5.1,3,9.8,5.7,14.3,8.6c2,1.2,4.2,2,6.5,2.2
	c31,3.8,62.3,5.8,92.3,15.5c3.7,1.2,5.3,2.3,5.3,6.6c-0.4,44.8,1.2,89.5,3.9,134.1h11.9C217.8,359.2,217.6,356.7,217.4,354.2z"/>
<path class="st0" d="M132.8,285.9c-1.3-2.3-2-4.4-1.2-7c3.2-10.7,1.4-21-2.4-31.1c-2.8-7.4-8.1-13.3-13.1-19.2
	c-0.3-0.3-1.2-0.1-2-0.2c2.4,5.1,4.5,9.9,7,14.5c2.6,4.8,4,10.3,4,15.8c0,6.1-2.9,11.4-6.2,15.9c-1.9,2.6-6.2-0.4-9.4-0.3
	c-1.5,0-3-0.5-4.4-0.6c-1.9,0-3.5-1.1-4.2-2.9c-3.4-6.8-6.9-13.6-10.4-20.4c-0.9-0.7-0.7-2.6-2.9-2.6c0.8,8.4,6.4,14.8,8.6,22.4
	c2.7,4.5,5.1,9,9.3,12.6c4.9,4.3,10.5,7,16.1,9.8c2.2,1.1,4.3,2.2,5.5,4.7c9,18.4,18,36.8,27.2,55c1.6,3.1,3,6.2,4.5,9.4H176
	C161.5,336.5,147.2,311.1,132.8,285.9z"/>
<path class="st0" d="M178.9,234.4c-1.9-1.6-3-1.1-4,1.2c-6.9,16.6-14.1,33-20.8,49.7c-1.9,4.7-4.7,7.7-9.9,10.3
	c3.7-9.6,7.1-18.3,10.5-27.1c3.6-9.3,7.4-18.5,10.9-27.8c1.6-4,4.1-7.6,7.3-10.6c1.2-1.4,3.1-1.9,4.8-1.3c7,1.5,7.1,1.4,7.1,8.7
	c0,3.8-0.2,7.7,0.1,11.5c0.2,3.4-0.4,6-3.4,8.1c-3.3,2.4-2,6.5-2.2,9.8c-0.3,4.2-1.1,7.7-4.5,10.5c-3.1,2.6-1.7,6.3-1.6,9.4
	c0.3,4.8-1,7.9-5.3,10.5c-7,4.2-8.1,12.2-3.3,18.8c1,1.4,2,2.4,0.3,4.2c-1.6,1.6-2.5,0.7-3.8-0.1c-3.1-1.8-6.4-3-7.5-7.3
	c-1-3.8-2.1-6.3,3.4-5.6c1.7,0.2,2.1-1.4,2.5-2.6c1.2-3.5,2.4-6.9,3.6-10.4c0.4-1.2,0.6-2.9,1.9-3.3c6.7-2.1,4.8-7,3.1-11.1
	s-0.3-6.4,3-8c2.4-1,3.7-3.5,3.2-6c-0.2-1.3,0.1-2.7-0.1-4c-0.9-5.6,0.7-10.1,5.8-12.9c2.9-4.3,1.5-8.8,0.9-13.3
	C181,234.9,179.6,234.7,178.9,234.4z"/>
<path class="st0" d="M134.4,331.4c1.4-4,0.5-7.4-1.1-11.8c-4.7,14.6-9.1,28.4-13.5,42.2h4.8C127.8,351.4,130.9,341.3,134.4,331.4z"
	/>
<path class="st0" d="M144.1,352.9c3.4-6.3,2.4-11.5-1.9-17c-3.9,8.6-5.3,18.7-11.8,25.9h9.6C141.2,358.7,142.6,355.7,144.1,352.9z"
	/>
<path class="st0" d="M106.1,263.4c-9.9-7.5-8.8-18.8-12.2-28.1C98.5,244.1,107.4,251,106.1,263.4z"/>
<path class="st0" d="M116.1,257.4c-7.2-7.5-8.2-17.3-11.7-25.9C108.9,239.7,118.3,245.4,116.1,257.4z"/>
<path class="st2" d="M178.9,234.4c0.7,0.3,2.1,0.5,2.1,0.9c0.6,4.5,2.1,9.1-0.9,13.3C179.7,243.9,181,239,178.9,234.4z"/>
<path class="st0" d="M319.9,147.4c0-3.6,0.1-5.7,0-7.9c-0.2-2.8,0.5-4.9,3.8-5.1c2.6-0.2,3.2-2,3.4-4.1c0.5-4.4,3-7.1,6.7-9.2
	c4.1-2.4,8.1-5.1,12-8c7.5-5.3,11.7-12.8,15.1-21.5c4.6,6.5,1,12.5,0.6,18.5c-6.9,2.8-9.7,10-15.1,14.3c-0.8,0.6-1.8,1-2.8,1.1
	c-5.2,1.1-8.4,4.1-10.5,9.2C330.8,140.4,324.4,142.2,319.9,147.4z"/>
<path class="st0" d="M384.8,19.3v4C384.8,23.3,382.7,21.9,384.8,19.3z"/>
<path class="st0" d="M384.8,31.3c0,0-2.6,24.7-3.8,29.7s1.9-28.2,1.9-28.2"/>
<path class="st6" d="M64.3,94.7c0.7,2.4,3.3,4,5.7,3.8"/>
<path class="st6" d="M100.1,67c5.2,1.1,10.7-0.3,15.7,1.2c3.1,0.9,5.7,2.9,8.6,4.4"/>
<path class="st1" d="M243.6,327.2c-1.4-22.9-4.9-45.8-4.6-68.8c0.5-39.1,0.9-78.3,2.5-117.4c1-23.8-2.5-47.9,4.4-71.6
	c-21.4-1-43.2-3.5-65-6.2c-35-4.2-69.7-10.9-103.9-19.9C71,42,64.5,42.7,59,45.6c0.4,0.3,0.9,0.6,1.1,1c4.1,12,14.4,18.1,23.5,25.5
	c3.1,2.5,7.2,4.2,8.7,8.5c0.6,0.4,1.3,0.7,2,0.9c-0.1,0-0.2,0-0.3,0.1c-2.1-1.2-4.5-1.9-7.2-2.1c-2.4-0.1-3.4,0.3-5-1.5
	c-1.2-1.4-2-2.7-3.7-3.6c-1.3-0.6-2.8-0.8-4.2-0.9c-3.3-2.9-8-4.2-12.5-4.4c-2-0.1-4.5,1.6-4.8,3.7c-0.7,4.4,1.1,8.3,5.7,9.6
	c2,0.6,4.2,0.5,6.2,0.7c0.1,0.2,0.2,0.4,0.3,0.7c1,2.9,1.8,5.2,3.8,7.7c2.6,3.3,5.5,6.4,8.1,9.8c1.8,2.4,4.3,5.1,5,8.1
	c0.9,3.8-0.3,8.7-0.4,12.6c-0.1,3.8,0,7.6,0.1,11.4c0.1,3.9,0.2,7.9,0.4,11.8c-0.1,0.6-0.3,1.1-0.4,1.7c0,4.9,0,9.9-1.8,15.8
	c-1.5-6.5-4.3-11.6-4-17.5l-1.2-0.6c-4-1.6-8-3.2-12-4.8c-1.6-0.7-2.3-0.2-1.9,1.5c3.1,11.9,4,24.2,6.2,36.2
	c3.6,4.6,3.7,10.5,5.2,15.7c5.1,18.1,9.4,36.5,15,54.5c0.4,0.9,0.3,2-0.2,2.8c3.5,6.8,7,13.6,10.4,20.4c0.7,1.7,2.3,2.9,4.2,2.9
	c1.5,0,3,0.6,4.4,0.6c3.2-0.1,7.6,2.9,9.4,0.3c3.3-4.5,6.2-9.8,6.2-15.9c0-5.5-1.4-10.9-4-15.8c-2.5-4.6-4.6-9.5-7-14.5
	c0.8,0.1,1.7-0.1,2,0.2c5,6,10.2,11.8,13.1,19.2c3.9,10.1,5.7,20.4,2.4,31.1c-0.8,2.6-0.1,4.7,1.2,7c14.4,25.3,28.7,50.6,43.1,75.9
	h30.2c-2.7-44.7-4.3-89.4-3.9-134.1c0-4.3-1.6-5.4-5.3-6.6c-30-9.7-61.3-11.7-92.3-15.5c-2.3-0.2-4.5-1-6.5-2.2
	c-4.6-2.9-9.3-5.6-14.4-8.6c1.9-0.9,3.2-0.3,4.5,0.1c30.4,8.4,61.5,11,92.8,12.4c11.9,0.6,21.6,7.4,32.4,11c2.4,0.8,1.2,3.2,1.2,4.9
	c-0.5,24.5-1.5,49-1.6,73.4c-0.1,19.3,2.7,38.5,4.4,57.8c0.2,2.5,0.4,5,0.7,7.5h27.9C245.3,350.5,244.3,338.9,243.6,327.2z
	 M154.9,268.9c3.6-9.3,7.4-18.5,10.9-27.8c1.6-4,4.2-7.6,7.4-10.6c1.2-1.4,3.1-1.9,4.8-1.3c7,1.5,7,1.4,7,8.7
	c0,3.8-0.2,7.7,0.1,11.5c0.2,3.4-0.4,6-3.4,8.1l0,0c-3.3,2.4-2,6.5-2.2,9.8c-0.3,4.2-1.1,7.7-4.5,10.5c-3.1,2.6-1.7,6.3-1.5,9.4
	c0.3,4.8-1,7.9-5.3,10.5c-7,4.2-8.1,12.2-3.3,18.8c1,1.4,2,2.4,0.3,4.2c-1.5,1.6-2.5,0.7-3.8-0.1c-3.1-1.8-6.3-3-7.5-7.3
	c-1-3.8-2.1-6.3,3.4-5.6c1.7,0.2,2-1.4,2.5-2.7c1.2-3.5,2.4-6.9,3.6-10.4c0.5-1.2,0.6-2.9,1.9-3.3c6.7-2.2,4.8-7,3.1-11.1
	s-0.3-6.4,3-8c2.4-1,3.7-3.5,3.2-6c-0.2-1.3,0.1-2.7-0.1-4c-0.9-5.6,0.7-10.1,5.8-12.9c-0.4-4.7,0.9-9.6-1.3-14.2
	c-1.9-1.6-3-1.1-4,1.2c-6.9,16.6-14.1,33-20.8,49.7c-1.9,4.7-4.7,7.7-9.9,10.3C148.2,286.4,151.5,277.7,154.9,268.9z M116.3,257.8
	L116.3,257.8c-7.3-7.5-8.2-17.3-11.7-25.9C109.1,240.1,118.5,245.8,116.3,257.8z M106.3,263.8L106.3,263.8
	c-9.9-7.5-8.8-18.8-12.2-28.1C98.7,244.5,107.6,251.4,106.3,263.8z M101.6,100c0.1,1.4,0.2,2.8,0.2,4.2c-0.1,0.2-0.1,0.4-0.2,0.6
	c-0.7-1.4-1.6-2.7-2.3-4.1C100.2,100.6,100.9,100.4,101.6,100z M83.6,89.5c1.6,0.1,3.1,0,4.4,0.4c-0.1,1.7-0.1,3.4-0.1,5.1
	C86.6,93.1,85.1,91.3,83.6,89.5z M182.6,102.3c0.1-0.3,0.2-0.6,0.3-0.9c0.2,0.2,0.4,0.3,0.6,0.4C183.2,102,182.9,102.1,182.6,102.3z
	 M221.6,120.2c-0.5-0.3-1.1-0.5-1.6-0.7c0.6,0,1.2,0,1.8,0.1C221.7,119.7,221.6,119.9,221.6,120.2z"/>
<path class="st2" d="M95.5,82.3C90.9,76,83.6,71.3,77.2,67.2c-2.4-1.5-4.7-0.7-6.1,1c-3.1-1.1-6.2-1.6-9.3-1.1
	c-7.7,1.3-9.6,9.6-4.9,14.5c-1.3,1.6-1.7,3.8-0.6,5.8c0.5,0.8,1,1.7,1.4,2.5c0.1,0.2,0.2,0.5,0.4,0.7c2.2,3.6,5,7.2,6.7,11.1
	c1.7,3.8,1.8,8.1,2.5,12.2c0.9,4.9,2.4,9.7,4.3,14.4c0.7,2.8,1.8,5.5,2.6,8.3c2.6,8.9,3.9,18.1,5.2,27.2c0.7,5.1,8.1,4.4,9.5,0.2
	c1.7-0.7,3.1-2.1,3.4-4.3c1.2-9.5,2.4-19,3.6-28.4c1.1-8.5,3.5-16.9,3.6-25.4C99.5,97.7,100.4,89,95.5,82.3z"/>
<path class="st1" d="M109.2,98.4c-0.9-3.7,0.2-9,0.7-12.7c0.3-2.7-2.5-5-5-5c-3,0-4.7,2.3-5,5c-0.5,4.2-0.9,8.4-0.7,12.7
	c0.1,1.5,0.2,2.9,0.7,4.4c0.3,0.7,2.4,3,2.4,3.5c-0.6,6.4,9.4,6.4,10,0C112.7,102.8,109.8,100.8,109.2,98.4z"/>
<path class="st1" d="M79.7,141c-0.1-1.6-0.3-3.2-0.5-4.8c-0.3-2.3-1.1-4.7-0.5-7c1-4.3-3.3-6.9-6.5-6.1c-0.7-1.5-2.1-2.6-4.3-2.6
	c-4.9,0-6.1,5.9-3.4,8.6c-0.4,1.6-0.6,3.4-0.9,4.8c-0.6,2.7-0.2,6.3,2.1,8.1c1,0.8,2.1,1.2,3.3,1.5c0.2,0.1,0.5,0.2,0.8,0.3
	c0,0.1,0,0.1,0,0.2c0.1,6.5,9.5,6.3,10,0C79.9,143.1,79.9,142,79.7,141z"/>
<path class="st2" d="M87.3,148.6c-3-3.6-3.8-10.2-4.8-14.7c-1-4.3-1.9-8.5-3.1-12.7c0.7-1.1,1.1-2.5,1.1-4.2
	c-0.2-5.9-8.7-6.4-9.9-1.4c-1.5,1.2-2.2,3.2-1.7,5.2c3.1,11.1,3.7,25.8,11.3,34.9C84.3,160.6,91.4,153.5,87.3,148.6z"/>
<path class="st6" d="M228.5,230.8L40.7,204.4c-7.6-1.1-12.5-11-11-22.1l13.6-96.9c1.6-11.1,9-19.3,16.6-18.2l187.8,26.4
	c7.6,1.1,12.5,11,11,22.1l-13.6,96.9C243.6,223.7,236.2,231.8,228.5,230.8z"/>
<text transform="matrix(0.9903 0.1392 -0.1392 0.9903 81.1015 104.3974)"><tspan x="0" y="0" class="st7 st8">COMING</tspan><tspan x="22.5" y="51.6" class="st7 st8">SOON</tspan></text>
<rect x="135.2" y="108.7" class="st6" width="80.5" height="41.8"/>
<rect x="-40.8" y="-29.1" class="st6" width="205.9" height="355.6"/>
</svg>
