<svg xmlns="http://www.w3.org/2000/svg" viewBox="0 0 75.99 20.29"><defs><style>.a{fill:#fff;}</style></defs><path class="a" d="M7.13,4.19A1.88,1.88,0,0,1,8.47,6.07a2.07,2.07,0,0,1-.78,1.72,2.47,2.47,0,0,1-.92.45,5.33,5.33,0,0,1-1.3.14H0V8.19A.6.6,0,0,0,.29,8a.41.41,0,0,0,.09-.28V1A.37.37,0,0,0,.29.72.52.52,0,0,0,0,.57V.38H5.41A6.06,6.06,0,0,1,6.67.49a2.29,2.29,0,0,1,.83.4A1.93,1.93,0,0,1,8.21,2.5,1.76,1.76,0,0,1,7.13,4.19Zm-5-.63H5.19a1.66,1.66,0,0,0,1-.21.82.82,0,0,0,.31-.72.84.84,0,0,0-.29-.72,1.78,1.78,0,0,0-1-.21H2.12Zm0,3.5h3a2.37,2.37,0,0,0,1.19-.23A1,1,0,0,0,6.69,6a1,1,0,0,0-.41-.86,2.25,2.25,0,0,0-1.19-.23h-3Z" transform="translate(0 0)"/><path class="a" d="M12.07,5.11V7.77a.4.4,0,0,0,.09.27.6.6,0,0,0,.29.15v.19H10V8.19A.6.6,0,0,0,10.24,8a.4.4,0,0,0,.09-.27V1a.37.37,0,0,0-.09-.27A.52.52,0,0,0,10,.57V.38h5a7.91,7.91,0,0,1,1.45.1,2.72,2.72,0,0,1,.94.37,1.87,1.87,0,0,1,.69.83,2.58,2.58,0,0,1,.22,1.08c0,1.3-.73,2.06-2.18,2.29l1.56,2.21a4.68,4.68,0,0,0,.6.74.74.74,0,0,0,.46.19v.19H15.8V8.19q.3,0,.3-.21a1.52,1.52,0,0,0-.27-.51L14.21,5.11Zm0-1.32h2.7a7.88,7.88,0,0,0,.84,0,1.14,1.14,0,0,0,.45-.15.9.9,0,0,0,.45-.87.89.89,0,0,0-.45-.86,1.2,1.2,0,0,0-.45-.15,7.75,7.75,0,0,0-.84,0h-2.7Z" transform="translate(0 0)"/><path class="a" d="M24.17.24a4.66,4.66,0,0,1,3.32,1.13,3.94,3.94,0,0,1,1.3,3.06,4,4,0,0,1-.62,2.14,4.33,4.33,0,0,1-4,1.95,4.67,4.67,0,0,1-3.3-1.13,4.06,4.06,0,0,1-1-1.45,4.18,4.18,0,0,1-.3-1.57,4,4,0,0,1,.62-2.19A4.34,4.34,0,0,1,24.17.24Zm0,1.36a2.74,2.74,0,0,0-1.91.68,2.67,2.67,0,0,0-.9,2.1,2.69,2.69,0,0,0,.9,2.1,2.8,2.8,0,0,0,1.92.68,2.76,2.76,0,0,0,1.91-.68,2.59,2.59,0,0,0,.7-1A2.88,2.88,0,0,0,27,4.41a2.63,2.63,0,0,0-.91-2.13A2.8,2.8,0,0,0,24.18,1.6Z" transform="translate(0 0)"/><path class="a" d="M34.44,1.7V7.76a.41.41,0,0,0,.09.28.6.6,0,0,0,.29.15v.19h-2.5V8.19a.7.7,0,0,0,.3-.15.47.47,0,0,0,.08-.28V1.7H30.21a.4.4,0,0,0-.27.08.6.6,0,0,0-.15.29H29.6V0h.19A.64.64,0,0,0,30,.3a.4.4,0,0,0,.26.08h6.71A.44.44,0,0,0,37.2.3a.64.64,0,0,0,.15-.3h.19V2.07h-.19a.6.6,0,0,0-.15-.29.39.39,0,0,0-.28-.08Z" transform="translate(0 0)"/><path class="a" d="M45.34,4.88H40.73V7.77a.4.4,0,0,0,.09.27.6.6,0,0,0,.29.15v.19h-2.5V8.19A.6.6,0,0,0,38.9,8,.4.4,0,0,0,39,7.77V1A.37.37,0,0,0,38.9.72a.52.52,0,0,0-.29-.15V.38h2.5V.57a.6.6,0,0,0-.3.14.47.47,0,0,0-.08.28V3.57h4.61V1a.41.41,0,0,0-.08-.28A.52.52,0,0,0,45,.57V.38h2.49V.57a.56.56,0,0,0-.29.15.41.41,0,0,0-.08.27V7.77a.46.46,0,0,0,.08.27.65.65,0,0,0,.29.15v.19H45V8.19A.71.71,0,0,0,45.26,8a.46.46,0,0,0,.08-.27Z" transform="translate(0 0)"/><path class="a" d="M51.3,4.87V7.06h5.15A.46.46,0,0,0,56.72,7a.7.7,0,0,0,.15-.3h.19V8.75h-.19a.6.6,0,0,0-.15-.29.4.4,0,0,0-.27-.08H49.18V8.19A.6.6,0,0,0,49.47,8a.41.41,0,0,0,.09-.28V1a.37.37,0,0,0-.09-.27.52.52,0,0,0-.29-.15V.38h7.13a.4.4,0,0,0,.27-.09A.6.6,0,0,0,56.73,0h.19V2.07h-.19a.6.6,0,0,0-.15-.29.4.4,0,0,0-.27-.08h-5V3.59h3.25a.36.36,0,0,0,.27-.08A.6.6,0,0,0,55,3.22h.19v2H55A.65.65,0,0,0,54.82,5a.36.36,0,0,0-.27-.08Z" transform="translate(0 0)"/><path class="a" d="M60.7,5.11V7.77a.4.4,0,0,0,.08.27.65.65,0,0,0,.29.15v.19h-2.5V8.19a.64.64,0,0,0,.3-.15A.46.46,0,0,0,59,7.77V1a.41.41,0,0,0-.08-.27.56.56,0,0,0-.3-.15V.38h5A8,8,0,0,1,65,.48,2.59,2.59,0,0,1,66,.85a1.87,1.87,0,0,1,.69.83,2.58,2.58,0,0,1,.22,1.08c0,1.3-.72,2.06-2.17,2.29l1.55,2.21a4.68,4.68,0,0,0,.6.74.76.76,0,0,0,.47.19v.19H64.43V8.19q.3,0,.3-.21a1.64,1.64,0,0,0-.28-.51L62.83,5.11Zm0-1.32h2.69a7.88,7.88,0,0,0,.84,0,1.19,1.19,0,0,0,.46-.15.91.91,0,0,0,.44-.87.9.9,0,0,0-.44-.86,1.2,1.2,0,0,0-.45-.15,8,8,0,0,0-.85,0H60.7Z" transform="translate(0 0)"/><path class="a" d="M76,1.06,75,2.94l-.16-.1V2.75c0-.13-.11-.27-.34-.43a4.19,4.19,0,0,0-2.45-.72A3.59,3.59,0,0,0,71,1.75a1.28,1.28,0,0,0-.56.35.78.78,0,0,0-.22.51c0,.3.19.5.55.61A7.36,7.36,0,0,0,72,3.4l.92.09a7.72,7.72,0,0,1,1.32.24,3.13,3.13,0,0,1,.9.43,1.88,1.88,0,0,1,.63.76,2.13,2.13,0,0,1,.23,1,2.3,2.3,0,0,1-.54,1.5,3,3,0,0,1-1.53.88,6.34,6.34,0,0,1-1.66.22,7,7,0,0,1-3.13-.77,1.59,1.59,0,0,0-.4-.15.57.57,0,0,0-.24.13l-.17-.09.87-2,.17.08v.08a.62.62,0,0,0,.25.48,3.15,3.15,0,0,0,1.18.59,5.29,5.29,0,0,0,1.51.25,3,3,0,0,0,1.33-.27,1.18,1.18,0,0,0,.49-.38A.88.88,0,0,0,74.29,6a.58.58,0,0,0-.43-.57,5.28,5.28,0,0,0-1.2-.21l-.91-.1a11,11,0,0,1-1.28-.18,2.83,2.83,0,0,1-.75-.27,2,2,0,0,1-.84-.79,2.18,2.18,0,0,1-.27-1.09,2.22,2.22,0,0,1,.69-1.68A3.86,3.86,0,0,1,72.05.24a6.53,6.53,0,0,1,1.43.15A11.53,11.53,0,0,1,75.13,1a1.61,1.61,0,0,0,.41.13A.46.46,0,0,0,75.83,1Z" transform="translate(0 0)"/><path class="a" d="M9.22,19.68V12.91a.36.36,0,0,0-.08-.27.47.47,0,0,0-.29-.15V12.3h2.5v.19a.6.6,0,0,0-.3.14.47.47,0,0,0-.08.28v6.77a.41.41,0,0,0,.09.28.6.6,0,0,0,.29.15v.19H8.85v-.19A.6.6,0,0,0,9.14,20,.41.41,0,0,0,9.22,19.68Z" transform="translate(0 0)"/><path class="a" d="M15.67,14.82v4.86a.47.47,0,0,0,.08.28.65.65,0,0,0,.29.15v.19H13.69v-.19A.7.7,0,0,0,14,20a.47.47,0,0,0,.08-.28V12.91a.41.41,0,0,0-.08-.27.53.53,0,0,0-.3-.15V12.3h2.72v.19c-.17,0-.25.13-.25.26a.54.54,0,0,0,.16.32l4.42,4.58V12.91a.37.37,0,0,0-.09-.27.47.47,0,0,0-.29-.15V12.3h2.35v.19a.47.47,0,0,0-.29.15.36.36,0,0,0-.08.27v6.77a.41.41,0,0,0,.08.28.6.6,0,0,0,.29.15v.19H20.19v-.19c.17,0,.25-.12.25-.25s-.1-.22-.29-.41Z" transform="translate(0 0)"/><path class="a" d="M34.83,18H31.2l-.54,1.13a1,1,0,0,0-.11.37c0,.17.13.29.39.35V20H28.3v-.19a.67.67,0,0,0,.35-.16,1.54,1.54,0,0,0,.28-.46l2.95-6.14a1.25,1.25,0,0,0,.14-.47c0-.18-.12-.31-.34-.39V12h2.83v.19c-.23.07-.34.18-.34.35a.77.77,0,0,0,.11.38l3,6.17a2.2,2.2,0,0,0,.34.53.72.72,0,0,0,.4.19V20h-3v-.19q.39-.06.39-.36a.92.92,0,0,0-.12-.36Zm-.5-1.09L33,14.05,31.72,16.9Z" transform="translate(0 0)"/><path class="a" d="M41,16.77v2.65a.41.41,0,0,0,.08.28.56.56,0,0,0,.29.14V20h-2.5v-.19a.56.56,0,0,0,.3-.15.41.41,0,0,0,.08-.27V12.65a.47.47,0,0,0-.08-.28.64.64,0,0,0-.3-.15V12h5a7.84,7.84,0,0,1,1.45.11,2.42,2.42,0,0,1,.93.37,1.84,1.84,0,0,1,.69.82,2.64,2.64,0,0,1,.22,1.08c0,1.31-.72,2.07-2.17,2.29l1.55,2.21a4.43,4.43,0,0,0,.6.75.76.76,0,0,0,.47.18V20H44.7v-.19q.3,0,.3-.21a1.64,1.64,0,0,0-.28-.51L43.1,16.77Zm0-1.32h2.69a5.45,5.45,0,0,0,.84,0,1.37,1.37,0,0,0,.46-.14.91.91,0,0,0,.44-.87.91.91,0,0,0-.44-.87,1.7,1.7,0,0,0-.45-.15,8,8,0,0,0-.85,0H41Z" transform="translate(0 0)"/><path class="a" d="M53.58,20l-2.95-5.52v4.91a.41.41,0,0,0,.08.27.56.56,0,0,0,.3.15V20H48.66v-.19a.56.56,0,0,0,.29-.15.41.41,0,0,0,.08-.27V12.64a.46.46,0,0,0-.08-.27.65.65,0,0,0-.29-.15V12h3.08v.19a.33.33,0,0,0-.28.32.54.54,0,0,0,.09.27L53.73,17l2.21-4.07a.91.91,0,0,0,.14-.39c0-.16-.09-.25-.29-.27V12h3v.19a.7.7,0,0,0-.3.15.46.46,0,0,0-.08.27v6.78a.41.41,0,0,0,.08.27.6.6,0,0,0,.3.15V20h-2.5v-.19a.56.56,0,0,0,.29-.14.41.41,0,0,0,.08-.28V14.51Z" transform="translate(0 0)"/><path class="a" d="M67.8,12.71l-1,1.88-.17-.09a.34.34,0,0,0,0-.09c0-.14-.12-.28-.34-.43a4.15,4.15,0,0,0-2.45-.73,3.35,3.35,0,0,0-1.1.16,1.25,1.25,0,0,0-.56.35.73.73,0,0,0-.21.51c0,.3.18.5.54.61a10.69,10.69,0,0,0,1.21.18l.92.09a7.86,7.86,0,0,1,1.33.24,2.89,2.89,0,0,1,.9.43,2.11,2.11,0,0,1,.63.75,2.29,2.29,0,0,1,.23,1,2.26,2.26,0,0,1-.55,1.5,2.92,2.92,0,0,1-1.52.89,6.34,6.34,0,0,1-1.66.21,7,7,0,0,1-3.14-.76,1.76,1.76,0,0,0-.39-.15.47.47,0,0,0-.24.13l-.17-.09.87-2,.17.08v.07a.64.64,0,0,0,.25.49,3.23,3.23,0,0,0,1.18.59,5.21,5.21,0,0,0,1.51.24,3,3,0,0,0,1.33-.26,1.33,1.33,0,0,0,.48-.39.78.78,0,0,0,.19-.5.59.59,0,0,0-.43-.57,5.72,5.72,0,0,0-1.21-.22l-.9-.09a10.64,10.64,0,0,1-1.28-.18,3.76,3.76,0,0,1-.75-.27,1.91,1.91,0,0,1-.84-.8,2.06,2.06,0,0,1-.28-1.09,2.19,2.19,0,0,1,.7-1.67,3.79,3.79,0,0,1,2.74-.88,6.45,6.45,0,0,1,1.43.16,10.22,10.22,0,0,1,1.65.57,2,2,0,0,0,.42.14.51.51,0,0,0,.29-.14Z" transform="translate(0 0)"/></svg>