<svg id="Layer_1" data-name="Layer 1" xmlns="http://www.w3.org/2000/svg" viewBox="0 0 422.59 422.64"><defs><style>.cls-1{fill:#fff}</style></defs><path d="M211.25 0a211.31 211.31 0 0 1 211.34 211.58c.08 116.42-94.89 211.26-211.42 211.06A211.06 211.06 0 0 1 0 211.14C.17 95.05 93.79.45 211.25 0Z"/><path class="cls-1" d="M211.63 14.12C321.73 14.05 409.23 104 409.1 212c-.1 107.5-85.86 197.39-197.94 197.52A197.08 197.08 0 0 1 13.76 212c-.01-111.14 89.58-197.83 197.87-197.88Zm-191.71 198c.34 105.81 85.63 191.13 190.94 191.17a191 191 0 0 0 192-191.1c.22-104.43-84.36-191.85-191.21-191.84A191.44 191.44 0 0 0 19.92 212.12Z"/><path class="cls-1" d="M294.38 175.79c1-.65 2.06-1.31 3.11-1.95a4.24 4.24 0 0 1 .84-.38 10.58 10.58 0 0 0 2.71-.94c1.53-1.07 2.58 0 3.71.62s2.27 1.39 3.67 2.26c-.72.59-1.18 1-1.65 1.34-.17.13-.51.25-.51.35.12 1.47-1.12 1.75-2 2.42-2.19 1.71-4.31 3.51-6.46 5.27l-2.63 2.22 2.66 1.84a3.24 3.24 0 0 1-3.17 1.17 5.6 5.6 0 0 0-5.22 1.41c-.77.7-1.39.74-2-.33a27.11 27.11 0 0 0-2.05-2.77l-.32.22 2.74 3.89-4.81 3.09-2.9-3.6-.31.24 2.75 3.62-5.33 3.48-2.91-3.48-.3.23 2.74 3.49-5.1 3.4-2.78-3.58-.3.21 2.64 3.7-5 3.42-2.94-3.59c.26 1.57 1.68 2.46 2.39 3.94l-5.35 3.68-2.8-3.55-.3.23c.87 1.2 1.75 2.39 2.64 3.6-1.44 1-2.88 1.92-4.25 2.94-.73.55-1.17.4-1.66-.28-.67-.94-1.4-1.85-2.1-2.77l-.34.25 2.67 3.55-7.82 6.24 2 1.52-1.11 1c-1.86-1-3.59-1.93-5.35-2.8a1.56 1.56 0 0 0-1.27 0c-2.93 1.92-5.8 3.9-8.71 5.84-2.5 1.67-5 3.3-7.53 4.95l-2.37 1.68c4 2.62 8 5.18 11.9 7.79 3.16 2.1 6.27 4.27 9.41 6.41 2.92 2 5.93 3.85 8.73 6 2.61 2 4.94 4.38 7.48 6.5a19.07 19.07 0 0 0 2.95 1.71h.27c.71.44 2.07 1 2 1.32-.16 1.08-1.18 1.57-2.31 1.63-.21 0-.41 0-.75.08 1 1.4 1.83 2.69 2.72 4s1.78 2.44 2.62 3.7c2 3.06 3.92 6.2 6 9.19 1.59 2.23 4.14 2.65 6.66 2.6a8.61 8.61 0 0 1 6.05 2.42c2.63 2.27 5.51 4.25 8.25 6.39 2.26 1.77 4.45 3.62 6.7 5.4s4.7 3.66 7.05 5.48l7.23 5.62 11.87 9.17c1.86 1.44 3.72 2.88 5.55 4.35 1.17.94 1.25 1.8 0 2.61a21.3 21.3 0 0 1-3.93 1.73c-3 1.16-6 2.22-9 3.42-3.15 1.27-6.29 2.57-9.35 4-2.86 1.38-5.62 3-8.41 4.53-.77.42-1.25.51-1.89-.37-2-2.76-4.2-5.41-6.28-8.14-1.52-2-3-4.05-4.48-6.05-2.13-2.79-4.31-5.55-6.44-8.35-1.43-1.88-2.81-3.81-4.24-5.7-2.33-3.06-4.68-6.11-7-9.16a18.77 18.77 0 0 1-1.56-2c-1.27-2.25-3.57-2.74-5.73-3.48-3.39-1.17-6.81-2.26-10.2-3.42a6.74 6.74 0 0 1-1.45-1 20.7 20.7 0 0 0 2.54-2.86 22.39 22.39 0 0 0 2.61-5.34c.71-2.53-.78-4.58-2.33-6.45-.56-.67-1.35-1.16-1.92-1.83a2.87 2.87 0 0 0-3.46-.69A14.77 14.77 0 0 1 237 273a15.83 15.83 0 0 1-3.3-2.57c-1.25-1.26-1.1-2.31.19-3.5a7.69 7.69 0 0 1 4.31-1.93 12.11 12.11 0 0 0 1.59-.53c-1.48-1-2.67-1.86-3.89-2.67-4.17-2.79-8.38-5.52-12.51-8.36a48.87 48.87 0 0 0-8.37-4.66 35.53 35.53 0 0 1-6.23-3.88c-1.61-1.13-2-1.18-3.65-.07-2.82 1.9-5.71 3.68-8.51 5.59q-3.56 2.44-7 5.09a3.28 3.28 0 0 0-.3 5c2.64 2.88 2.59 3.54-.54 5.8-1.43 1-2.93 2-4.31 3.08-2.9 2.32-5.92 2.16-9 .52s-5.85-1.18-8.53.84c-.74.56-1.56 1-2.28 1.62a2.34 2.34 0 0 0-.46 3.24 2.1 2.1 0 0 1 .2.49c1 3 1.79 6 2.89 8.88.54 1.43 1 3.1 2.87 3.64.28.08.47.5.9 1a26.2 26.2 0 0 1-3.11 1.43 14.08 14.08 0 0 0-7.05 4.86c-3.22 4-6.66 7.79-10 11.7-2.15 2.52-4.23 5.1-6.37 7.64-1.35 1.6-2.76 3.14-4.1 4.75a1.65 1.65 0 0 0-.19 1.05c0 .22.3.42.41.65.69 1.59.87 3-.64 4.37-2.47 2.24-4.79 4.64-7.17 7a13.33 13.33 0 0 0-1.95 1.87c-1.55 2.32-3.7 2.66-6.1 1.87-3.74-1.24-7.4-2.72-11.16-3.91a126.42 126.42 0 0 1-21.3-9.57 7.26 7.26 0 0 1-1.35-.91 2.33 2.33 0 0 1 0-3.76c8.19-7.23 16.73-14 25.46-20.57 5.16-3.87 10.42-7.62 15.65-11.41a6.66 6.66 0 0 1 4.35-1.19 57.69 57.69 0 0 0 8-.07c3.38-.38 4-1.68 3.92-4.27-.08-2.95 0-5.91 0-8.86a11.38 11.38 0 0 1 2.93-7.29 75.22 75.22 0 0 1 6.83-7.76 89.89 89.89 0 0 1 7.86-6.4c2-1.57 4.19-3 6.33-4.47s4.41-2.84 6.6-4.3 4.41-3 6.64-4.52 4.59-2.95 7-4.48c-1.44-1.12-2.79-2.19-4.16-3.25-2.08-1.6-4.27-3.09-6.25-4.82-2.85-2.51-5.5-5.24-8.33-7.78-1.91-1.71-3.68-3.72-6.9-4a17.41 17.41 0 0 1 12-3.43c-1.57-1.32-6.66-.23-10.13 1.52L87.62 157c1.49-.9 2.68-1.65 3.91-2.34 1.81-1 3.74-1.84 5.46-3 1.5-1 2.54-.39 3.75.43 5.42 3.66 10.87 7.25 16.3 10.88 3.2 2.14 6.39 4.31 9.59 6.44 4.06 2.7 8.15 5.36 12.2 8 2.54 1.69 5 3.43 7.58 5.13q6.71 4.5 13.43 9c3.95 2.62 7.95 5.18 11.88 7.82 4.6 3.08 9.13 6.26 13.73 9.35 3.25 2.18 6.59 4.23 9.85 6.41 3.45 2.3 6.86 4.68 10.28 7a15.66 15.66 0 0 0 1.91 1.25 1.55 1.55 0 0 0 1.25 0c3-2 6-4 9.06-6 3.44-2.25 6.91-4.44 10.36-6.68 2.58-1.69 5.13-3.44 7.71-5.13 2.84-1.85 5.71-3.65 8.55-5.51 2.13-1.39 4.23-2.84 6.35-4.25s4.38-2.88 6.57-4.32l8-5.31q6.57-4.34 13.13-8.67l16.38-10.72q6.9-4.48 13.79-9a65.52 65.52 0 0 0 5.56-3.71c1.92-1.56 3.75-1 5.53-.07 2.88 1.45 2.94 2.19.33 4-4.59 3.09-9.25 6.09-13.86 9.15q-5.6 3.71-11.15 7.47a10.67 10.67 0 0 0-1 .81Zm-113.22 93c-2.86.59-5.19-.5-7.35-2.37a1.79 1.79 0 0 0 1 2.17 15.84 15.84 0 0 0 2.55 1.25 6.47 6.47 0 0 0 6.17-.82c1.68-1.22 3.38-2.4 5.07-3.61 2.21-1.58 2.21-2.8-.08-4.27a6.94 6.94 0 0 0-7.55.49 57.34 57.34 0 0 1-5.3 3.46c1.07 2.61 3.06 3.47 5.49 3.72Zm62.77 4.77a1.86 1.86 0 0 1 .29-.27c2.37-1.43 1.95-3.21.37-4.39a7.69 7.69 0 0 1-1.18-1.1 6.25 6.25 0 0 0-8.29-.74c-1.28 1-1.46 2.3-.16 3.3 3.58 2.76 7.49 4.73 12.22 3.67a20 20 0 0 0 3.31-1.34l-.09-.47-2.94-2c-.29 2.3-1.87 2.92-3.53 3.36Zm-70.54-66.24.35-.43-76.46-51.49-.32.48Zm4.61 40.09.26.39L222 219l-.26-.39Zm-44 82.62.08-.34c-1.82-.61-3.66-1.17-5.46-1.82q-7.14-2.62-14.26-5.31c-4.78-1.8-9.78-3.08-14.13-5.93-.83-.55-1.76-.95-2.65-1.42 0 .34.09.54.25.63a54.09 54.09 0 0 0 6.11 3.43c3.79 1.58 7.7 2.88 11.56 4.29q8.41 3.06 16.82 6.1a13.59 13.59 0 0 0 1.62.34Zm150.35-148-.29-.38-39.32 27.18.27.38Zm38.09 134.75-.29-.48c-1.06.92-2.11 1.87-3.2 2.76A56.7 56.7 0 0 1 296.66 330a7.47 7.47 0 0 0-1.07.43l.22.43c9.92-2.68 19.13-6.7 26.57-14.05Zm-37.59-29.25-.32.36L311 309.06l.28-.36Zm-80.48-61.1.32-.55-23.38-15.66-.29.42Zm-44.08 66.16-.36-.3-20 23.94.36.29Zm69.5-49.1.33-.42-11.88-8.2-.31.45Zm77-67.84.2-.39-4.75-2.65-.24.39Z"/><path class="cls-1" d="M181.92 313.67a2.86 2.86 0 0 1 3.85-1.06 1 1 0 0 0 .85-.16c3.8-3.24 8.17-5.6 12.47-8.05q2.1-1.2 4.16-2.46a.86.86 0 0 0 .35-.55 3.06 3.06 0 0 1 2.8-2.7c.18-.73.19-1.81.49-1.89a14.9 14.9 0 0 1 3.59-.45c.19 0 .54.57.57.9.16 2.21.31 4.43.34 6.66a1.61 1.61 0 0 1-.86 1.22 5.52 5.52 0 0 1-2.39.23c-.41-.06-.74-.67-1.21-1.12-.53.27-1.33.64-2.08 1.1a1.07 1.07 0 0 0-.48.81c.21 1-.34 1.52-1.08 2-2.66 1.64-5.26 3.38-8 4.91a9.23 9.23 0 0 0-4.81 9.77c.73 4.67 1.31 9.35 2 14a11.59 11.59 0 0 0 .74 2.32 2.78 2.78 0 0 1-.52 3.14 21.79 21.79 0 0 0-1.51 2.27l-2.9-3.77a4.77 4.77 0 0 0-.34 1.35c.26 2.66.57 5.31.86 8 .32 3 .8 5.94.91 8.93.1 2.7-.24 5.41-.33 8.12-.06 1.49 0 3 0 4.48 0 2.79-.15 5.59 0 8.38a9.77 9.77 0 0 0 1 3.13c.38.91 1 1.72 1.38 2.64s.61 2-.59 2.63a2.56 2.56 0 0 1-3-.83 3.42 3.42 0 0 1-.51-1c-.24-1-.53-1.82-1.68-2.15a1.49 1.49 0 0 1-.71-1.2c.22-4-1.5-7.83-1.22-11.79.41-5.8-1.9-11.14-2.49-16.76 0-.29-.16-.56-.28-1-.23.26-.4.37-.42.51-.65 3.29-1.46 6.56-1.85 9.88-.55 4.62-.62 9.29-1.22 13.9a20.76 20.76 0 0 0-.15 5.22 2 2 0 0 1-1 1.53 1.91 1.91 0 0 0-1.19 1.77c-.15 1.65-1.09 2.34-2.85 2.54a1.32 1.32 0 0 1-1.35-2.11 17.74 17.74 0 0 0 2.3-8 2.1 2.1 0 0 0-.06-.94c-1.61-3.75-.44-7.59-.45-11.4 0-1.44-.12-2.88-.26-4.31-.3-3.25-.75-6.49-1-9.75-.25-3.79-.26-7.61-.47-11.41-.09-1.63-.44-3.24-.72-5.23-.45.53-.66.66-.72.85-.91 2.72-1.69 5.46-1.14 8.37.24 1.29.56 2.57.76 3.86.24 1.57-.21 2.39-1.39 2.78a2.46 2.46 0 0 1-2.44-1.8 60.89 60.89 0 0 1-1.17-7.58c-.2-2.47-.1-5-.08-7.45 0-1 .15-2 .26-3.06.21-1.79.37-3.58.67-5.34.47-2.76 1.64-5.06 4.27-6.44a2.72 2.72 0 0 0 1.34-1.46 5.19 5.19 0 0 1 2.24-3.09c.95-.69.8-2.47.14-4.1a12.82 12.82 0 0 1-1-4.16 3.36 3.36 0 0 1 1.09-2.33 6.37 6.37 0 0 1 5.41-1.09c1.62.3 1.78 2.1 2 3.42a6 6 0 0 0 1 3.28 1 1 0 0 1 .11.73c-.1.74-.25 1.48-.38 2.22ZM210.05 301c0-.15.41-.7.26-.91a1.89 1.89 0 0 0-1.21-.62 10.31 10.31 0 0 0-1.74 0v3.78a11.22 11.22 0 0 0 2 0 1.7 1.7 0 0 0 1.14-.73c.14-.38-.23-.9-.45-1.52ZM243.72 354a3.56 3.56 0 0 0-.29.7c-.81 4.18-1.74 8.34-2.36 12.55-.44 3-.48 6.13-.7 9.2a5.38 5.38 0 0 1-.17 1.62 11.63 11.63 0 0 0-.51 4.93 1.9 1.9 0 0 1-.8 1.54 2.09 2.09 0 0 0-1.44 1.86 3.3 3.3 0 0 1-.82 1.4 2.48 2.48 0 0 1-3 .56c-1-.64-.74-1.58-.47-2.43a4.68 4.68 0 0 1 1-2c1.68-1.54 1.31-3.5 1.17-5.33a98.61 98.61 0 0 1 .31-12.4c.05-1.07-.21-2.15-.21-3.22 0-3-.05-6.07.12-9.1s.59-6.23.94-9.34c.09-.81.35-1.6.43-2.4 0-.29-.24-.61-.37-.92a2.57 2.57 0 0 0-.76.44c-.75.89-1.45 1.82-2.18 2.75a18.22 18.22 0 0 1-1.82-2.5 3.51 3.51 0 0 1-.33-2.29c2-6.21 2.2-12.68 3-19.07a4.06 4.06 0 0 0-.84-2.74c-2.56-4.11-6.9-5.92-10.65-8.48-.52-.36-1.09-.66-1.6-1-.31-.24-.82-.64-.77-.88.44-2.29-1.61-2.32-2.76-3.17-.47 1.27-1.31 1.5-3.16 1.15-1.3-.24-1.2-1.08-1.14-2 .11-1.95.24-3.9.26-5.85 0-.83.37-1.22 1.12-1.17a8.75 8.75 0 0 1 2.91.48c.4.18.44 1.18.7 2a3 3 0 0 1 2.75 2.63 1.12 1.12 0 0 0 .45.64c2.82 1.68 5.65 3.33 8.48 5 1.4.81 2.83 1.57 4.17 2.47s2.52 1.91 3.79 2.85c.23.17.6.4.8.32 1.6-.6 3-.61 4 1.23l.3-.3-.16-2.28c.36-1.55.63-2.88 1-4.19.71-2.57 1-4.17 4.33-3.19a6.51 6.51 0 0 0 1.09.07 3.28 3.28 0 0 1 3.1 3.34 17 17 0 0 1-.62 3.45 34 34 0 0 0-.92 3.35c-.06.46.48 1 .81 1.52.63.91 1.32 1.77 2 2.66.34.47.55 1.1 1 1.41 3 2.05 4 4.9 4.13 8.4 0 1.5.9 2.95 1.07 4.46.25 2.24.09 4.52.34 6.76a31.61 31.61 0 0 1-.86 9.51 5.46 5.46 0 0 1-1.28 2.34 1.64 1.64 0 0 1-1.51.39c-.56-.37-1.61-.47-1.34-1.66.33-1.46.4-3 .73-4.42.68-3-.15-5.75-.89-8.55-.07-.27-.37-.48-.87-1.08-.28 2-.58 3.68-.73 5.35q-.5 5.28-.87 10.57c-.21 3-.15 6.09-.57 9.09a40.28 40.28 0 0 0 0 9.44 25.6 25.6 0 0 1-.13 6.06c-.18 1.15-.91 2.22-.53 3.48.54 1.8 1.06 3.61 1.6 5.42.07.21.22.4.31.6.78 1.65.65 2.69-.36 3.09a3.08 3.08 0 0 1-3.45-1.92 2.94 2.94 0 0 0-1.8-2.61c-.32-.13-.57-.92-.52-1.37.23-1.77.51-3.51-.47-5.16a1.48 1.48 0 0 1-.08-.67 83.12 83.12 0 0 0-.17-8.51c-.51-4.31-1.39-8.57-2.13-12.85-.11-.65-.3-1.28-.45-1.91Zm-27-53.49.32-.24c-.2-.25-.37-.69-.61-.74-.82-.15-1.85-.41-2.21.67s.53 1.3 1.27 1.59c.08 0 .2 0 .24.1.16.27.3.55.45.83-.33.08-.71.32-1 .22s-.6-.51-.9-.77h-.27l.17 1.39c1.06-.39 2.4-.46 2.76-1.09.65-1.1-.67-1.36-1.45-1.76-.21-.11-.29-.47-.43-.72.31-.08.67-.3.93-.22s.49.46.71.71ZM243.11 174.92l1.46 2.33c-1.71.82-2.54-.45-3.42-1.27l-.29 2.2-2.57-.37c-.67 1.13-1.7.38-2.38.06l-2.33 1.23-.81-1.94c-.61.77-.88 2.23-2.28 1.8-.33-.1-.38-1.12-.62-1.91-.22.31-.36.71-.64.87a16.75 16.75 0 0 1-1.85.77 12 12 0 0 1 .1-1.7 4.66 4.66 0 0 1 .52-1.08c-1.47.43-1.48 3-3.64 2.09l.73-1.56-.26-.21a6 6 0 0 1-1 1.08 8.85 8.85 0 0 1-1.46.68c0-.47.06-1 .1-1.42a.78.78 0 0 0-.08-.61c-.26.33-.53.66-.78 1-.62.84-1.27 1.14-2.24.4-.32-.23-1 0-1.53.23l1.11.83c-.56.27-.56.27-2.34-1.24a19.25 19.25 0 0 0-2 1.69c-.88 1-1.47.64-1.73-.37-.38-1.49-1.25-1.56-2.68-1 .11.86.28 1.78.31 2.7a4.93 4.93 0 0 1-.37 1.36c-.28-.34-.57-.68-.83-1a1.17 1.17 0 0 0-.58-.53l-.25 3.56-1.88-1.66-1.09 3.34c-1.34-1.12-.38-2.31-.74-3.46l-2.88 5.38-.48-.09c0-.7.06-1.4.09-2.07l-3.7 3.93-.54-.45 2.75-4.18-.37-.29-7.48 7.44-.35-.33 6.3-7.09c-4.73 2.87-8.66 6.87-13.66 9.31l-.21-.29 3.45-2.61-.2-.32-6.31 3.34-.2-.32c4.16-3.22 9.08-5.49 12.34-9.89l-6.91 4.07-.19-.28 8.87-6.16-.14-.2-3.95 1.78-.25-.42 3.28-2.59-2-.48 4.63-2.18-2.45-.38v-.46l3.11-1-1.16-1.54 2.89-.16-1.23-1.28a23.86 23.86 0 0 1 4.15-.14 3.33 3.33 0 0 0 3.8-2 22.54 22.54 0 0 1 1.79-2.5h-1.17a5.69 5.69 0 0 1-5.16-1.84c-1-1.19-2.4-2.1-3.29-3.36a30.59 30.59 0 0 1-2.56-4.88c-.12-.26.38-.79.54-1.11a5.68 5.68 0 0 1-1.82-.42c-.29-.18-.22-.93-.34-1.57-1.4-.63-1.55-1.06-.62-2.28-1.71-.53-1.83-.92-.84-2l-1.69-3.57 2.29-.11-2.39-1.86.26-.49 2.21.46-.72-1.71.23-.26 4.1 1.63c-.64-1.15-2.23-1.4-1.66-3.13l4.18 2.22c-.94-1.4-2.5-2.26-1.41-4.08 1.28 1.16 2.49 2.29 3.73 3.38 2.66 2.33 5.46 4.53 8 7 1.32 1.31 2.12 3.13 3.2 4.7a17.7 17.7 0 0 0 2 2.55c.83.84 1.63 2 3.11 1.37a4.71 4.71 0 0 0 3-4.27c-.13-1.5-.3-3 .9-4.24a2.44 2.44 0 0 1 3.93.2 6.37 6.37 0 0 0 1 .9 6.84 6.84 0 0 0-2.23 6.86c.39 1.86.76 3.72 1.24 5.55a1.52 1.52 0 0 0 1 .81 30.52 30.52 0 0 0 5.27.61 23.09 23.09 0 0 1 7.67 1.55c3.63 1.17 7.3 2.21 11 3.31.55.16 1.1.36 1.8.59-2.15 1.82-4.21 1-6.27.22l-.14.37 4 2.4c-1.94 1.35-3.5.46-5-.48l-.17.34 2.69 2.77c-1.66.89-2.84.09-4.32-.57Z"/><path class="cls-1" d="M220.83 388.76c.13-.2.17-.37.27-.41.81-.36 1.68-.54 1.77-1.75a3.48 3.48 0 0 0-1.25-3.28 16.34 16.34 0 0 1-4.77-5.13c-.13-.22-.68-.29-1-.27-1.94.1-3.88.31-5.81.34-.8 0-1 .26-1.08 1-.21 1.85-.48 3.69-.79 5.52s-.36 1.91-2.25 1.74c-.34 0-.69-.08-1.26-.15 3.07-2.66 1.69-5.87 2.1-8.83l-.9-.15c-.16.84-.28 1.69-.51 2.51-.59 2-1.19 4.06-1.86 6.07a2 2 0 0 1-2.53.56c-.1-.1.14-.82.25-.83 1.32-.11 1.47-1.08 1.54-2.05.22-3.48.63-6.95-.57-10.39a12.16 12.16 0 0 1-.26-3.49 37.28 37.28 0 0 0-.2-5 18.92 18.92 0 0 0-1.52-4.16c-.28-.65-1-1.14-1.19-1.8a6.21 6.21 0 0 1 .27-2.13l1.43.25a8.52 8.52 0 0 0 2.41.35c1.87-.27 4.41 1.84 4.28 3.72-.24 3.76.56 5 4 6.49a19.78 19.78 0 0 0 8.63 1.64 7.34 7.34 0 0 0 6.19-4.06c.63-1.15 1.19-2.35 1.91-3.44.23-.35.88-.43 1.34-.63a4.15 4.15 0 0 1 0 1.49c-1.24 3.09-2.59 6.11-5.68 7.9-.24.13-.35.86-.22 1.2.85 2.18 1.79 4.33 2.69 6.49.21.5.27 1.16.63 1.49 1.78 1.67 2.27 4 3.11 6.1a21.69 21.69 0 0 1 .65 2.52l-2.93.18a3.22 3.22 0 0 0 0-4.18 36.49 36.49 0 0 0-4.57-3.89l-.41.38a6 6 0 0 0 .82 1.2 3.25 3.25 0 0 1 1.07 3.3c-.13.67-.19 1.35-.33 2-.41 2.19-1.3 2.59-3.47 1.58ZM121.38 78.81c2.65 1.64 4.09 3.73 3.62 6.77a5.56 5.56 0 0 1-5.62 4.83c-5.61.24-11.24.07-16.94.07 0 0-.07-.41 0-.44 1.33-.59 1-1.76 1-2.79 0-5.54 0-11.09-.12-16.63 0-.55-.51-1.09-.77-1.64a1.57 1.57 0 0 1-.25-.68c0-.11.32-.25.51-.3a2.55 2.55 0 0 1 .68 0c4.54 0 9.08-.08 13.63-.08a11.56 11.56 0 0 1 2.69.3 5.5 5.5 0 0 1 4.43 4 5.62 5.62 0 0 1-1.76 5.69c-.31.25-.66.52-1.1.9Zm-13.22 7.89c3.35 0 6.52.08 9.69 0 1.69 0 2.49-1 2.59-2.73a2.51 2.51 0 0 0-2.25-2.97c-3.32-.17-6.66 0-10 0Zm-.07-9.82h7.65a9.62 9.62 0 0 0 2.15-.21 2.46 2.46 0 0 0-.18-4.82c-3.19-.13-6.39 0-9.62 0ZM251.24 108.85v6.87c0 2.09 0 4.18.09 6.27a3.66 3.66 0 0 0 .57 1.54c.31.55.42 1-.38 1h-4.86c1.11-3.35.38-6.63.47-9.89s0-6.54 0-9.81a24.73 24.73 0 0 0-.44-3h6.63c-1 1.82.33 3 1 4.35 1.63 3.29 3.35 6.52 5.15 10 .48-.92.88-1.64 1.25-2.38 1.39-2.75 2.82-5.48 4.14-8.27a39.71 39.71 0 0 0 1.34-3.81h6.23c-1.2 3.36-.38 6.78-.49 10.15s0 6.81.06 10.22a9 9 0 0 0 .67 2.19h-5.5c0-.11-.13-.31-.09-.35 1.17-1.05.78-2.43.79-3.72v-11.55l-.35-.11-8.12 16.3-7.88-16.06ZM155.6 90.25h-7.35c1.41-1.92-.2-3-.94-4.33a35.63 35.63 0 0 0-2.42-3.78 2.24 2.24 0 0 0-1.49-.82c-1.84-.1-3.7 0-5.66 0v7.24a1.79 1.79 0 0 0 .3.72c.16.32.34.63.51.94a4.78 4.78 0 0 1-1.1.27h-5.09c0-.21-.16-.46-.1-.52 1.2-1.06.8-2.47.79-3.76 0-5.18-.05-10.36-.15-15.54 0-.67-.52-1.33-.66-2a1 1 0 0 1 .41-.88 6.23 6.23 0 0 1 1.62-.07c4.63 0 9.27-.1 13.88.21 4.13.28 5.94 2.13 6.37 5.61.4 3.2-1.23 5.59-4.76 7-.17.07-.33.16-.61.3 2.3 3 3.69 6.65 6.78 9.08Zm-17.81-12.81h5.06a32.53 32.53 0 0 0 4.74-.3A2.65 2.65 0 0 0 150 74.2a2.44 2.44 0 0 0-2.55-2.49c-3.2-.16-6.42 0-9.7 0ZM291.5 79.73c2.37 3 3.68 6.7 6.84 9.09l-.3.32h-7.15c0-.08-.14-.2-.12-.22 1-1.33.05-2.3-.59-3.32-1-1.54-1.93-3.08-2.94-4.59-.22-.34-.63-.77-1-.79-2-.07-4.06 0-6.32 0 .59 3.15-.8 6.22 1.2 9.13h-6.42c0-.17-.13-.44-.06-.5 1.12-.92.8-2.18.79-3.36 0-5.36-.07-10.72-.15-16.07a6.18 6.18 0 0 0-.5-1.73 4.55 4.55 0 0 0-.35-.65c.25-.13.5-.38.76-.38 5.26 0 10.54-.14 15.78.22 4.5.31 6.79 3.74 5.79 7.89A6.26 6.26 0 0 1 293.1 79c-.48.28-.98.47-1.6.73Zm-11.3-9.16v5.78h6a21.76 21.76 0 0 0 3.79-.28 2.7 2.7 0 0 0 2.46-2.94 2.45 2.45 0 0 0-2.56-2.49c-3.24-.18-6.45-.07-9.69-.07ZM233.42 115.19c2.3 3.07 3.77 6.63 6.75 9.15l-.22.26h-7.25v-.76c0-.51.31-1.14.1-1.5-1.21-2.07-2.52-4.1-3.84-6.11a1.36 1.36 0 0 0-1-.56c-1.94-.06-3.89 0-6.1 0 .4 3.12-.78 6.17 1.05 9.14h-6.38c0-.18-.13-.45-.06-.5 1.12-.93.8-2.19.79-3.36 0-5.36-.07-10.72-.15-16.08a6.18 6.18 0 0 0-.5-1.73 4.55 4.55 0 0 0-.35-.65c.25-.13.51-.38.76-.38 5.26 0 10.54-.08 15.79.22 3.61.2 5.47 2.22 5.9 5.47a6.3 6.3 0 0 1-3.66 6.68c-.44.23-.98.43-1.63.71Zm-11.37-3.45h8.84a4.93 4.93 0 0 0 1.7-.45 2.61 2.61 0 0 0 1.72-2.8 2.2 2.2 0 0 0-2-2.27c-3.41-.28-6.83-.35-10.28-.5ZM149.31 103a11.07 11.07 0 0 0 1.2 2.23c3.72 4.22 7.5 8.39 11.5 12.85 0-.71.07-1.12.07-1.53q0-5.58-.07-11.17c0-.79.19-1.66-.82-2.09-.12 0-.1-.39-.17-.71h5.82c0 .14.12.41.06.46-1.09.82-.8 2-.8 3.08 0 4.63 0 9.27.11 13.9 0 1.67-.64 3.52 1.19 4.9l-.34.19h-5.64a16.63 16.63 0 0 0-1.51-2.59c-3.77-4.31-7.6-8.56-11.4-12.83l-.93-1V122.29c0 .87-.21 1.85.93 2.29.09 0 .06.41.09.73h-5.91c1.62-3.29.58-6.71.73-10s0-6.9 0-10.35a3.65 3.65 0 0 0-.45-1.21c-.11-.26-.23-.52-.35-.78a2.26 2.26 0 0 1 .69-.29h6.25ZM172.73 90.19c-3.57 0-6.89-.69-9.63-3.3-4.73-4.49-4.84-16.15 4.7-19 4.34-1.32 8.67-1.21 12.65 1.14 4.35 2.55 5.73 6.66 5.14 11.43-.72 5.81-4.77 9.31-11 9.76-.59.01-1.22-.03-1.86-.03Zm-8-11.56a7.91 7.91 0 0 0 8.09 8A7.86 7.86 0 1 0 173 70.9a7.91 7.91 0 0 0-8.32 7.73ZM221.42 76h12.94c-.25-3 .52-5.91-.73-8.87h6c-1.4 3.26-.47 6.67-.6 10-.11 2.63 0 5.27.07 7.9 0 1.47.23 2.94.36 4.56h-5.69c1.37-3 .31-6.1.68-9.23h-13.03c.37 3.2-.62 6.36.87 9.47h-6.07c1.16-2.86.48-5.78.57-8.66s0-5.81 0-8.72c0-1.74.38-3.55-1.13-5.38h5.84c.19 0 .52.55.49.81-.11.84-.48 1.67-.52 2.51-.11 1.89-.05 3.7-.05 5.61ZM305.05 80.65c.38.53.73.81.74 1.09a2.24 2.24 0 0 0 1.49 2.09c3 1.43 6.14 2.23 9.47 1.22a3.41 3.41 0 0 0 1.56-.76 3.35 3.35 0 0 0 1-2 2.25 2.25 0 0 0-1.42-1.51c-2.41-.59-4.89-.94-7.33-1.43a19.91 19.91 0 0 1-3.4-.94c-2.1-.82-3.7-2.16-3.8-4.64a6.36 6.36 0 0 1 3-6 12.67 12.67 0 0 1 8.93-1.56 47.61 47.61 0 0 1 6 1.72c.66.19 1.38.15 2 .33.28.08.7.6.64.73-.6 1.38-1.25 2.72-2 4-.09.16-.64.13-.95.07-.13 0-.16-.39-.27-.59-1.44-2.6-10.25-3.58-12.21-1.35a1.75 1.75 0 0 0 .87 3c1.87.51 3.82.73 5.72 1.15a40.37 40.37 0 0 1 5.38 1.37c4.93 1.85 4.39 8.14 1 10.53a12.24 12.24 0 0 1-6.4 2 21.89 21.89 0 0 1-9.19-1.49c-.78-.27-1.65-.26-2.42-.54a1.17 1.17 0 0 1-.45-1.06c.59-1.71 1.25-3.35 2.04-5.43ZM298.27 108.65c-.37-.23-.74-.32-.79-.51-.45-1.49-1.74-1.93-3-2.32a13.42 13.42 0 0 0-8-.37c-1.1.33-1.92.93-1.93 2.15s.89 1.65 1.87 1.84c2.36.45 4.74.79 7.09 1.27a22.79 22.79 0 0 1 3.51 1c4.93 1.9 4.41 8.15 1.07 10.55a12.21 12.21 0 0 1-6.39 2 21.89 21.89 0 0 1-9.33-1.53c-.72-.27-1.56-.25-2.29-.51a1.05 1.05 0 0 1-.52-.89c.58-1.76 1.26-3.48 2.06-5.61.38.62.56.94.75 1.25.36.59.58 1.43 1.11 1.72a12.42 12.42 0 0 0 9.93 1.46 3.2 3.2 0 0 0 1.54-.8 3.41 3.41 0 0 0 .89-2.08 2.12 2.12 0 0 0-1.37-1.41c-2.42-.57-4.9-.93-7.33-1.43a21.23 21.23 0 0 1-3.53-1c-2.07-.8-3.59-2.16-3.7-4.56a6.34 6.34 0 0 1 2.85-6 12.68 12.68 0 0 1 9-1.66 46 46 0 0 1 6 1.73 7.45 7.45 0 0 0 2 .29c.75 0 .93.27.64.89-.64 1.53-1.35 2.94-2.13 4.53ZM263.16 80.49c-3.22-1.69-6.47-.41-9.71-.92v6.22h1.75c3.28 0 6.55 0 9.82-.15a12.2 12.2 0 0 0 2-.68c.28-.07.9.16.91.27.06 1.57 0 3.14 0 4.49-5.95-.38-11.77 0-17.58-.06h-2.16c-.08-.19-.21-.36-.17-.42 1.05-1.55.61-3.3.61-5 0-4.68 0-9.36-.09-14a12.12 12.12 0 0 0-.68-2.61 2.7 2.7 0 0 1 .06-.84h16.77a5.66 5.66 0 0 0 1.52-.42c.3-.1.59-.26.88-.39a3.53 3.53 0 0 1 .24.87c0 1.32.06 2.64 0 4 0 .27-.22.53-.34.79-.22-.12-.44-.25-.67-.36a3.63 3.63 0 0 0-1.3-.55h-11.31a2.23 2.23 0 0 0-.43.15v5c3.27-.49 6.56.71 9.75-.94ZM195.43 102.35h7.34c-1 2.73 1.06 4.61 2 6.79 1.75 4.27 3.75 8.45 5.71 12.64A18.46 18.46 0 0 0 212 124a5.12 5.12 0 0 1 .3.88h-6.94c.67-1.37.14-4.42-.88-5.27a1.71 1.71 0 0 0-1-.21c-2.82 0-5.63 0-8.45.08a2 2 0 0 0-1.29.82 8.31 8.31 0 0 0-.89 1.82c-.34.8-1 1.64.3 2.25.09 0 0 .41 0 .72h-6.38a2.91 2.91 0 0 1 .2-.9 27.56 27.56 0 0 0 1.89-3.05c1.92-4.4 3.77-8.84 5.59-13.28.68-1.75 1.92-3.37.98-5.51Zm7.36 13.13c-1.35-2.92-2.59-5.6-4-8.6l-3.32 8.6ZM210 71.66a16.15 16.15 0 0 0-2.47-.75 20.56 20.56 0 0 0-2.72 0h-2.83c0 .57-.07 1-.06 1.44 0 5 .08 10 .18 15 0 .53.45 1 .67 1.59a5.73 5.73 0 0 1 .17.88h-6.17c0-.13-.13-.31-.08-.38 1.23-1.6.65-3.45.68-5.19.06-4.36 0-8.71 0-13.32-2.9.35-5.65-.68-8.28 1.12V66c.23 0 .61 0 .64.07.51 1.42 1.7 1.09 2.75 1.08 4.77 0 9.54-.06 14.31-.09 1 0 2.13.19 2.57-1.15 0-.07.32-.06.62-.11ZM127 125.36c.13-.41.18-.84.28-.85 1.35-.18 1.13-1.18 1.12-2.07q-.07-8.58-.16-17.16c0-.75.18-1.62-1-1.73-.13 0-.33-.33-.31-.48s.26-.42.4-.42q3.21-.08 6.4-.07c.16 0 .45.26.44.37s-.2.56-.36.59c-1 .17-.92.86-.91 1.56l.16 17.84c0 .67 0 1.29.88 1.42.18 0 .31.34.46.53-.22.15-.44.45-.66.45-2.16.03-4.33.02-6.74.02ZM110.79 222.54h10.37v3.2c-1-.92-1.74-2-2.74-2.4s-2.3-.19-3.57-.25v5.24c2.07.75 3.24-.31 4-2.28l.26.31v5.06l-.21.17c-.44-.67-.73-1.58-1.34-1.94a8.31 8.31 0 0 0-2.74-.47c0 1.74-.06 3.27 0 4.79a1.46 1.46 0 0 0 .92 1c2.51.77 4.27 0 5.57-2.39a4.38 4.38 0 0 1 .52-.7l.4.08-.18 3.84h-11.57c.4-.34.59-.64.78-.65 1.27 0 1.42-.83 1.41-1.86v-6.95c0-1.5.49-3.27-2.22-3.33ZM293.75 231.51c0 3.18-1.75 5.15-4.64 5.18s-4.85-2-4.82-5.16 1.83-5 4.67-5.07 4.77 1.93 4.79 5.05Zm-7.61-.09a15.12 15.12 0 0 0 .89 3.29 2.72 2.72 0 0 0 1.87 1.29 2.52 2.52 0 0 0 2-1 6.6 6.6 0 0 0 .17-6.51 2.74 2.74 0 0 0-2-1.23 2.83 2.83 0 0 0-2 1.23 11.77 11.77 0 0 0-.93 2.93ZM297.85 234.77h6.35l.08 1.65h-8.72c.41-.8.57-1.53 1-1.87a34 34 0 0 1 3.44-2.19 2.87 2.87 0 0 0 1.65-3.26 2.42 2.42 0 0 0-1.14-1.62 3.89 3.89 0 0 0-2.29.2c-.22.07-.21.84-.34 1.28a3 3 0 0 1-.49 1.25 1.12 1.12 0 0 1-1.07-.08 1.9 1.9 0 0 1-.25-1.47 3.94 3.94 0 0 1 1.5-1.65 4.88 4.88 0 0 1 5.05.26 2.83 2.83 0 0 1 .15 4.48 13.15 13.15 0 0 1-2 1.17c-1 .53-2 1-3 1.52ZM314.58 234.71v1.71h-8.67c.43-.81.59-1.53 1-1.88a39.31 39.31 0 0 1 3.44-2.19 3 3 0 0 0 1.66-3.4 2.15 2.15 0 0 0-3.45-1.29c-.28.25-.2.87-.33 1.31a2.87 2.87 0 0 1-.51 1.25 1.11 1.11 0 0 1-1.07-.1 1.73 1.73 0 0 1-.29-1.35 3.89 3.89 0 0 1 1.21-1.57 5.09 5.09 0 0 1 5.52.15 2.87 2.87 0 0 1 0 4.41 13.09 13.09 0 0 1-2 1.16 18.68 18.68 0 0 0-3 1.79ZM276.29 234.75h6.36c0 .56.06 1 .09 1.58h-8.8a7.22 7.22 0 0 1 1.18-1.85 32.82 32.82 0 0 1 3.33-2.11 2.88 2.88 0 0 0 1.68-3.25 2.49 2.49 0 0 0-1.12-1.64 4 4 0 0 0-2.3.19c-.23.07-.23.83-.36 1.27a3 3 0 0 1-.47 1.26 1.1 1.1 0 0 1-1.06-.06 1.8 1.8 0 0 1-.28-1.45A3.9 3.9 0 0 1 276 227a4.88 4.88 0 0 1 5.05.24 2.81 2.81 0 0 1 .17 4.47 15 15 0 0 1-2.34 1.36c-.89.48-1.8.93-2.71 1.39ZM129.85 226.5v2.7l-.28.1a6.92 6.92 0 0 0-.52-.77 5.48 5.48 0 0 0-1.18-1.26 1.82 1.82 0 0 0-2.6.62c-.34 1.15.42 1.64 1.34 2s1.61.61 2.38 1a2.44 2.44 0 0 1 1.45 2.42 2.24 2.24 0 0 1-1.58 2.31 12.63 12.63 0 0 1-3.14.29 14.58 14.58 0 0 1-2.14-.3v-2.89l.3-.12c.21.34.41.69.62 1a3 3 0 0 0 2.57 1.75c.9 0 1.8-.26 1.81-1.22a2.77 2.77 0 0 0-1.08-1.76 8.13 8.13 0 0 0-2-.81c-1.68-.71-2.29-1.65-2-3.1a2.87 2.87 0 0 1 3.18-2.17c.89.02 1.8.12 2.87.21ZM133.31 227.77l-1.71-.77 1.72-.75v-2.57H135l.13 2.87h2c.2 0 .4.23.6.36-.21.16-.4.45-.62.47a17.71 17.71 0 0 1-2 0c0 2.15-.08 4.18.06 6.19 0 .44.79.93 1.31 1.2a3.25 3.25 0 0 0 1.33 0l.18.33a8.52 8.52 0 0 1-1.5.71c-2.18.55-3.21-.24-3.24-2.46.04-1.84.06-3.78.06-5.58ZM142.13 235.09c-.51.32-1 .91-1.52.87s-1.2-.81-1.14-1.14a1.82 1.82 0 0 1 1.2-1.25c.44-.06 1 .6 1.47.94Z"/><path d="M181.16 268.81c-2.43-.25-4.42-1.11-5.5-3.7a57.34 57.34 0 0 0 5.3-3.46 6.94 6.94 0 0 1 7.55-.49c2.29 1.47 2.29 2.69.08 4.27-1.69 1.21-3.39 2.39-5.07 3.61a6.47 6.47 0 0 1-6.17.82 15.84 15.84 0 0 1-2.55-1.25 1.79 1.79 0 0 1-1-2.17c2.2 1.87 4.5 2.96 7.36 2.37ZM243.93 273.58c1.66-.44 3.24-1.06 3.53-3.38l2.94 2 .09.47a20 20 0 0 1-3.31 1.34c-4.73 1.06-8.64-.91-12.22-3.67-1.3-1-1.12-2.29.16-3.3a6.25 6.25 0 0 1 8.29.74 7.69 7.69 0 0 0 1.18 1.1c1.58 1.18 2 3-.37 4.39a1.86 1.86 0 0 0-.29.31ZM173.39 207.34 97 155.88l.32-.48 76.46 51.51ZM178 247.41l43.79-28.8.26.39-43.79 28.8ZM133.94 330a13.59 13.59 0 0 1-1.68-.37q-8.41-3-16.82-6.1c-3.86-1.41-7.77-2.71-11.56-4.29a54.09 54.09 0 0 1-6.11-3.43c-.16-.09-.26-.29-.25-.63.89.47 1.82.87 2.65 1.42 4.35 2.85 9.35 4.13 14.13 5.93s9.5 3.56 14.26 5.31c1.8.65 3.64 1.21 5.46 1.82ZM284.29 182.06 245 209.24l-.27-.38L284 181.68ZM322.38 316.81c-7.44 7.35-16.65 11.37-26.57 14l-.22-.43a7.47 7.47 0 0 1 1.07-.43 56.7 56.7 0 0 0 22.23-10.88c1.09-.89 2.14-1.84 3.2-2.76ZM284.79 287.56l26.44 21.14-.28.36-26.48-21.14ZM204.31 226.46 181 210.67l.29-.42 23.38 15.66ZM160.23 292.62l-20 23.93-.36-.29 20-23.94ZM229.73 243.52l-11.86-8.17.31-.45 11.88 8.2ZM306.73 175.68 302 173l.21-.39 4.75 2.65ZM210.05 301c.22.64.59 1.16.46 1.46a1.7 1.7 0 0 1-1.14.73 11.22 11.22 0 0 1-2 0v-3.78a10.31 10.31 0 0 1 1.74 0 1.89 1.89 0 0 1 1.21.62c.14.25-.22.8-.27.97ZM216.7 300.48c-.22-.25-.41-.63-.69-.72s-.62.14-.93.22c.14.25.22.61.43.72.78.4 2.1.66 1.45 1.76-.36.63-1.7.7-2.76 1.09l-.17-1.39c.14 0 .24-.05.27 0 .3.26.55.65.9.77s.63-.14 1-.22c-.15-.28-.29-.56-.45-.83 0-.06-.16-.07-.24-.1-.74-.29-1.6-.61-1.27-1.59s1.39-.82 2.21-.67c.24.05.41.49.61.74ZM108.16 86.7V81c3.37 0 6.71-.12 10 0a2.51 2.51 0 0 1 2.25 2.91c-.1 1.69-.9 2.68-2.59 2.73-3.14.14-6.31.06-9.66.06ZM108.09 76.88V71.8c3.23 0 6.43-.09 9.62 0a2.46 2.46 0 0 1 .18 4.82 9.62 9.62 0 0 1-2.15.21c-2.52.06-5.04.05-7.65.05ZM137.79 77.44v-5.78c3.28 0 6.5-.11 9.7 0A2.44 2.44 0 0 1 150 74.2a2.65 2.65 0 0 1-2.45 2.93 32.53 32.53 0 0 1-4.74.3c-1.59.05-3.23.01-5.02.01ZM280.2 70.57c3.24 0 6.45-.11 9.65.05a2.45 2.45 0 0 1 2.56 2.49 2.7 2.7 0 0 1-2.41 2.94 21.76 21.76 0 0 1-3.79.28h-6ZM222.05 111.74v-6c3.45.15 6.87.22 10.28.5a2.2 2.2 0 0 1 2 2.27 2.61 2.61 0 0 1-1.72 2.8 4.93 4.93 0 0 1-1.7.45c-2.91 0-5.82-.02-8.86-.02ZM164.68 78.63a8.2 8.2 0 0 1 16.38.16 8 8 0 0 1-8.29 7.81 7.91 7.91 0 0 1-8.09-7.97ZM202.79 115.48h-7.29l3.32-8.6c1.38 3 2.62 5.68 3.97 8.6ZM286.14 231.42a11.77 11.77 0 0 1 .88-3 2.83 2.83 0 0 1 2-1.23 2.74 2.74 0 0 1 2 1.23 6.6 6.6 0 0 1-.17 6.51 2.52 2.52 0 0 1-2 1 2.72 2.72 0 0 1-1.87-1.28 15.12 15.12 0 0 1-.84-3.23Z"/></svg>